<svg xmlns="http://www.w3.org/2000/svg" xmlns:xlink="http://www.w3.org/1999/xlink" width="500" zoomAndPan="magnify" viewBox="0 0 375 374.999991" height="500" preserveAspectRatio="xMidYMid meet" version="1.0"><defs><clipPath id="30dff31049"><path d="M 116 22.363281 L 286 22.363281 L 286 114 L 116 114 Z M 116 22.363281 " clip-rule="nonzero"/></clipPath><clipPath id="de43a4fef9"><path d="M 38.617188 190 L 207.898438 190 L 207.898438 332.753906 L 38.617188 332.753906 Z M 38.617188 190 " clip-rule="nonzero"/></clipPath><clipPath id="41c6de9c81"><path d="M 116.207031 228.144531 L 130.3125 228.144531 L 130.3125 332.753906 L 116.207031 332.753906 Z M 116.207031 228.144531 " clip-rule="nonzero"/></clipPath><clipPath id="1af9da955c"><path d="M 194 151.4375 L 363.636719 151.4375 L 363.636719 242.25 L 194 242.25 Z M 194 151.4375 " clip-rule="nonzero"/></clipPath><clipPath id="d252956e27"><path d="M 194 190 L 363.636719 190 L 363.636719 332.753906 L 194 332.753906 Z M 194 190 " clip-rule="nonzero"/></clipPath><clipPath id="ec52a7ebc6"><path d="M 272 228.144531 L 286 228.144531 L 286 332.753906 L 272 332.753906 Z M 272 228.144531 " clip-rule="nonzero"/></clipPath><clipPath id="12b89e2fc9"><path d="M 350 190 L 363.636719 190 L 363.636719 294.269531 L 350 294.269531 Z M 350 190 " clip-rule="nonzero"/></clipPath></defs><g clip-path="url(#30dff31049)"><path fill="#111111" d="M 120.640625 61.6875 L 198.058594 23.429688 L 198.050781 23.414062 C 200.171875 22.367188 202.578125 22.527344 204.476562 23.640625 L 281.882812 61.898438 L 278.894531 67.953125 L 281.894531 61.882812 C 285.246094 63.539062 286.621094 67.601562 284.964844 70.953125 C 284.203125 72.492188 282.9375 73.613281 281.464844 74.21875 L 204.042969 112.480469 L 204.050781 112.492188 C 201.929688 113.539062 199.527344 113.375 197.628906 112.265625 L 120.222656 74.011719 L 123.210938 67.953125 L 120.210938 74.023438 C 116.855469 72.367188 115.480469 68.308594 117.136719 64.953125 C 117.898438 63.414062 119.167969 62.292969 120.640625 61.6875 Z M 201.050781 37.019531 L 138.453125 67.953125 L 201.050781 98.890625 L 263.648438 67.953125 L 201.050781 37.019531 " fill-opacity="1" fill-rule="nonzero"/></g><path fill="#111111" d="M 129.980469 67.953125 C 129.980469 64.210938 126.949219 61.179688 123.210938 61.179688 C 119.46875 61.179688 116.4375 64.210938 116.4375 67.953125 L 116.4375 158.441406 C 116.4375 162.179688 119.46875 165.210938 123.210938 165.210938 C 126.949219 165.210938 129.980469 162.179688 129.980469 158.441406 L 129.980469 67.953125 " fill-opacity="1" fill-rule="nonzero"/><path fill="#111111" d="M 207.824219 106.523438 C 207.824219 102.78125 204.792969 99.75 201.050781 99.75 C 197.3125 99.75 194.28125 102.78125 194.28125 106.523438 L 194.28125 197.011719 C 194.28125 200.75 197.3125 203.78125 201.050781 203.78125 C 204.792969 203.78125 207.824219 200.75 207.824219 197.011719 L 207.824219 106.523438 " fill-opacity="1" fill-rule="nonzero"/><path fill="#111111" d="M 285.664062 67.953125 C 285.664062 64.210938 282.632812 61.179688 278.894531 61.179688 C 275.152344 61.179688 272.121094 64.210938 272.121094 67.953125 L 272.121094 158.441406 C 272.121094 162.179688 275.152344 165.210938 278.894531 165.210938 C 282.632812 165.210938 285.664062 162.179688 285.664062 158.441406 L 285.664062 67.953125 " fill-opacity="1" fill-rule="nonzero"/><path fill="#111111" d="M 42.820312 190.660156 L 120.242188 152.398438 L 120.234375 152.386719 C 122.351562 151.335938 124.757812 151.5 126.65625 152.613281 L 204.066406 190.871094 L 201.074219 196.925781 L 204.074219 190.851562 C 207.425781 192.511719 208.800781 196.574219 207.144531 199.921875 C 206.386719 201.464844 205.121094 202.585938 203.644531 203.1875 L 126.222656 241.449219 L 126.234375 241.464844 C 124.113281 242.511719 121.707031 242.347656 119.8125 241.238281 L 42.402344 202.980469 L 45.390625 196.925781 L 42.390625 202.996094 C 39.039062 201.339844 37.664062 197.277344 39.320312 193.925781 C 40.082031 192.382812 41.347656 191.265625 42.820312 190.660156 Z M 123.234375 165.988281 L 60.636719 196.925781 L 123.234375 227.863281 L 185.828125 196.925781 L 123.234375 165.988281 " fill-opacity="1" fill-rule="nonzero"/><g clip-path="url(#de43a4fef9)"><path fill="#111111" d="M 52.160156 196.925781 C 52.160156 193.183594 49.128906 190.152344 45.390625 190.152344 C 41.652344 190.152344 38.617188 193.183594 38.617188 196.925781 L 38.617188 287.414062 C 38.617188 290.25 40.363281 292.679688 42.835938 293.6875 L 120.234375 332.03125 L 120.226562 332.050781 C 122.347656 333.101562 124.761719 332.933594 126.660156 331.820312 L 204.0625 293.46875 C 207.410156 291.820312 208.785156 287.769531 207.128906 284.425781 C 205.480469 281.078125 201.429688 279.703125 198.085938 281.359375 L 123.234375 318.441406 L 52.160156 283.230469 L 52.160156 196.925781 " fill-opacity="1" fill-rule="nonzero"/></g><g clip-path="url(#41c6de9c81)"><path fill="#111111" d="M 130.003906 235.492188 C 130.003906 231.753906 126.972656 228.722656 123.234375 228.722656 C 119.496094 228.722656 116.460938 231.753906 116.460938 235.492188 L 116.460938 325.980469 C 116.460938 329.722656 119.496094 332.753906 123.234375 332.753906 C 126.972656 332.753906 130.003906 329.722656 130.003906 325.980469 L 130.003906 235.492188 " fill-opacity="1" fill-rule="nonzero"/></g><path fill="#111111" d="M 207.847656 196.925781 C 207.847656 193.183594 204.816406 190.152344 201.074219 190.152344 C 197.335938 190.152344 194.300781 193.183594 194.300781 196.925781 L 194.300781 287.414062 C 194.300781 291.152344 197.335938 294.183594 201.074219 294.183594 C 204.816406 294.183594 207.847656 291.152344 207.847656 287.414062 L 207.847656 196.925781 " fill-opacity="1" fill-rule="nonzero"/><g clip-path="url(#1af9da955c)"><path fill="#111111" d="M 198.613281 190.660156 L 276.03125 152.398438 L 276.023438 152.386719 C 278.144531 151.335938 280.546875 151.5 282.449219 152.613281 L 359.855469 190.871094 L 356.867188 196.925781 L 359.867188 190.851562 C 363.21875 192.511719 364.59375 196.574219 362.9375 199.921875 C 362.175781 201.464844 360.910156 202.585938 359.4375 203.1875 L 282.015625 241.449219 L 282.023438 241.464844 C 279.90625 242.511719 277.5 242.347656 275.601562 241.238281 L 198.195312 202.980469 L 201.183594 196.925781 L 198.183594 202.996094 C 194.828125 201.339844 193.453125 197.277344 195.109375 193.925781 C 195.871094 192.382812 197.140625 191.265625 198.613281 190.660156 Z M 279.023438 165.988281 L 216.425781 196.925781 L 279.023438 227.863281 L 341.625 196.925781 L 279.023438 165.988281 " fill-opacity="1" fill-rule="nonzero"/></g><g clip-path="url(#d252956e27)"><path fill="#111111" d="M 207.953125 196.925781 C 207.953125 193.183594 204.917969 190.152344 201.183594 190.152344 C 197.441406 190.152344 194.410156 193.183594 194.410156 196.925781 L 194.410156 287.414062 C 194.410156 290.25 196.15625 292.679688 198.628906 293.6875 L 276.023438 332.03125 L 276.019531 332.050781 C 278.144531 333.101562 280.550781 332.933594 282.453125 331.820312 L 359.855469 293.46875 C 363.199219 291.820312 364.574219 287.769531 362.921875 284.425781 C 361.273438 281.078125 357.222656 279.703125 353.878906 281.359375 L 279.023438 318.441406 L 207.953125 283.230469 L 207.953125 196.925781 " fill-opacity="1" fill-rule="nonzero"/></g><g clip-path="url(#ec52a7ebc6)"><path fill="#111111" d="M 285.796875 235.492188 C 285.796875 231.753906 282.765625 228.722656 279.023438 228.722656 C 275.285156 228.722656 272.253906 231.753906 272.253906 235.492188 L 272.253906 325.980469 C 272.253906 329.722656 275.285156 332.753906 279.023438 332.753906 C 282.765625 332.753906 285.796875 329.722656 285.796875 325.980469 L 285.796875 235.492188 " fill-opacity="1" fill-rule="nonzero"/></g><g clip-path="url(#12b89e2fc9)"><path fill="#111111" d="M 363.636719 196.925781 C 363.636719 193.183594 360.605469 190.152344 356.867188 190.152344 C 353.125 190.152344 350.09375 193.183594 350.09375 196.925781 L 350.09375 287.414062 C 350.09375 291.152344 353.125 294.183594 356.867188 294.183594 C 360.605469 294.183594 363.636719 291.152344 363.636719 287.414062 L 363.636719 196.925781 " fill-opacity="1" fill-rule="nonzero"/></g></svg>