<?xml version="1.0" encoding="UTF-8"?>
<svg version="1.1" xmlns="http://www.w3.org/2000/svg" width="852" height="265">
<path d="M0 0 C9.9 0 19.8 0 30 0 C30.33 31.02 30.66 62.04 31 94 C32.65 89.38 34.3 84.76 36 80 C43.55878211 67.49893729 53.16365356 59.30275258 67.5 55.6875 C82.51190178 53.19350993 98.7801888 53.84080385 111.75390625 62.3515625 C123.3000599 70.82543527 126.56372745 81.25490979 130 95 C130 103.25 130 111.5 130 120 C106.9 120 83.8 120 60 120 C61.96803545 131.86107893 61.96803545 131.86107893 68.75 140.75 C78.77528013 147.69057855 89.42177949 147.55140559 101.1640625 145.80078125 C107.74778826 144.42637821 114.76262448 142.47016983 120.17578125 138.33984375 C122 137 122 137 125 137 C125.99 144.59 126.98 152.18 128 160 C109.60007006 171.66824825 89.61077854 174.10544262 68.14453125 171.5390625 C56.94218072 169.02334309 47.02295666 163.12587589 40 154 C35.87675815 147.36772162 33.14798745 140.51795609 31 133 C30.67 144.88 30.34 156.76 30 169 C21.75 169 13.5 169 5 169 C4.34 165.7 3.68 162.4 3 159 C0.00552751 159 -0.94190262 160.7004632 -3.0625 162.75 C-13.11457401 171.91035777 -23.81473442 172.56923376 -36.86376953 172.13183594 C-46.40270654 171.54314725 -54.70682115 166.77650215 -61.1875 159.875 C-64.40932042 155.87240416 -66.51935046 151.29771999 -68.703125 146.671875 C-69.98782537 143.87125447 -69.98782537 143.87125447 -72 141 C-72.36351562 141.78503906 -72.72703125 142.57007813 -73.1015625 143.37890625 C-79.2888115 156.30867018 -86.38245374 163.22063384 -99.46875 169.140625 C-106.89247777 171.6610264 -113.99952502 172.35937785 -121.8125 172.3125 C-123.2660791 172.30512817 -123.2660791 172.30512817 -124.74902344 172.29760742 C-138.81965056 172.0675024 -151.39968123 168.29196622 -161.828125 158.4921875 C-171.48586428 147.41010537 -175.19024173 134.43603545 -176 120 C-183.21965459 121.49163422 -183.21965459 121.49163422 -189 125.75 C-193.05870987 132.34540354 -193.29510414 138.38822038 -193.1875 145.9375 C-193.18685547 146.79279297 -193.18621094 147.64808594 -193.18554688 148.52929688 C-193.15440955 153.06496676 -192.86077845 157.43623907 -192.23803711 161.92504883 C-190.87692529 173.78975584 -190.04290623 187.09836267 -197.5078125 197 C-202.40887102 202.47094904 -208.83747932 205.57534768 -216 207 C-218.38943295 207.08220526 -220.78104847 207.10745472 -223.171875 207.09765625 C-224.1955014 207.09553383 -224.1955014 207.09553383 -225.23980713 207.09336853 C-227.40991684 207.08779084 -229.5799217 207.07524254 -231.75 207.0625 C-233.22525892 207.05748211 -234.70051947 207.05291971 -236.17578125 207.04882812 C-239.78388798 207.03782875 -243.39193375 207.02057953 -247 207 C-247 203.37 -247 199.74 -247 196 C-245.3603125 195.96261719 -243.720625 195.92523438 -242.03125 195.88671875 C-239.85414489 195.82103023 -237.67706256 195.7545839 -235.5 195.6875 C-234.42234375 195.66494141 -233.3446875 195.64238281 -232.234375 195.61914062 C-224.49610077 195.35962533 -218.22996035 194.73844464 -212.125 189.5625 C-207.61308012 184.12165543 -206.77569589 178.62979228 -207.11279297 171.671875 C-207.34658558 169.27462087 -207.63358777 166.88933802 -207.9375 164.5 C-211.23523461 134.7175081 -211.23523461 134.7175081 -203.3515625 123.6953125 C-200.25756108 120.00683045 -196.90219897 116.83796289 -193 114 C-193.86625 113.484375 -194.7325 112.96875 -195.625 112.4375 C-203.04605677 107.39678219 -207.10614711 100.7483091 -209 92 C-209.66240312 84.67216547 -209.16253039 77.48067098 -208.46875 70.17578125 C-208.37287598 69.16483398 -208.27700195 68.15388672 -208.17822266 67.11230469 C-207.98069588 65.1255861 -207.76759489 63.1403349 -207.53662109 61.15722656 C-206.7777821 53.91616588 -207.49111266 47.99411354 -210.0625 41.1875 C-213.76048631 37.01235417 -218.71044897 35.29969421 -224.17260742 34.5847168 C-227.63949664 34.38644495 -231.09028646 34.29227377 -234.5625 34.25 C-235.76197266 34.22035156 -236.96144531 34.19070312 -238.19726562 34.16015625 C-241.1311579 34.09002337 -244.06558001 34.04268247 -247 34 C-247 30.04 -247 26.08 -247 22 C-242.58295162 21.91831486 -238.16744654 21.85916317 -233.75 21.8125 C-232.51507813 21.78736328 -231.28015625 21.76222656 -230.0078125 21.73632812 C-218.3085254 21.64396533 -207.77341901 22.67268704 -199 31 C-193.18400246 36.97318667 -191.64052942 43.71014587 -191.6875 51.77734375 C-191.708125 52.67582031 -191.72875 53.57429688 -191.75 54.5 C-191.75515625 55.39847656 -191.7603125 56.29695313 -191.765625 57.22265625 C-191.81962151 61.85960628 -192.13056891 66.34278293 -192.76855469 70.93164062 C-193.2360517 75.1095253 -193.2258986 79.30033063 -193.25 83.5 C-193.270625 84.39847656 -193.29125 85.29695313 -193.3125 86.22265625 C-193.35443674 93.42529094 -192.25621061 98.94747977 -187.875 104.875 C-184.1090636 107.65851821 -180.57239725 108.33256946 -176 109 C-175.97421875 108.21238281 -175.9484375 107.42476563 -175.921875 106.61328125 C-175.14026675 91.60285017 -170.68174617 77.93015888 -160 67 C-145.86734318 55.99256866 -130.49909968 53.58621695 -113 55 C-99.25358853 56.84905384 -88.02062874 62.29177034 -79 73 C-76.04007158 77.07460885 -73.64334426 81.21936214 -72 86 C-70.09510101 83.14265151 -68.71363108 80.35037981 -67.25 77.25 C-61.83930554 66.45462404 -54.86824859 60.26566532 -43.375 56.125 C-30.80526026 52.79946256 -17.23314466 54.47341459 -5.875 60.625 C-2.24137931 62.75862069 -2.24137931 62.75862069 -1 64 C-0.67 42.88 -0.34 21.76 0 0 Z M-138.7109375 85.73046875 C-146.8715333 95.70231874 -147.531461 108.16808453 -146.78515625 120.5703125 C-145.74796704 128.92709414 -143.50865928 137.2294361 -137 143 C-130.70877058 147.19415295 -124.59113956 148.56232337 -117.0625 147.5 C-110.36221167 145.95221303 -106.04872689 142.27184742 -102.4296875 136.4921875 C-98.43508196 128.84537118 -97.79800681 122.32770829 -97.75 113.8125 C-97.729375 112.91724609 -97.70875 112.02199219 -97.6875 111.09960938 C-97.63635748 102.24556006 -99.298863 94.00425403 -105 87 C-110.22773915 81.81558465 -114.95856367 79.71307109 -122.3125 79.625 C-129.17439197 79.76440638 -133.82560373 80.78936633 -138.7109375 85.73046875 Z M-37.25 86.9375 C-45.06612116 97.08137308 -45.2196114 110.77986737 -44 123 C-42.52316415 131.5551615 -39.69998621 138.30940036 -33 144 C-27.30283201 147.67942099 -21.7632247 148.44453718 -15.125 147.4375 C-9.37745052 146.17004651 -4.17919787 143.17919787 0 139 C0.1401578 137.43729376 0.21221075 135.86840687 0.25634766 134.30004883 C0.28532135 133.29843216 0.31429504 132.29681549 0.34414673 131.2648468 C0.44137269 126.66494707 0.51571038 122.06520904 0.56982422 117.46459961 C0.60647796 115.03847886 0.66104104 112.61255974 0.73388672 110.18725586 C0.83730743 106.6931133 0.8817536 103.20246846 0.9140625 99.70703125 C0.95737701 98.62557327 1.00069153 97.5441153 1.0453186 96.42988586 C1.08999689 90.68215203 1.08999689 90.68215203 -1.88995361 86.01205444 C-13.25071524 78.20199095 -26.98591975 76.67341975 -37.25 86.9375 Z M65.47265625 85.61328125 C61.20035835 91.1982272 60 95.91462096 60 103 C73.2 103 86.4 103 100 103 C100 95.87989057 99.33401293 89.82149263 94.50390625 84.28515625 C89.31520436 79.82106111 84.64743326 79.64722303 78.078125 79.7265625 C72.86262923 80.18986796 69.08726972 81.79528799 65.47265625 85.61328125 Z " fill="#FEFFFE" transform="translate(713,4)"/>
<path d="M0 0 C1.29035156 0.00902344 2.58070313 0.01804687 3.91015625 0.02734375 C7.06518554 0.05071434 10.22011811 0.08657789 13.375 0.125 C13.375 4.085 13.375 8.045 13.375 12.125 C11.51875 12.15078125 9.6625 12.1765625 7.75 12.203125 C5.29164372 12.25942324 2.83331129 12.31677018 0.375 12.375 C-0.84574219 12.38917969 -2.06648437 12.40335938 -3.32421875 12.41796875 C-10.50652475 12.61208513 -15.55905859 13.16297867 -21.625 17.125 C-30.20757642 27.68817097 -26.45007298 42.92155839 -25.16015625 55.50195312 C-24.28237042 65.33900629 -24.61330176 75.81728873 -30.625 84.125 C-34.00101916 87.5760418 -37.61288734 90.45025822 -41.625 93.125 C-40.779375 93.62 -39.93375 94.115 -39.0625 94.625 C-32.39973683 99.10894489 -27.39216716 105.23536392 -25.625 113.125 C-24.00472393 121.60762177 -24.96723218 129.82296114 -25.84887695 138.32373047 C-27.93911824 153.43286373 -27.93911824 153.43286373 -22.625 167.125 C-17.49585837 172.69378234 -10.15477548 173.13622924 -2.93359375 173.5390625 C-0.97687504 173.61759302 0.98019341 173.68782216 2.9375 173.75 C4.45053711 173.80800781 4.45053711 173.80800781 5.99414062 173.8671875 C8.45415999 173.96045838 10.91455365 174.04376893 13.375 174.125 C13.375 177.755 13.375 181.385 13.375 185.125 C9.14326361 185.19997625 4.91189412 185.25398541 0.6796875 185.28979492 C-0.7556025 185.30474586 -2.19084791 185.32511424 -3.62597656 185.35131836 C-14.77100265 185.54950397 -24.86827641 185.22141021 -33.87109375 177.85546875 C-40.60402026 171.21251453 -42.67982409 163.4181724 -42.875 154.1875 C-42.80233486 148.95560968 -42.29114765 143.86748279 -41.625 138.6875 C-39.5031498 122.08156565 -39.5031498 122.08156565 -43.625 106.125 C-46.59965106 102.36754602 -49.10513499 100.56579311 -53.625 99.125 C-56.17502682 98.92132641 -58.61961545 98.81410343 -61.16918945 98.80615234 C-61.91119095 98.79610672 -62.65319244 98.7860611 -63.41767883 98.77571106 C-65.85787213 98.7449453 -68.29795603 98.72786253 -70.73828125 98.7109375 C-72.43508338 98.69222052 -74.13187626 98.6726467 -75.82865906 98.6522522 C-80.28539568 98.60098098 -84.74216247 98.56132849 -89.19903564 98.52410889 C-93.75060456 98.48403779 -98.30204855 98.43295962 -102.85351562 98.3828125 C-111.77725593 98.28611256 -120.70106686 98.20168882 -129.625 98.125 C-129.33361218 99.70284613 -129.03538871 101.27943067 -128.734375 102.85546875 C-128.56905273 103.73356201 -128.40373047 104.61165527 -128.23339844 105.51635742 C-126.61643343 112.44945177 -123.59267496 117.1082957 -117.625 121.125 C-106.25299245 126.98256424 -92.81673955 125.67566917 -80.94921875 121.98046875 C-76.72943084 120.39864565 -72.74364519 118.80224246 -68.8828125 116.46484375 C-66.625 115.125 -66.625 115.125 -64.625 115.125 C-64.08962128 118.1851404 -63.5743113 121.24833716 -63.0625 124.3125 C-62.91103516 125.17681641 -62.75957031 126.04113281 -62.60351562 126.93164062 C-61.12358634 135.91446723 -61.12358634 135.91446723 -62.625 139.125 C-65.3984375 141.0390625 -65.3984375 141.0390625 -69 142.75 C-69.94359375 143.19883545 -69.94359375 143.19883545 -70.90625 143.65673828 C-76.30976085 146.14929908 -81.78820799 147.93940162 -87.625 149.125 C-88.47835937 149.30804688 -89.33171875 149.49109375 -90.2109375 149.6796875 C-106.42726492 151.79486064 -124.82363321 151.88280845 -138.625 142.125 C-149.88435232 133.2831963 -155.25462201 123.96947573 -158.625 110.125 C-158.955 106.165 -159.285 102.205 -159.625 98.125 C-181.075 98.125 -202.525 98.125 -224.625 98.125 C-221.55371342 112.09801144 -221.55371342 112.09801144 -212.625 121.5 C-201.39959549 127.01423379 -187.49944907 125.59574496 -175.96484375 121.9765625 C-171.73544148 120.4030532 -167.74871785 118.80531351 -163.8828125 116.46484375 C-161.625 115.125 -161.625 115.125 -159.625 115.125 C-159.11994737 118.02003383 -158.6207978 120.91587953 -158.125 123.8125 C-157.98191406 124.62912109 -157.83882813 125.44574219 -157.69140625 126.28710938 C-156.14872603 135.35953826 -156.14872603 135.35953826 -156.625 138.125 C-167.93208186 148.54909933 -186.0203018 150.48443026 -200.625 150.4375 C-201.62789062 150.45361328 -202.63078125 150.46972656 -203.6640625 150.48632812 C-217.65502773 150.49536622 -230.34050615 146.0043778 -240.58984375 136.3515625 C-253.80922469 121.88890005 -255.45008077 102.29846539 -254.76855469 83.65771484 C-253.99023835 69.92599083 -249.35065442 55.92783322 -239.609375 45.86328125 C-226.62897085 34.49265163 -211.48117523 31.9601044 -194.77685547 32.94042969 C-186.13180901 33.6819381 -178.84854442 36.39903719 -171.625 41.125 C-170.75875 41.681875 -169.8925 42.23875 -169 42.8125 C-163.07254622 48.58396815 -159.09653265 55.27424923 -156.625 63.125 C-154.43234839 60.32968976 -152.69698184 57.49109531 -151 54.375 C-144.62585658 43.71479463 -134.87933484 37.82982079 -123.1875 34.3125 C-109.11743334 31.13538817 -93.02572123 31.75711865 -80.3125 38.875 C-69.92493983 45.7115412 -63.3541072 55.44498523 -60.25 67.5625 C-59.12619747 73.98771882 -58.95067649 80.62004058 -58.625 87.125 C-53.06092188 86.20371473 -48.5881286 85.43781642 -44.625 81.125 C-39.18042977 70.43030847 -40.11988602 59.26459633 -41.625 47.6875 C-43.21821103 35.18163486 -44.44036536 22.5698234 -37.5625 11.375 C-28.27080351 -0.39262759 -13.64836961 -0.18272791 0 0 Z M-218.8125 64.25 C-222.87649851 69.27399816 -224.625 74.71014622 -224.625 81.125 C-211.425 81.125 -198.225 81.125 -184.625 81.125 C-184.58621569 70.64501512 -184.58621569 70.64501512 -190.12109375 62.55078125 C-195.43318865 57.92753656 -199.92010995 57.82844008 -206.68359375 57.91796875 C-212.11618713 58.30034252 -215.16417627 60.42414227 -218.8125 64.25 Z M-123.8125 64.3125 C-128.07932213 69.60963088 -129.625 74.35317965 -129.625 81.125 C-116.425 81.125 -103.225 81.125 -89.625 81.125 C-89.625 73.53502976 -89.93683982 68.1790873 -95.12109375 62.48046875 C-103.64215875 55.10687884 -116.295967 56.30218016 -123.8125 64.3125 Z " fill="#FEFFFE" transform="translate(383.625,25.875)"/>
<path d="M0 0 C12.21 0 24.42 0 37 0 C44.17902799 21.33766652 51.14673395 42.73083497 57.98828125 64.17871094 C58.66793291 66.30925623 59.34762023 68.43979014 60.02734375 70.5703125 C60.36079803 71.61554077 60.69425232 72.66076904 61.03781128 73.7376709 C64.32822899 84.04329168 67.65738818 94.33620569 71 104.625 C71.25965546 105.4243396 71.51931091 106.2236792 71.78683472 107.04724121 C73.18980079 111.36529094 74.59416361 115.68288376 76 120 C83.62438963 97.43541474 91.00644994 74.79425129 98.3125 52.125 C98.63446602 51.12627995 98.63446602 51.12627995 98.9629364 50.10738373 C104.34373533 33.41604678 109.69329099 16.71505915 115 0 C126.88 0 138.76 0 151 0 C147.62460414 11.25131953 147.62460414 11.25131953 145.87792969 16.32788086 C145.28935432 18.04299362 145.28935432 18.04299362 144.68888855 19.79275513 C144.27077408 21.00454437 143.85265961 22.21633362 143.421875 23.46484375 C142.97387463 24.76759782 142.5260279 26.07040473 142.07832336 27.3732605 C140.88509381 30.84381077 139.68928894 34.31346819 138.49281693 37.78290176 C137.74544126 39.95072297 136.99880067 42.11879595 136.25241089 44.28695679 C128.78778595 65.97040978 121.27819883 87.63783305 113.70063782 109.28210449 C110.72728658 117.77540292 107.76386394 126.27215773 104.80078125 134.76904297 C101.86781065 143.17957931 98.93380634 151.58975515 96 160 C81.81 160 67.62 160 53 160 C45.23457359 137.36460812 37.54710453 114.70890861 30 92 C24.50192353 75.45674705 18.96167645 58.92980708 13.3125 42.4375 C12.7368037 40.75570097 12.1611198 39.07389768 11.58544922 37.39208984 C10.77994834 35.03936639 9.97435594 32.68667437 9.1685791 30.33404541 C6.97686025 23.93457455 4.78732295 17.53447848 2.625 11.125 C2.20408081 9.89414673 2.20408081 9.89414673 1.7746582 8.63842773 C0.76714124 5.63460269 0 3.1916813 0 0 Z " fill="#FFFFFF" transform="translate(2,13)"/>
<path d="M0 0 C-2.16163513 6.93998648 -4.8936214 13.43117569 -8 20 C-8.94101562 19.65066406 -9.88203125 19.30132812 -10.8515625 18.94140625 C-12.10927474 18.48149655 -13.36709293 18.02187653 -14.625 17.5625 C-16.46964844 16.88380859 -16.46964844 16.88380859 -18.3515625 16.19140625 C-28.59909077 12.84505066 -37.8801318 13.25661081 -47.625 17.625 C-54.33601757 21.79257256 -57.55151189 28.18173427 -59.4765625 35.6328125 C-62.48842988 49.25364558 -62.04544629 64.99245464 -54.51171875 77.1640625 C-50.32989985 82.24275729 -44.36526836 84.83303413 -38 86 C-28.93312224 86.86924344 -21.50459715 85.02631119 -13 82 C-11.00092528 81.33056389 -9.00119153 80.66308137 -7 80 C1 95.71541502 1 95.71541502 1 100 C-15.70604813 108.70517516 -33.52909374 111.65408662 -52 107 C-64.93879072 102.82829921 -74.16883667 95.84663619 -81 84 C-89.30955855 64.94781117 -90.42542182 40.59293544 -83 21 C-78.58236352 10.378874 -70.66846602 0.7946174 -60 -4 C-40.47839365 -10.89685494 -17.94252194 -11.68350266 0 0 Z " fill="#33FFCD" transform="translate(472,69)"/>
<path d="M0 0 C1.29035156 0.00902344 2.58070313 0.01804687 3.91015625 0.02734375 C7.06518554 0.05071434 10.22011811 0.08657789 13.375 0.125 C13.375 4.085 13.375 8.045 13.375 12.125 C11.51875 12.15078125 9.6625 12.1765625 7.75 12.203125 C5.29164372 12.25942324 2.83331129 12.31677018 0.375 12.375 C-0.84574219 12.38917969 -2.06648438 12.40335938 -3.32421875 12.41796875 C-10.50652475 12.61208513 -15.55905859 13.16297867 -21.625 17.125 C-30.20757642 27.68817097 -26.45007298 42.92155839 -25.16015625 55.50195312 C-24.28237042 65.33900629 -24.61330176 75.81728873 -30.625 84.125 C-34.00101916 87.5760418 -37.61288734 90.45025822 -41.625 93.125 C-40.779375 93.62 -39.93375 94.115 -39.0625 94.625 C-32.39973683 99.10894489 -27.39216716 105.23536392 -25.625 113.125 C-24.00472393 121.60762177 -24.96723218 129.82296114 -25.84887695 138.32373047 C-27.93911824 153.43286373 -27.93911824 153.43286373 -22.625 167.125 C-17.49585837 172.69378234 -10.15477548 173.13622924 -2.93359375 173.5390625 C-0.97687504 173.61759302 0.98019341 173.68782216 2.9375 173.75 C4.45053711 173.80800781 4.45053711 173.80800781 5.99414062 173.8671875 C8.45415999 173.96045838 10.91455365 174.04376893 13.375 174.125 C13.375 177.755 13.375 181.385 13.375 185.125 C9.14326361 185.19997625 4.91189412 185.25398541 0.6796875 185.28979492 C-0.7556025 185.30474586 -2.19084791 185.32511424 -3.62597656 185.35131836 C-14.77100265 185.54950397 -24.86827641 185.22141021 -33.87109375 177.85546875 C-40.60402026 171.21251453 -42.67982409 163.4181724 -42.875 154.1875 C-42.80233486 148.95560968 -42.29114765 143.86748279 -41.625 138.6875 C-39.5031498 122.08156565 -39.5031498 122.08156565 -43.625 106.125 C-48.10859131 100.46151624 -52.66721713 99.09585342 -59.625 98.125 C-59.625 94.495 -59.625 90.865 -59.625 87.125 C-58.078125 86.8775 -56.53125 86.63 -54.9375 86.375 C-50.52124547 85.47054109 -47.70898928 84.58280616 -44.625 81.125 C-39.18042977 70.43030847 -40.11988602 59.26459633 -41.625 47.6875 C-43.21821103 35.18163486 -44.44036536 22.5698234 -37.5625 11.375 C-28.27080351 -0.39262759 -13.64836961 -0.18272791 0 0 Z " fill="#33FFCD" transform="translate(383.625,25.875)"/>
<path d="M0 0 C4.41704838 -0.08168514 8.83255346 -0.14083683 13.25 -0.1875 C15.10238281 -0.22520508 15.10238281 -0.22520508 16.9921875 -0.26367188 C28.6914746 -0.35603467 39.22658099 0.67268704 48 9 C53.81599754 14.97318667 55.35947058 21.71014587 55.3125 29.77734375 C55.291875 30.67582031 55.27125 31.57429688 55.25 32.5 C55.24484375 33.39847656 55.2396875 34.29695313 55.234375 35.22265625 C55.18037849 39.85960628 54.86943109 44.34278293 54.23144531 48.93164062 C53.7639483 53.1095253 53.7741014 57.30033063 53.75 61.5 C53.729375 62.39847656 53.70875 63.29695313 53.6875 64.22265625 C53.64556326 71.42529094 54.74378939 76.94747977 59.125 82.875 C63.01897123 85.75315265 66.24083243 86.21864413 71 87 C71 90.63 71 94.26 71 98 C69.453125 98.37125 67.90625 98.7425 66.3125 99.125 C60.99101483 100.73574657 58.90974176 102.27166965 56 107 C53.93123309 112.72721787 53.72620949 117.88353931 53.8125 123.9375 C53.81314453 124.79279297 53.81378906 125.64808594 53.81445312 126.52929688 C53.84559045 131.06496676 54.13922155 135.43623907 54.76196289 139.92504883 C56.12307471 151.78975584 56.95709377 165.09836267 49.4921875 175 C44.59112898 180.47094904 38.16252068 183.57534768 31 185 C28.61056705 185.08220526 26.21895153 185.10745472 23.828125 185.09765625 C22.8044986 185.09553383 22.8044986 185.09553383 21.76019287 185.09336853 C19.59008316 185.08779084 17.4200783 185.07524254 15.25 185.0625 C13.77474108 185.05748211 12.29948053 185.05291971 10.82421875 185.04882812 C7.21611202 185.03782875 3.60806625 185.02057953 0 185 C0 181.37 0 177.74 0 174 C1.6396875 173.96261719 3.279375 173.92523438 4.96875 173.88671875 C7.14585511 173.82103023 9.32293744 173.7545839 11.5 173.6875 C12.57765625 173.66494141 13.6553125 173.64238281 14.765625 173.61914062 C22.50389923 173.35962533 28.77003965 172.73844464 34.875 167.5625 C39.38691988 162.12165543 40.22430411 156.62979228 39.88720703 149.671875 C39.65341442 147.27462087 39.36641223 144.88933802 39.0625 142.5 C35.76476539 112.7175081 35.76476539 112.7175081 43.6484375 101.6953125 C46.74243892 98.00683045 50.09780103 94.83796289 54 92 C53.13375 91.484375 52.2675 90.96875 51.375 90.4375 C43.95394323 85.39678219 39.89385289 78.7483091 38 70 C37.33759688 62.67216547 37.83746961 55.48067098 38.53125 48.17578125 C38.62712402 47.16483398 38.72299805 46.15388672 38.82177734 45.11230469 C39.01930412 43.1255861 39.23240511 41.1403349 39.46337891 39.15722656 C40.2222179 31.91616588 39.50888734 25.99411354 36.9375 19.1875 C33.23951369 15.01235417 28.28955103 13.29969421 22.82739258 12.5847168 C19.36050336 12.38644495 15.90971354 12.29227377 12.4375 12.25 C11.23802734 12.22035156 10.03855469 12.19070312 8.80273438 12.16015625 C5.8688421 12.09002337 2.93441999 12.04268247 0 12 C0 8.04 0 4.08 0 0 Z " fill="#33FFCD" transform="translate(466,26)"/>
<path d="M0 0 C3.21521504 1.71699112 4.59824686 2.68536558 5.76953125 6.19921875 C6.32382812 5.77769531 6.878125 5.35617188 7.44921875 4.921875 C8.17367187 4.37402344 8.898125 3.82617188 9.64453125 3.26171875 C10.36382813 2.71644531 11.083125 2.17117187 11.82421875 1.609375 C16.44701938 -1.74169132 21.23372982 -1.32836454 26.76953125 -0.80078125 C31.09259571 0.43776094 33.40106124 2.65941349 35.9453125 6.38671875 C38.97222578 12.73363542 38.19030061 19.83944591 38.01953125 26.69921875 C37.99943291 28.10804749 37.98118803 29.51690396 37.96484375 30.92578125 C37.91792328 34.35097539 37.85227902 37.77473399 37.76953125 41.19921875 C35.45953125 41.19921875 33.14953125 41.19921875 30.76953125 41.19921875 C30.73980225 40.16365845 30.73980225 40.16365845 30.70947266 39.10717773 C30.61364832 35.95000404 30.50420311 32.79344053 30.39453125 29.63671875 C30.36359375 28.55068359 30.33265625 27.46464844 30.30078125 26.34570312 C30.20904493 16.697213 30.20904493 16.697213 26.14453125 8.26171875 C22.67345996 6.70887107 19.45160479 6.40289729 15.76953125 7.19921875 C12.5499848 9.73375532 11.0652069 11.3121918 9.76953125 15.19921875 C9.61966714 17.18986315 9.52125087 19.18457266 9.453125 21.1796875 C9.3902832 22.92475586 9.3902832 22.92475586 9.32617188 24.70507812 C9.28685547 25.92001953 9.24753906 27.13496094 9.20703125 28.38671875 C9.14225586 30.2265332 9.14225586 30.2265332 9.07617188 32.10351562 C8.97000035 35.13530256 8.86795173 38.1671719 8.76953125 41.19921875 C6.45953125 41.19921875 4.14953125 41.19921875 1.76953125 41.19921875 C1.75494873 40.47855225 1.74036621 39.75788574 1.7253418 39.01538086 C1.65046166 35.72197788 1.55393284 32.42954439 1.45703125 29.13671875 C1.43447266 28.00298828 1.41191406 26.86925781 1.38867188 25.70117188 C1.19051929 19.52241412 0.91869129 14.59243582 -2.23046875 9.19921875 C-5.9072897 6.74800478 -8.95967838 6.37503113 -13.23046875 7.19921875 C-16.75505287 9.8989002 -18.46094689 11.87912976 -19.23046875 16.19921875 C-19.37615278 18.14975639 -19.47706342 20.1038694 -19.546875 22.05859375 C-19.58876953 23.17363281 -19.63066406 24.28867188 -19.67382812 25.4375 C-19.73280273 27.17580078 -19.73280273 27.17580078 -19.79296875 28.94921875 C-19.85774414 30.71072266 -19.85774414 30.71072266 -19.92382812 32.5078125 C-20.02981669 35.40483326 -20.13188513 38.3019381 -20.23046875 41.19921875 C-22.54046875 41.19921875 -24.85046875 41.19921875 -27.23046875 41.19921875 C-27.23046875 27.66921875 -27.23046875 14.13921875 -27.23046875 0.19921875 C-24.92046875 0.19921875 -22.61046875 0.19921875 -20.23046875 0.19921875 C-19.90046875 1.18921875 -19.57046875 2.17921875 -19.23046875 3.19921875 C-18.46734375 2.53921875 -17.70421875 1.87921875 -16.91796875 1.19921875 C-11.93699664 -2.10569166 -5.51649207 -1.98052692 0 0 Z " fill="#FFFFFF" transform="translate(803.23046875,217.80078125)"/>
<path d="M0 0 C0 1.98 0 3.96 0 6 C-2.31 6.66 -4.62 7.32 -7 8 C-7.33 10.64 -7.66 13.28 -8 16 C-5.36 16 -2.72 16 0 16 C0 17.98 0 19.96 0 22 C-2.64 22 -5.28 22 -8 22 C-8 33.55 -8 45.1 -8 57 C-10.64 57 -13.28 57 -16 57 C-16 45.45 -16 33.9 -16 22 C-20.95 22 -25.9 22 -31 22 C-31 30.91 -31 39.82 -31 49 C-27.7 49.33 -24.4 49.66 -21 50 C-21 52.31 -21 54.62 -21 57 C-32.06205251 57.38663484 -32.06205251 57.38663484 -36 55 C-39.32227402 51.58153766 -39.35436072 48.93141461 -39.29296875 44.265625 C-39.28330078 42.97011719 -39.27363281 41.67460937 -39.26367188 40.33984375 C-39.23860783 38.97655646 -39.21321302 37.61327521 -39.1875 36.25 C-39.17244518 34.87110816 -39.15875817 33.49220065 -39.14648438 32.11328125 C-39.11111909 28.74179085 -39.06175904 25.37109346 -39 22 C-40.65 22 -42.3 22 -44 22 C-44 20.02 -44 18.04 -44 16 C-42.35 16 -40.7 16 -39 16 C-39 12.7 -39 9.4 -39 6 C-36.36 6 -33.72 6 -31 6 C-31 9.3 -31 12.6 -31 16 C-26.05 16 -21.1 16 -16 16 C-15.938125 14.453125 -15.87625 12.90625 -15.8125 11.3125 C-15.42738366 7.37203431 -15.13881295 6.17899565 -12.625 2.9375 C-8.38477247 -0.19219175 -5.14513479 -0.09707801 0 0 Z " fill="#FFFFFF" transform="translate(703,202)"/>
<path d="M0 0 C1.670625 0.99 1.670625 0.99 3.375 2 C3.705 1.01 4.035 0.02 4.375 -1 C7.015 -1 9.655 -1 12.375 -1 C12.375 12.53 12.375 26.06 12.375 40 C9.735 40 7.095 40 4.375 40 C3.88 38.02 3.88 38.02 3.375 36 C2.488125 36.66 1.60125 37.32 0.6875 38 C-4.71089019 41.08479439 -10.60632105 40.76107166 -16.625 40 C-22.53046805 37.25817555 -26.57734514 32.69396964 -28.9375 26.625 C-30.46424113 18.57491039 -29.87633451 12.27597505 -25.55859375 5.26953125 C-19.41755651 -2.93878585 -8.86172088 -4.40733375 0 0 Z M-18.625 9 C-21.69886865 13.95785265 -22.08628385 17.87235798 -21.25390625 23.62890625 C-20.1860982 27.65474158 -18.83089215 29.27158115 -15.625 32 C-11.31542451 34.10509662 -8.48547114 34.25814134 -3.875 32.875 C0.33450464 30.44643963 2.82171791 28.65984626 4.375 24 C4.89938572 19.00544092 4.92503096 15.12043344 2.6875 10.5625 C-0.94178341 6.54086163 -3.1150358 5.1677738 -8.5625 4.5625 C-12.87029758 4.75757008 -15.39409056 6.06964027 -18.625 9 Z " fill="#FFFFFF" transform="translate(642.625,219)"/>
<path d="M0 0 C4.95979287 2.85749384 8.8723289 6.99198669 10.6875 12.4375 C11.90592544 28.15718566 11.90592544 28.15718566 6.6875 34.4375 C0.34872341 40.17121155 -5.35833313 40.8508213 -13.78515625 40.78125 C-18.69135614 40.30312642 -21.78854682 38.84605925 -25.3125 35.4375 C-30.77591089 28.43312707 -31.03894407 22.08320757 -30.3125 13.4375 C-28.65182845 7.46857198 -25.3173506 3.91025348 -20.3125 0.4375 C-13.89117134 -2.58180023 -6.54774304 -2.93389256 0 0 Z M-21.3125 11.4375 C-23.25289987 17.25869962 -23.25194324 23.33314714 -20.75 28.9375 C-17.70903351 32.05643999 -15.53215772 33.31225794 -11.3125 34.4375 C-6.93331911 34.23768947 -3.98222124 32.91795219 -0.4375 30.375 C3.15682672 25.40637188 3.96743709 20.79696976 3.25 14.75 C1.20218218 10.40862622 -1.06895577 7.73239584 -5.3125 5.4375 C-12.18071099 3.63262621 -16.93748854 6.08592348 -21.3125 11.4375 Z " fill="#FFFFFF" transform="translate(735.3125,218.5625)"/>
<path d="M0 0 C26.46153846 0 26.46153846 0 32.875 5.4375 C35.8540667 9.28425602 35.63313567 13.45937883 35.41796875 18.15234375 C34.84688683 22.04317292 33.74265231 24.18517263 31 27 C25.93430094 30.20420723 21.90378575 30.37699588 16.125 30.1875 C13.44375 30.125625 10.7625 30.06375 8 30 C8 37.26 8 44.52 8 52 C5.36 52 2.72 52 0 52 C0 34.84 0 17.68 0 0 Z M8 6 C8 11.94 8 17.88 8 24 C11.0628125 24.0928125 11.0628125 24.0928125 14.1875 24.1875 C15.91033203 24.23970703 15.91033203 24.23970703 17.66796875 24.29296875 C21.33249897 23.97076504 23.12060528 23.25163479 26 21 C27.83403688 16.94983522 28.30483537 14.95036911 26.9375 10.6875 C24.69279179 7.57387248 23.61179 7.09371105 20 6 C16.87420806 5.75987081 16.87420806 5.75987081 13.6875 5.875 C11.810625 5.91625 9.93375 5.9575 8 6 Z " fill="#FFFFFF" transform="translate(561,207)"/>
<path d="M0 0 C0 2.64 0 5.28 0 8 C-0.61488281 8.08636719 -1.22976563 8.17273438 -1.86328125 8.26171875 C-2.67152344 8.40222656 -3.47976563 8.54273438 -4.3125 8.6875 C-5.11300781 8.81511719 -5.91351562 8.94273437 -6.73828125 9.07421875 C-9.90558066 10.37067809 -10.50940109 11.95390251 -12 15 C-12.49867358 18.08618895 -12.49867358 18.08618895 -12.51171875 21.39453125 C-12.54716797 22.59658203 -12.58261719 23.79863281 -12.61914062 25.03710938 C-12.65297852 26.90592773 -12.65297852 26.90592773 -12.6875 28.8125 C-12.72166016 30.07771484 -12.75582031 31.34292969 -12.79101562 32.64648438 C-12.87337129 35.76423445 -12.94256529 38.88170759 -13 42 C-15.64 42 -18.28 42 -21 42 C-21 28.47 -21 14.94 -21 1 C-18.36 1 -15.72 1 -13 1 C-12.67 1.99 -12.34 2.98 -12 4 C-10.700625 3.01 -10.700625 3.01 -9.375 2 C-5.78576537 -0.12695385 -4.07305202 -0.38790972 0 0 Z " fill="#FFFFFF" transform="translate(772,217)"/>
<path d="M0 0 C2.31 0 4.62 0 7 0 C7 18.15 7 36.3 7 55 C4.69 55 2.38 55 0 55 C0 36.85 0 18.7 0 0 Z " fill="#FFFFFF" transform="translate(601,204)"/>
</svg>
