<?xml version="1.0" encoding="UTF-8"?>
<svg version="1.1" xmlns="http://www.w3.org/2000/svg" width="197" height="198">
<path d="M0 0 C3.09258909 3.09258909 1.30567921 12.60720306 1.31842041 17.07693481 C1.31049264 27.88137911 0.51545347 37.7274288 -3 48 C-3.31348389 48.93440918 -3.31348389 48.93440918 -3.63330078 49.88769531 C-9.93933487 68.28147563 -20.55850734 84.40695993 -33.75390625 98.56640625 C-35.46399159 100.41924654 -37.06724513 102.27264785 -38.625 104.25 C-42.21725785 108.40945646 -46.35151388 112.41820511 -51.09130859 115.24902344 C-53.23913337 116.87099834 -53.23913337 116.87099834 -53.49829102 119.56860352 C-53.50014404 120.57850342 -53.50199707 121.58840332 -53.50390625 122.62890625 C-53.52259766 123.74716797 -53.54128906 124.86542969 -53.56054688 126.01757812 C-53.56151367 127.77231445 -53.56151367 127.77231445 -53.5625 129.5625 C-53.61543552 142.97031174 -54.98739514 152.8953776 -64.65820312 162.67724609 C-70.17076259 167.72745227 -76.16542169 171.07813322 -82.8125 174.4375 C-83.84826172 174.97826172 -84.88402344 175.51902344 -85.95117188 176.07617188 C-93.58552268 180 -93.58552268 180 -97 180 C-96.99045288 178.29070312 -96.99045288 178.29070312 -96.98071289 176.546875 C-96.96620383 172.28967366 -96.99775944 168.03380964 -97.04272461 163.77685547 C-97.05580587 161.93998787 -97.05665236 160.10298843 -97.04467773 158.26611328 C-97.02956581 155.61361104 -97.05949824 152.96470836 -97.09765625 150.3125 C-97.08340103 149.50071289 -97.06914581 148.68892578 -97.05445862 147.85253906 C-97.22853108 140.88496382 -100.24883659 137.80168329 -105 133 C-106.07910144 131.7059923 -107.14252981 130.39873975 -108.18920898 129.07836914 C-124.93993229 107.60292532 -124.93993229 107.60292532 -149.0703125 97.6171875 C-158.73481049 96.94913611 -168.41957836 97.68571028 -178 99 C-179 96 -179 96 -177.59375 92.62890625 C-176.90782228 91.26733129 -176.20906172 89.91217207 -175.5 88.5625 C-174.94578369 87.49213501 -174.94578369 87.49213501 -174.38037109 86.40014648 C-173.62233195 84.94731943 -172.85849649 83.49750186 -172.08886719 82.05078125 C-171.12788076 80.24085165 -170.19095541 78.41819084 -169.2578125 76.59375 C-164.52190421 67.80172887 -158.22686248 59.92755147 -148.49633789 56.52124023 C-144.19704927 55.62354036 -139.91332852 55.89596201 -135.54077148 55.99121094 C-123.55167302 56.69982321 -123.55167302 56.69982321 -112.796875 52.44921875 C-109.99052036 49.63670499 -107.98440501 46.4367278 -106 43 C-90.15939121 22.0012739 -59.02366055 4.68142427 -33.07324219 0.35009766 C-22.28354901 -0.8790428 -10.81759438 -0.81818091 0 0 Z M-66.375 48.6875 C-68.95168343 53.93997007 -68.73650027 57.83141588 -66.875 63.3125 C-64.52771052 66.67694825 -62.87958723 67.68240434 -59 69 C-55.061365 69.55604259 -51.85224574 69.39771468 -48.1875 67.6875 C-44.98741673 65.21886433 -43.29776462 63.89329386 -42 60 C-41.61561182 55.31046415 -41.54104341 52.93556536 -43.625 48.6875 C-46.99927604 44.86924027 -49.94174582 43.25728177 -55 42.625 C-60.05825418 43.25728177 -63.00072396 44.86924027 -66.375 48.6875 Z " fill="#07FFD4" transform="translate(186,9)"/>
<path d="M0 0 C4.6692829 1.78931794 7.99482203 6.15664537 11.46459961 9.63720703 C12.31344727 10.45769531 13.16229492 11.27818359 14.03686523 12.12353516 C14.83415039 12.91824219 15.63143555 13.71294922 16.45288086 14.53173828 C17.18676025 15.25852783 17.92063965 15.98531738 18.67675781 16.73413086 C20.15209961 18.82470703 20.15209961 18.82470703 19.98608398 20.95874023 C16.12831953 29.5901494 6.48517278 34.5413764 -1.84790039 37.82470703 C-8.54343215 40.11359488 -14.71867437 42.10470684 -21.84790039 41.82470703 C-21.02655785 26.21919876 -14.57272044 12.28912937 -3.77758789 1.12548828 C-1.84790039 -0.17529297 -1.84790039 -0.17529297 0 0 Z " fill="#12FFD7" transform="translate(40.847900390625,135.17529296875)"/>
<path d="M0 0 C1.8359375 0.82421875 1.8359375 0.82421875 2.8359375 2.82421875 C1.815 2.85515625 1.815 2.85515625 0.7734375 2.88671875 C-3.10109166 4.12327061 -4.92127546 6.36154656 -7.61328125 9.328125 C-9.1640625 10.82421875 -9.1640625 10.82421875 -11.1640625 10.82421875 C-9.7736126 7.71979844 -8.14834652 5.45857445 -5.7890625 3.01171875 C-5.20382813 2.38652344 -4.61859375 1.76132813 -4.015625 1.1171875 C-2.1640625 -0.17578125 -2.1640625 -0.17578125 0 0 Z " fill="#5FFFE8" transform="translate(41.1640625,135.17578125)"/>
<path d="M0 0 C-1.5830577 4.2742558 -4.50568404 6.26531794 -8 9 C-8 6 -8 6 -6.7578125 4.39453125 C-5.94957031 3.61142578 -5.94957031 3.61142578 -5.125 2.8125 C-4.59132813 2.28269531 -4.05765625 1.75289063 -3.5078125 1.20703125 C-2 0 -2 0 0 0 Z " fill="#66FFE8" transform="translate(30,71)"/>
</svg>
