<?xml version="1.0" encoding="UTF-8"?>
<svg version="1.1" xmlns="http://www.w3.org/2000/svg" width="197" height="198">
<path d="M0 0 C10.00910034 2.86391208 16.9098695 1.88302455 26.75 -1.25 C32.97523188 -3.20164022 38.79053504 -3.95886586 44.8125 -1.125 C49.1576992 2.73739929 52.92661178 6.96023002 56.2734375 11.71875 C61.99555447 19.77806967 68.4663884 22.45203887 77.75 25.25 C83.43224652 27.06597569 87.93894394 29.59257854 91.625 34.375 C94.19538448 40.11807027 93.99951848 45.94759714 94.10351562 52.12304688 C94.43224398 62.08912859 97.52240084 68.83955138 103.39648438 76.75390625 C107.85291826 82.86941318 109.63433344 87.85546591 108.625 95.375 C106.84261353 100.76266821 103.45847625 105.05821241 100.015625 109.4921875 C96.23231529 114.6145338 94.54104974 119.57787101 94.44921875 125.859375 C94.42537109 126.71273437 94.40152344 127.56609375 94.37695312 128.4453125 C94.33436588 130.21590946 94.30291009 131.9868131 94.28320312 133.7578125 C94.06789795 140.42726576 93.00447338 146.04314008 88.10009766 150.87841797 C83.85522678 154.17103136 79.27424598 155.71288716 74.1875 157.25 C63.36553986 160.84960633 57.80145214 166.51470955 51.38696289 175.75610352 C48.4139018 179.89213247 45.40503874 182.65297152 40.625 184.375 C34.5716779 185.00391658 29.89145804 183.7871223 24.1875 181.875 C13.34820099 178.54000985 6.57356128 179.03447824 -4.17382812 182.59521484 C-9.8278678 184.42899272 -14.76009608 185.36866349 -20.5 183.1875 C-26.5497882 179.37350309 -30.63219397 173.65206242 -34.99609375 168.09375 C-40.23483196 162.10662061 -44.91542372 159.44095675 -52.3125 156.875 C-66.09169088 152.07124538 -66.09169088 152.07124538 -69.45483398 146.62695312 C-72.03553652 140.57049791 -71.83369209 134.26974534 -71.90234375 127.796875 C-72.13407079 118.90946131 -74.69967414 112.71699912 -79.9375 105.625 C-84.7401391 98.99906496 -87.45501152 94.71047351 -86.375 86.375 C-84.44554337 80.19585408 -80.12722782 75.19622514 -76.1796875 70.18359375 C-71.71826743 63.24038805 -72.02117272 55.71411643 -71.89648438 47.7578125 C-71.70090131 41.48007313 -70.77455812 36.86735051 -67.1484375 31.58984375 C-62.35790736 27.21413605 -56.68114703 25.46251654 -50.59326172 23.55444336 C-43.70570632 21.36266533 -38.80271796 18.42000189 -34.375 12.5625 C-33.35986328 11.25152344 -33.35986328 11.25152344 -32.32421875 9.9140625 C-31.68097656 9.07617188 -31.03773437 8.23828125 -30.375 7.375 C-21.12271791 -4.28244208 -13.75645154 -4.00696876 0 0 Z " fill="#04FFD4" transform="translate(87.375,8.625)"/>
<path d="M0 0 C1.875 1.0625 1.875 1.0625 3 3 C3.4182918 7.04737725 3.51581736 9.23366013 1.21138 12.65731812 C0.37374619 13.49147247 -0.46388763 14.32562683 -1.3269043 15.18505859 C-1.78704422 15.65264587 -2.24718414 16.12023315 -2.7212677 16.60198975 C-4.23896884 18.13514191 -5.78035273 19.64167222 -7.32421875 21.1484375 C-8.38965295 22.21096665 -9.4538291 23.27475865 -10.51679993 24.3397522 C-12.74486947 26.56460893 -14.98430028 28.77711509 -17.2331543 30.98095703 C-20.11254612 33.80364667 -22.96704741 36.6499949 -25.81407452 39.50528526 C-28.00847811 41.70248876 -30.21295418 43.88934575 -32.42087746 46.07295609 C-33.477123 47.11900337 -34.53083963 48.16761071 -35.58194542 49.21882248 C-37.05365683 50.68655914 -38.53775762 52.14048754 -40.02612305 53.59130859 C-40.86773483 54.42068939 -41.70934662 55.25007019 -42.57646179 56.10458374 C-45.18869134 58.14757293 -46.71700631 58.7762788 -50 59 C-54.12031195 57.62656268 -55.79201323 54.72411655 -58.3125 51.375 C-61.30549363 47.44647953 -64.2608978 43.62846162 -67.6875 40.0625 C-70 37 -70 37 -70.625 33.25 C-70 30 -70 30 -68.375 28 C-65.05100131 26.6004216 -63.4548472 26.95599884 -60 28 C-57.73316403 29.95019393 -55.95327451 32.20511887 -54.125 34.5625 C-53.62742187 35.17802734 -53.12984375 35.79355469 -52.6171875 36.42773438 C-51.39747088 37.94065211 -50.19678682 39.46887949 -49 41 C-45.68643269 39.56021352 -43.56502009 37.78161363 -41.06103516 35.19287109 C-40.2998941 34.41221283 -39.53875305 33.63155457 -38.75454712 32.82723999 C-37.94093719 31.98448517 -37.12732727 31.14173035 -36.2890625 30.2734375 C-34.55267454 28.50202446 -32.81567656 26.7312092 -31.078125 24.9609375 C-28.34382158 22.16462504 -25.61439936 19.36403906 -22.89550781 16.55273438 C-20.26927831 13.84197163 -17.62463177 11.15034599 -14.9765625 8.4609375 C-14.16700104 7.61413422 -13.35743958 6.76733093 -12.52334595 5.89486694 C-11.75590057 5.120513 -10.9884552 4.34615906 -10.19775391 3.54833984 C-9.53031158 2.86154144 -8.86286926 2.17474304 -8.17520142 1.46713257 C-5.30308539 -0.47005583 -3.39580343 -0.34278568 0 0 Z " fill="#F7FEFD" transform="translate(132,70)"/>
<path d="M0 0 C0.91007812 0.00902344 1.82015625 0.01804687 2.7578125 0.02734375 C3.80582031 0.04474609 3.80582031 0.04474609 4.875 0.0625 C4.875 0.3925 4.875 0.7225 4.875 1.0625 C3.59625 1.0625 2.3175 1.0625 1 1.0625 C-5.45480593 1.70900679 -9.50419765 5.82756841 -14.125 10.0625 C-14.125 7.0625 -14.125 7.0625 -12.6640625 5.4921875 C-12.03242187 4.97914062 -11.40078125 4.46609375 -10.75 3.9375 C-10.12351562 3.41929688 -9.49703125 2.90109375 -8.8515625 2.3671875 C-5.76649555 0.03593782 -3.81578308 -0.0489203 0 0 Z " fill="#73FFEC" transform="translate(73.125,5.9375)"/>
</svg>
