<?xml version="1.0" encoding="UTF-8"?>
<svg version="1.1" xmlns="http://www.w3.org/2000/svg" width="197" height="198">
<path d="M0 0 C2.29306574 4.05108281 3.42351736 7.34130899 3 12 C7.63680618 13.32824296 7.63680618 13.32824296 12.03515625 11.8828125 C13.03869141 11.16738281 13.03869141 11.16738281 14.0625 10.4375 C17.66768909 7.97878867 17.66768909 7.97878867 20.9375 8.1875 C26.80463532 11.65988621 32.19137101 16.30474365 36 22 C36.5 24.3125 36.5 24.3125 36 27 C35.18468826 28.19414345 34.32589991 29.35918564 33.4375 30.5 C31.27820858 33.28757375 31.27820858 33.28757375 30.9375 36.8125 C31.81930918 39.06259127 31.81930918 39.06259127 33.625 40.1875 C36.17220122 41.09811347 36.17220122 41.09811347 39.5625 41.875 C43.40626681 43.13296005 44.13712504 43.52300193 46 47 C46.34687988 49.91090032 46.5099286 52.53090332 46.5 55.4375 C46.52835937 56.18837891 46.55671875 56.93925781 46.5859375 57.71289062 C46.60052831 61.86032879 46.32879297 63.56007385 43.76953125 66.984375 C40.95220765 69.03478258 39.60599931 69.65943287 36.1875 69.8125 C35.00220703 69.88404297 35.00220703 69.88404297 33.79296875 69.95703125 C33.20128906 69.97121094 32.60960937 69.98539062 32 70 C31.04414199 73.17004783 31.04414199 73.17004783 31 77 C32.15465154 78.93414554 33.42939999 80.48720584 34.96875 82.12890625 C36 84 36 84 35.921875 86.890625 C34.83303517 90.56315256 33.35857292 92.40185507 30.75 95.1875 C29.98171875 96.02667969 29.2134375 96.86585937 28.421875 97.73046875 C22.75071953 103.04489024 22.75071953 103.04489024 18.5625 102.9375 C16 102 16 102 13.0625 99.875 C10.11580421 97.66127284 10.11580421 97.66127284 6.625 98.25 C5.75875 98.4975 4.8925 98.745 4 99 C3.84144531 99.75925781 3.68289062 100.51851563 3.51953125 101.30078125 C3.28621094 102.29464844 3.05289063 103.28851563 2.8125 104.3125 C2.48185547 105.79169922 2.48185547 105.79169922 2.14453125 107.30078125 C0.66385268 110.79275698 -0.50709458 111.57130134 -4 113 C-7.59375 113.3984375 -7.59375 113.3984375 -11.5 113.375 C-12.7890625 113.38273437 -14.078125 113.39046875 -15.40625 113.3984375 C-19.21960947 112.97565199 -21.093216 112.48320892 -24 110 C-25.14453125 107.30078125 -25.14453125 107.30078125 -25.8125 104.3125 C-26.16248047 102.82169922 -26.16248047 102.82169922 -26.51953125 101.30078125 C-26.67808594 100.54152344 -26.83664063 99.78226562 -27 99 C-29.6180731 98.03037834 -29.6180731 98.03037834 -33 98 C-35.15263656 99.16233982 -37.03416375 100.4782118 -38.97265625 101.96875 C-41 103 -41 103 -43.45703125 102.89453125 C-46.51394063 101.8192129 -48.25207362 100.38510708 -50.625 98.1875 C-51.38039063 97.50042969 -52.13578125 96.81335938 -52.9140625 96.10546875 C-56.04738257 92.94281048 -57.85564115 91.11362538 -58.4375 86.625 C-58 83 -58 83 -55.9375 80 C-53.61056956 77.05032197 -53.61056956 77.05032197 -54.25 73.125 C-54.4975 72.09375 -54.745 71.0625 -55 70 C-55.59167969 69.98582031 -56.18335937 69.97164063 -56.79296875 69.95703125 C-57.58316406 69.90933594 -58.37335938 69.86164063 -59.1875 69.8125 C-59.96480469 69.77769531 -60.74210937 69.74289063 -61.54296875 69.70703125 C-65.22801216 68.64662925 -66.70762643 67.05249745 -69 64 C-69.70571408 61.1397332 -69.70099697 58.43348291 -69.625 55.5 C-69.64433594 54.75363281 -69.66367188 54.00726563 -69.68359375 53.23828125 C-69.64730507 49.13765997 -69.32999481 47.43020265 -66.76171875 44.08203125 C-64.17186999 42.12957101 -62.27894823 41.06417935 -59.1875 40.1875 C-58.00220703 39.83751953 -58.00220703 39.83751953 -56.79296875 39.48046875 C-56.20128906 39.32191406 -55.60960938 39.16335937 -55 39 C-54.12245809 36.79561167 -54.12245809 36.79561167 -54 34 C-54.639375 33.05125 -55.27875 32.1025 -55.9375 31.125 C-58.53506045 27.18930235 -58.94233306 25.63313752 -58 21 C-54.20293258 15.35700308 -49.44565385 10.34387413 -43 8 C-39.10457378 9.16862786 -36.36943925 10.75370717 -33 13 C-29.36060068 12.68269476 -29.36060068 12.68269476 -26 12 C-25.96261719 11.39671875 -25.92523438 10.7934375 -25.88671875 10.171875 C-25.59761507 6.65728122 -25.33559512 3.70651605 -23.8125 0.5 C-18.50332502 -3.89379998 -5.77770306 -3.2411505 0 0 Z M-30.5 41.5 C-34.24928457 47.74880761 -34.78615686 53.8429096 -34 61 C-32.14311229 68.04121849 -26.80453524 72.90207988 -21 77 C-15.70566931 78.90595905 -9.0213626 78.9359103 -3.6796875 77.28125 C2.09393285 74.55908679 6.53878627 70.36488129 10 65 C11.84882815 59.11969935 12.07760123 51.88075304 9.75 46.125 C6.08652078 39.58307282 2.13428341 35.5509211 -5 33 C-15.53840387 31.23481735 -23.03470461 34.03470461 -30.5 41.5 Z " fill="#0CFFD5" transform="translate(132,6)"/>
<path d="M0 0 C12.99537607 4.43509956 12.99537607 4.43509956 18.36572266 7.00268555 C22.36116957 8.53619229 25.25372763 8.76898879 29.515625 8.75 C30.9238328 8.76250473 32.33203596 8.77554149 33.74023438 8.7890625 C35.92798313 8.79299509 38.11527295 8.78899715 40.30297852 8.77441406 C42.43704021 8.76580801 44.56922846 8.78756562 46.703125 8.8125 C47.96777588 8.80911621 49.23242676 8.80573242 50.53540039 8.80224609 C55.15436257 9.60792015 56.76259795 11.12009431 60.04296875 14.4140625 C61.05314378 17.22391828 60.94004219 19.37772891 61.04296875 22.4140625 C61.6680835 22.18041992 62.29319824 21.94677734 62.93725586 21.70605469 C70.76238759 18.81725504 78.65609702 16.18910867 86.60546875 13.6640625 C87.85521484 13.25285156 89.10496094 12.84164062 90.39257812 12.41796875 C104.11090717 8.07827664 104.11090717 8.07827664 111.04296875 9.4140625 C114.97039436 12.45982114 116.80708836 14.69550534 117.48046875 19.6015625 C116.87769989 24.8542626 114.97187463 27.02962908 111.04296875 30.4140625 C109.40311393 31.4021149 107.73014566 32.33640394 106.03515625 33.2265625 C105.05925537 33.74613525 104.08335449 34.26570801 103.07788086 34.80102539 C102.07635986 35.33332764 101.07483887 35.86562988 100.04296875 36.4140625 C96.17915546 38.54262428 92.3300621 40.69740522 88.48046875 42.8515625 C87.41417236 43.44775391 86.34787598 44.04394531 85.24926758 44.65820312 C79.4968116 47.88417742 73.76336067 51.13983572 68.05859375 54.44921875 C67.48468399 54.78191269 66.91077423 55.11460663 66.31947327 55.4573822 C63.56767126 57.0538235 60.81890455 58.65519475 58.07397461 60.26342773 C55.07808198 62.00725544 52.06510132 63.71617976 49.04296875 65.4140625 C47.50310303 66.30738281 47.50310303 66.30738281 45.93212891 67.21875 C44.91296387 67.77820313 43.89379883 68.33765625 42.84375 68.9140625 C41.94438721 69.419375 41.04502441 69.9246875 40.1184082 70.4453125 C32.42882106 72.86749888 24.81128823 69.56462539 17.56640625 66.88671875 C16.59692047 66.53774033 15.62743469 66.1887619 14.62857056 65.82920837 C11.55492436 64.72091996 8.48635001 63.59933523 5.41796875 62.4765625 C2.34154291 61.36003209 -0.73587638 60.24631305 -3.8140564 59.1346283 C-5.72188492 58.44463723 -7.62854938 57.75141613 -9.53384399 57.05445862 C-16.68614128 54.45283042 -23.37328216 52.49745523 -30.95703125 51.4140625 C-30.95703125 33.5940625 -30.95703125 15.7740625 -30.95703125 -2.5859375 C-22.50899493 -6.80995566 -8.45221091 -2.78077261 0 0 Z " fill="#08FFD4" transform="translate(72.95703125,114.5859375)"/>
<path d="M0 0 C1.56911133 -0.01836914 1.56911133 -0.01836914 3.16992188 -0.03710938 C4.18248047 -0.03904297 5.19503906 -0.04097656 6.23828125 -0.04296875 C7.16294189 -0.04707764 8.08760254 -0.05118652 9.0402832 -0.05541992 C12.04026565 0.21987128 14.04568771 0.72629996 16.6875 2.1875 C19.72493793 6.20004214 20.06608074 9.2240259 20.07568359 14.19335938 C20.08094055 14.87856155 20.08619751 15.56376373 20.09161377 16.26972961 C20.10476553 18.52380495 20.09609339 20.77716808 20.0859375 23.03125 C20.08795964 24.60396459 20.09087224 26.17667826 20.09463501 27.74938965 C20.09905181 31.04118806 20.09264825 34.33274181 20.07861328 37.62451172 C20.06152157 41.83792344 20.07136624 46.05076182 20.08933067 50.26415253 C20.10018605 53.51044004 20.09671417 56.75659226 20.0889473 60.00288391 C20.08695013 61.55617847 20.08938756 63.10948543 20.09638596 64.6627655 C20.1040296 66.83605349 20.09235681 69.00842096 20.07568359 71.18164062 C20.07329681 72.41676392 20.07091003 73.65188721 20.06845093 74.92443848 C19.65361289 78.47776235 18.84166396 80.35847022 16.6875 83.1875 C11.3775526 85.93803613 5.46684571 85.51928002 -0.375 85.5 C-1.35533203 85.51611328 -2.33566406 85.53222656 -3.34570312 85.54882812 C-12.53444036 85.55506624 -12.53444036 85.55506624 -16.3125 82.1875 C-18.66574432 78.61842527 -18.58324745 75.40865659 -18.61889648 71.20336914 C-18.62722 70.50855942 -18.63554352 69.81374969 -18.64411926 69.09788513 C-18.66817161 66.80608483 -18.67698462 64.51456928 -18.68359375 62.22265625 C-18.69256252 60.62609269 -18.70168442 59.02952999 -18.71095276 57.43296814 C-18.72743148 54.08818521 -18.73514103 50.74350226 -18.73803711 47.39868164 C-18.7434251 43.1166556 -18.7811259 38.83557106 -18.82678127 34.55381107 C-18.85654761 31.25691813 -18.86376053 27.96025226 -18.86476326 24.66323662 C-18.86896514 23.08477902 -18.88139835 21.50632073 -18.90228081 19.92799568 C-18.92919396 17.71830357 -18.92437311 15.51079869 -18.91186523 13.30102539 C-18.91693588 12.045121 -18.92200653 10.78921661 -18.92723083 9.49525452 C-18.14826307 5.30377105 -16.56356067 3.84849749 -13.3125 1.1875 C-9.35245823 -0.79252088 -4.35382756 0.00265316 0 0 Z M-5.1875 63.3125 C-6.87820175 66.13033625 -6.84794229 67.97484627 -6.3125 71.1875 C-4.27743065 73.37542354 -4.27743065 73.37542354 -1.3125 74.1875 C1.95564404 73.48809064 1.95564404 73.48809064 4.6875 72.1875 C5.83899016 67.59670297 5.83899016 67.59670297 4.625 63.25 C1.27990814 61.41559478 -1.89534003 61.33720402 -5.1875 63.3125 Z " fill="#0BFFD5" transform="translate(20.3125,95.8125)"/>
<path d="M0 0 C1.59424805 -0.01836914 1.59424805 -0.01836914 3.22070312 -0.03710938 C4.23970703 -0.03904297 5.25871094 -0.04097656 6.30859375 -0.04296875 C7.24372803 -0.04707764 8.1788623 -0.05118652 9.14233398 -0.05541992 C11.5625 0.1875 11.5625 0.1875 14.5625 2.1875 C13.76553711 2.1968457 12.96857422 2.20619141 12.14746094 2.21582031 C8.53517825 2.26951498 4.92419179 2.35316608 1.3125 2.4375 C-0.56888672 2.45876953 -0.56888672 2.45876953 -2.48828125 2.48046875 C-3.69355469 2.51269531 -4.89882812 2.54492188 -6.140625 2.578125 C-7.25083008 2.59907227 -8.36103516 2.62001953 -9.50488281 2.64160156 C-13.18431319 3.32651717 -14.16653568 4.24072833 -16.4375 7.1875 C-17.05467441 10.45181407 -17.05467441 10.45181407 -16.98339844 14.15917969 C-16.99373611 14.8522673 -17.00407379 15.54535492 -17.01472473 16.25944519 C-17.04414696 18.54299243 -17.04565168 20.82565313 -17.046875 23.109375 C-17.06185717 24.6955128 -17.0785844 26.28163499 -17.09698486 27.86773682 C-17.14066707 32.03685219 -17.16065921 36.20575712 -17.17572021 40.37506104 C-17.1952883 44.63167773 -17.23725859 48.88806706 -17.27734375 53.14453125 C-17.3526552 61.49212802 -17.40294078 69.83963552 -17.4375 78.1875 C-17.7675 78.1875 -18.0975 78.1875 -18.4375 78.1875 C-18.55341576 68.88632466 -18.64222589 59.58539842 -18.69656086 50.28365803 C-18.72264082 45.9643176 -18.7580087 41.64547178 -18.81469727 37.32641602 C-18.86907557 33.1572249 -18.89893259 28.98850912 -18.91188622 24.81899071 C-18.92111579 23.2293366 -18.93913957 21.63970814 -18.96615028 20.05025673 C-19.00252095 17.82110275 -19.00744245 15.59390552 -19.00512695 13.36450195 C-19.01623001 12.09653275 -19.02733307 10.82856354 -19.03877258 9.52217102 C-18.27803392 5.30309761 -16.70966108 3.85870345 -13.4375 1.1875 C-9.4488168 -0.8068416 -4.38515918 0.00264964 0 0 Z " fill="#D6FFF7" transform="translate(20.4375,95.8125)"/>
<path d="M0 0 C1.04929687 -0.00322266 2.09859375 -0.00644531 3.1796875 -0.00976562 C10.97404185 0.04519457 10.97404185 0.04519457 14.375 2.3125 C13.58327393 2.3218457 12.79154785 2.33119141 11.97583008 2.34082031 C8.37909292 2.39459344 4.78364648 2.47822963 1.1875 2.5625 C-0.68131836 2.58376953 -0.68131836 2.58376953 -2.58789062 2.60546875 C-4.3909668 2.65380859 -4.3909668 2.65380859 -6.23046875 2.703125 C-7.88792114 2.7345459 -7.88792114 2.7345459 -9.57885742 2.76660156 C-13.22853865 3.42066001 -14.94687557 4.81088336 -17.625 7.3125 C-17.34402294 4.59638842 -16.8649398 3.52520894 -14.80078125 1.6953125 C-9.93868953 -0.42176065 -5.24123882 -0.08108352 0 0 Z " fill="#84FFEC" transform="translate(20.625,95.6875)"/>
<path d="M0 0 C0.66 0.33 1.32 0.66 2 1 C-1.63 4.63 -5.26 8.26 -9 12 C-9.66 11.67 -10.32 11.34 -11 11 C-9.92173635 9.72486237 -8.83714481 8.45507431 -7.75 7.1875 C-7.14671875 6.47980469 -6.5434375 5.77210937 -5.921875 5.04296875 C-4.07629602 3.08110329 -2.20054668 1.54330375 0 0 Z " fill="#5DFFE7" transform="translate(86,15)"/>
<path d="M0 0 C-0.8353125 0.37125 -0.8353125 0.37125 -1.6875 0.75 C-4.39971127 2.21606015 -6.63587365 4.02989471 -9 6 C-8.6875 4.125 -8.6875 4.125 -8 2 C-4.77208445 -0.1519437 -3.71599191 -0.20086443 0 0 Z " fill="#31FFDF" transform="translate(12,97)"/>
</svg>
