<svg xmlns="http://www.w3.org/2000/svg" xmlns:xlink="http://www.w3.org/1999/xlink" width="1048" zoomAndPan="magnify" viewBox="0 0 786 785.999994" height="1048" preserveAspectRatio="xMidYMid meet" version="1.0"><defs><clipPath id="72b477ca7a"><path d="M 78.601562 89.210938 L 707.101562 89.210938 L 707.101562 696.710938 L 78.601562 696.710938 Z M 78.601562 89.210938 " clip-rule="nonzero"/></clipPath></defs><g clip-path="url(#72b477ca7a)"><path fill="#33ffce" d="M 251.496094 395.53125 C 226.679688 395.53125 206.5625 375.402344 206.5625 350.578125 C 206.5625 325.757812 226.679688 305.632812 251.496094 305.632812 C 276.308594 305.632812 296.429688 325.757812 296.429688 350.578125 C 296.429688 375.402344 276.308594 395.53125 251.496094 395.53125 Z M 418.1875 327.394531 L 409.175781 326.054688 C 396.355469 324.144531 385.597656 315.386719 381.152344 303.210938 C 379.820312 299.5625 378.339844 295.988281 376.714844 292.488281 C 371.234375 280.691406 372.585938 266.847656 380.328125 256.394531 L 385.757812 249.066406 C 387.90625 246.171875 387.605469 242.136719 385.058594 239.589844 L 362.449219 216.972656 C 359.898438 214.425781 355.871094 214.125 352.976562 216.273438 L 345.648438 221.707031 C 335.199219 229.453125 321.363281 230.800781 309.570312 225.316406 C 306.074219 223.691406 302.496094 222.210938 298.851562 220.878906 C 286.679688 216.433594 277.921875 205.671875 276.015625 192.847656 L 274.675781 183.828125 C 274.148438 180.265625 271.085938 177.621094 267.480469 177.621094 L 235.507812 177.621094 C 231.90625 177.621094 228.84375 180.265625 228.316406 183.828125 L 226.972656 192.847656 C 225.070312 205.671875 216.3125 216.433594 204.140625 220.878906 C 200.492188 222.210938 196.917969 223.691406 193.421875 225.316406 C 181.628906 230.800781 167.792969 229.453125 157.34375 221.707031 L 150.015625 216.273438 C 147.121094 214.125 143.089844 214.425781 140.542969 216.972656 L 117.933594 239.589844 C 115.386719 242.136719 115.085938 246.171875 117.230469 249.066406 L 122.664062 256.394531 C 130.40625 266.847656 131.753906 280.691406 126.277344 292.488281 C 124.652344 295.988281 123.171875 299.5625 121.839844 303.210938 C 117.394531 315.386719 106.636719 324.144531 93.816406 326.054688 L 84.800781 327.394531 C 81.234375 327.921875 78.597656 330.980469 78.597656 334.589844 L 78.597656 366.570312 C 78.597656 370.179688 81.234375 373.242188 84.800781 373.773438 L 93.816406 375.113281 C 106.636719 377.015625 117.394531 385.777344 121.839844 397.953125 C 123.171875 401.601562 124.652344 405.179688 126.277344 408.675781 C 131.753906 420.476562 130.40625 434.320312 122.664062 444.769531 L 117.230469 452.09375 C 115.085938 454.992188 115.386719 459.023438 117.933594 461.574219 L 140.542969 484.191406 C 143.089844 486.738281 147.121094 487.035156 150.015625 484.894531 L 157.34375 479.460938 C 167.792969 471.710938 181.628906 470.359375 193.421875 475.847656 C 196.917969 477.46875 200.492188 478.949219 204.140625 480.28125 C 216.3125 484.734375 225.070312 495.496094 226.972656 508.320312 L 228.316406 517.335938 C 228.84375 520.902344 231.90625 523.542969 235.507812 523.542969 L 267.480469 523.542969 C 271.085938 523.542969 274.148438 520.902344 274.675781 517.335938 L 276.015625 508.320312 C 277.921875 495.496094 286.679688 484.734375 298.851562 480.28125 C 302.496094 478.949219 306.074219 477.46875 309.570312 475.847656 C 321.363281 470.359375 335.199219 471.710938 345.648438 479.460938 L 352.976562 484.894531 C 355.871094 487.035156 359.898438 486.738281 362.449219 484.191406 L 385.058594 461.574219 C 387.605469 459.023438 387.90625 454.992188 385.757812 452.09375 L 380.328125 444.769531 C 372.585938 434.320312 371.234375 420.476562 376.714844 408.675781 C 378.339844 405.179688 379.820312 401.601562 381.152344 397.953125 C 385.597656 385.777344 396.355469 377.015625 409.175781 375.113281 L 418.1875 373.773438 C 421.75 373.242188 424.394531 370.179688 424.394531 366.570312 L 424.394531 334.589844 C 424.394531 330.980469 421.75 327.921875 418.1875 327.394531 Z M 534.203125 568.488281 C 509.386719 568.488281 489.273438 548.367188 489.273438 523.542969 C 489.273438 498.71875 509.386719 478.589844 534.203125 478.589844 C 559.019531 478.589844 579.140625 498.71875 579.140625 523.542969 C 579.140625 548.367188 559.019531 568.488281 534.203125 568.488281 Z M 700.902344 500.351562 L 691.886719 499.011719 C 679.066406 497.109375 668.308594 488.34375 663.859375 476.171875 C 662.527344 472.519531 661.042969 468.945312 659.421875 465.449219 C 653.941406 453.648438 655.292969 439.804688 663.039062 429.355469 L 668.464844 422.027344 C 670.613281 419.132812 670.316406 415.101562 667.769531 412.546875 L 645.160156 389.929688 C 642.609375 387.382812 638.582031 387.085938 635.683594 389.230469 L 628.359375 394.664062 C 617.910156 402.410156 604.074219 403.765625 592.273438 398.28125 C 588.78125 396.65625 585.207031 395.175781 581.5625 393.839844 C 569.386719 389.390625 560.632812 378.628906 558.726562 365.804688 L 557.386719 356.789062 C 556.859375 353.222656 553.792969 350.578125 550.191406 350.578125 L 518.214844 350.578125 C 514.613281 350.578125 511.554688 353.222656 511.023438 356.789062 L 509.683594 365.804688 C 507.777344 378.628906 499.015625 389.390625 486.851562 393.839844 C 483.203125 395.175781 479.628906 396.65625 476.128906 398.28125 C 464.339844 403.765625 450.5 402.410156 440.054688 394.664062 L 432.722656 389.230469 C 429.832031 387.085938 425.796875 387.382812 423.253906 389.929688 L 400.644531 412.546875 C 398.089844 415.101562 397.792969 419.132812 399.941406 422.027344 L 405.375 429.355469 C 413.113281 439.804688 414.464844 453.648438 408.984375 465.449219 C 407.359375 468.945312 405.878906 472.519531 404.546875 476.171875 C 400.101562 488.34375 389.34375 497.109375 376.527344 499.011719 L 367.507812 500.351562 C 363.945312 500.882812 361.304688 503.945312 361.304688 507.550781 L 361.304688 539.535156 C 361.304688 543.136719 363.945312 546.199219 367.507812 546.730469 L 376.527344 548.070312 C 389.34375 549.972656 400.101562 558.734375 404.546875 570.910156 C 405.878906 574.558594 407.359375 578.136719 408.984375 581.636719 C 414.464844 593.433594 413.113281 607.277344 405.375 617.726562 L 399.941406 625.058594 C 397.792969 627.949219 398.089844 631.988281 400.644531 634.535156 L 423.253906 657.152344 C 425.796875 659.695312 429.832031 660 432.722656 657.851562 L 440.054688 652.417969 C 450.5 644.667969 464.339844 643.324219 476.128906 648.804688 C 479.628906 650.429688 483.203125 651.914062 486.851562 653.246094 C 499.023438 657.691406 507.777344 668.453125 509.683594 681.277344 L 511.023438 690.292969 C 511.554688 693.859375 514.613281 696.5 518.214844 696.5 L 550.191406 696.5 C 553.792969 696.5 556.859375 693.859375 557.386719 690.292969 L 558.726562 681.277344 C 560.632812 668.453125 569.386719 657.691406 581.5625 653.246094 C 585.207031 651.914062 588.78125 650.429688 592.273438 648.804688 C 604.074219 643.324219 617.910156 644.667969 628.359375 652.417969 L 635.683594 657.851562 C 638.582031 660 642.609375 659.695312 645.160156 657.152344 L 667.769531 634.535156 C 670.316406 631.988281 670.613281 627.949219 668.464844 625.058594 L 663.039062 617.726562 C 655.292969 607.277344 653.941406 593.433594 659.421875 581.636719 C 661.042969 578.136719 662.527344 574.558594 663.859375 570.910156 C 668.308594 558.734375 679.066406 549.972656 691.886719 548.070312 L 700.902344 546.730469 C 704.464844 546.199219 707.105469 543.136719 707.105469 539.535156 L 707.105469 507.550781 C 707.105469 503.945312 704.464844 500.882812 700.902344 500.351562 Z M 509.011719 248.367188 C 490.289062 248.367188 475.113281 233.183594 475.113281 214.464844 C 475.113281 195.730469 490.289062 180.550781 509.011719 180.550781 C 527.734375 180.550781 542.90625 195.730469 542.90625 214.464844 C 542.90625 233.183594 527.734375 248.367188 509.011719 248.367188 Z M 629.464844 197.703125 L 622.953125 196.730469 C 613.6875 195.359375 605.917969 189.023438 602.699219 180.230469 C 601.742188 177.589844 600.667969 175.007812 599.492188 172.480469 C 595.535156 163.957031 596.511719 153.953125 602.101562 146.402344 L 606.03125 141.105469 C 607.578125 139.015625 607.363281 136.097656 605.523438 134.257812 L 589.1875 117.914062 C 587.34375 116.074219 584.433594 115.859375 582.339844 117.410156 L 577.046875 121.332031 C 569.496094 126.933594 559.5 127.910156 550.976562 123.945312 C 548.453125 122.773438 545.863281 121.703125 543.234375 120.738281 C 534.433594 117.523438 528.113281 109.746094 526.730469 100.480469 L 525.761719 93.96875 C 525.382812 91.390625 523.167969 89.480469 520.566406 89.480469 L 497.457031 89.480469 C 494.859375 89.480469 492.644531 91.390625 492.257812 93.96875 L 491.292969 100.480469 C 489.914062 109.746094 483.589844 117.523438 474.792969 120.738281 C 472.15625 121.703125 469.574219 122.773438 467.050781 123.945312 C 458.527344 127.910156 448.523438 126.933594 440.976562 121.332031 L 435.6875 117.410156 C 433.59375 115.859375 430.675781 116.074219 428.835938 117.914062 L 412.5 134.257812 C 410.664062 136.097656 410.441406 139.015625 411.996094 141.105469 L 415.921875 146.402344 C 421.515625 153.953125 422.492188 163.957031 418.527344 172.480469 C 417.355469 175.007812 416.285156 177.589844 415.320312 180.230469 C 412.109375 189.023438 404.335938 195.359375 395.074219 196.730469 L 388.558594 197.703125 C 385.984375 198.085938 384.078125 200.296875 384.078125 202.90625 L 384.078125 226.015625 C 384.078125 228.621094 385.984375 230.835938 388.558594 231.214844 L 395.074219 232.183594 C 404.335938 233.5625 412.109375 239.894531 415.320312 248.6875 C 416.285156 251.324219 417.355469 253.910156 418.527344 256.4375 C 422.492188 264.960938 421.515625 274.964844 415.921875 282.519531 L 411.996094 287.816406 C 410.441406 289.910156 410.664062 292.820312 412.5 294.664062 L 428.835938 311 C 430.675781 312.847656 433.59375 313.0625 435.6875 311.507812 L 440.976562 307.585938 C 448.523438 301.984375 458.527344 301.015625 467.050781 304.972656 C 469.574219 306.144531 472.15625 307.214844 474.792969 308.179688 C 483.589844 311.394531 489.914062 319.171875 491.292969 328.441406 L 492.257812 334.957031 C 492.644531 337.535156 494.859375 339.4375 497.457031 339.4375 L 520.566406 339.4375 C 523.167969 339.4375 525.382812 337.535156 525.761719 334.957031 L 526.730469 328.441406 C 528.113281 319.171875 534.433594 311.394531 543.234375 308.179688 C 545.863281 307.214844 548.453125 306.144531 550.976562 304.972656 C 559.5 301.015625 569.496094 301.984375 577.046875 307.585938 L 582.339844 311.507812 C 584.433594 313.0625 587.34375 312.847656 589.1875 311 L 605.523438 294.664062 C 607.363281 292.820312 607.578125 289.910156 606.03125 287.816406 L 602.101562 282.519531 C 596.511719 274.964844 595.535156 264.960938 599.492188 256.4375 C 600.667969 253.910156 601.742188 251.324219 602.699219 248.6875 C 605.917969 239.894531 613.6875 233.5625 622.953125 232.183594 L 629.464844 231.214844 C 632.042969 230.835938 633.945312 228.621094 633.945312 226.015625 L 633.945312 202.90625 C 633.945312 200.296875 632.042969 198.085938 629.464844 197.703125 " fill-opacity="1" fill-rule="nonzero"/></g></svg>