<?xml version="1.0" encoding="UTF-8"?>
<svg version="1.1" xmlns="http://www.w3.org/2000/svg" width="197" height="198">
<path d="M0 0 C1.21134314 -0.0025775 1.21134314 -0.0025775 2.44715786 -0.00520706 C5.13178439 -0.00953523 7.81634918 -0.00658411 10.50097656 -0.00341797 C12.40277632 -0.00460283 14.30457589 -0.00612543 16.20637512 -0.00796509 C22.35146506 -0.01172388 28.49651836 -0.00412906 34.64160156 0.00439453 C36.74014279 0.00666343 38.83868405 0.00890137 40.93722534 0.0111084 C54.33577053 0.02692418 67.73417923 0.06379178 81.13262177 0.11824036 C83.73931208 0.12877885 86.34600434 0.13858005 88.95269775 0.14831543 C97.26628745 0.18118304 105.57888835 0.23766315 113.89196777 0.33892822 C116.24468678 0.36565542 118.5974868 0.38608134 120.95031738 0.39984131 C124.1617934 0.42082641 127.37192883 0.46665159 130.58300781 0.52001953 C131.9299749 0.52187759 131.9299749 0.52187759 133.30415344 0.52377319 C142.54304456 0.73878827 150.86818182 3.30574059 157.45410156 9.95751953 C161.58577716 16.19994245 162.33706962 22.2334712 162.31152344 29.5078125 C162.31999298 30.40975342 162.32846252 31.31169434 162.33718872 32.2409668 C162.36045049 35.20131816 162.36158344 38.16114646 162.36035156 41.12158203 C162.36745971 43.19369715 162.37515966 45.26581031 162.38342285 47.33792114 C162.39684288 51.67357865 162.39844757 56.00905414 162.39257812 60.34472656 C162.38668479 65.88161474 162.41727061 71.41762525 162.45769501 76.9543438 C162.48363227 81.23195036 162.48644393 85.50934728 162.48280334 89.78702164 C162.48448897 91.82743663 162.49407743 93.86786188 162.51194763 95.90819931 C162.67994763 117.45997248 162.67994763 117.45997248 155.51965332 125.71017456 C147.88567023 132.89990395 140.12841619 132.12939453 129.89160156 132.12939453 C129.56160156 147.63939453 129.23160156 163.14939453 128.89160156 179.12939453 C125.08401734 177.22560242 124.15466701 176.54886381 121.82519531 173.30517578 C121.26268066 172.53109375 120.70016602 171.75701172 120.12060547 170.95947266 C119.52940918 170.12867188 118.93821289 169.29787109 118.32910156 168.44189453 C117.71212402 167.58917969 117.09514648 166.73646484 116.45947266 165.85791016 C115.1988785 164.11552504 113.94138358 162.37089342 112.68701172 160.62402344 C110.15572606 157.10693385 107.58645308 153.61833935 105.01660156 150.12939453 C104.20615836 149.02562956 103.39625755 147.92146612 102.58691406 146.81689453 C101.96826225 146.02826019 101.96826225 146.02826019 101.33711243 145.22369385 C99.89160156 143.12939453 99.89160156 143.12939453 98.66253662 140.40354919 C96.75939006 136.79195671 95.12364107 134.66112497 91.89160156 132.12939453 C84.77376469 130.0352279 76.91645257 130.8107553 69.58691406 130.97705078 C67.38029306 130.98529494 65.17364561 130.98809277 62.9670105 130.98570251 C57.16660405 130.99136015 51.3687019 131.059171 45.56896973 131.14367676 C36.29543335 131.26955033 27.02133007 131.3059516 17.7470665 131.33276176 C14.51940252 131.35171323 11.29321544 131.40016134 8.06594849 131.45289612 C6.07050159 131.46957418 4.07504872 131.48555577 2.07958984 131.50073242 C1.19303711 131.52304428 0.30648437 131.54535614 -0.60693359 131.56834412 C-7.95338302 131.58562121 -14.71008156 129.81972872 -20.54589844 125.19970703 C-21.06152344 124.55775391 -21.57714844 123.91580078 -22.10839844 123.25439453 C-22.91277344 122.29919922 -22.91277344 122.29919922 -23.73339844 121.32470703 C-26.59424449 116.75710623 -27.36662318 112.20837739 -27.52246094 106.89111328 C-27.56153564 105.62340088 -27.60061035 104.35568848 -27.64086914 103.04956055 C-27.67282348 101.63869661 -27.70362546 100.22780619 -27.73339844 98.81689453 C-27.75075043 98.09106171 -27.76810242 97.36522888 -27.78598022 96.61740112 C-27.93082063 90.45521261 -28.02305726 84.2926545 -28.10839844 78.12939453 C-28.12513611 77.00110229 -28.14187378 75.87281006 -28.15911865 74.71032715 C-28.26858425 67.14889864 -28.34667779 59.58786646 -28.39349365 52.02578735 C-28.41165862 49.48453273 -28.43636227 46.94331582 -28.46783447 44.40219116 C-28.51006181 40.78112246 -28.52528982 37.16083655 -28.53417969 33.53955078 C-28.55163742 32.4656308 -28.56909515 31.39171082 -28.58708191 30.2852478 C-28.56446752 22.19610809 -27.6867078 13.12270354 -22.0785675 6.864151 C-15.34929612 0.93895034 -8.717624 -0.02348299 0 0 Z M13.51660156 55.75439453 C11.43892598 60.0695669 11.05663118 63.42319785 11.89160156 68.12939453 C14.08365534 72.51350209 16.32275539 75.2603211 20.89160156 77.12939453 C26.47959473 77.66158436 30.12470679 77.37955006 34.89160156 74.12939453 C38.55714699 70.07800222 39.59684217 66.70983881 39.34472656 61.37939453 C38.56709607 57.5180569 36.69207535 54.84500547 33.89160156 52.12939453 C26.72831382 47.79372037 18.92017836 49.78202018 13.51660156 55.75439453 Z M57.89160156 53.12939453 C57.33472656 53.52126953 56.77785156 53.91314453 56.20410156 54.31689453 C54.02721947 57.32306504 53.15799306 60.48437913 52.89160156 64.12939453 C53.66051885 68.60530256 55.16505789 71.43829202 58.45410156 74.56689453 C62.62537812 77.24078976 65.98149814 77.64973304 70.89160156 77.12939453 C75.59471087 75.09850642 78.60949276 71.69361215 80.89160156 67.12939453 C81.44228719 61.40226406 80.45717132 58.61182508 76.89160156 54.12939453 C74.79127198 51.69301222 74.04479526 51.1804591 70.89160156 50.12939453 C65.48884548 49.78082962 62.32114909 49.71231501 57.89160156 53.12939453 Z M97.07910156 55.44189453 C94.56316627 61.13585336 94.60207782 65.29426973 96.75488281 71.07080078 C98.68010739 74.55737588 101.13469055 75.99932767 104.89160156 77.12939453 C109.20505651 77.92047218 112.26992288 77.45782855 116.20410156 75.37939453 C119.3034405 72.78459914 121.57940283 70.83383086 122.32519531 66.76220703 C122.33408621 61.05425323 121.87810546 57.54687182 117.89160156 53.12939453 C114.40028553 50.2199645 111.43084218 49.64691333 106.88378906 49.84423828 C102.56031488 50.46308851 99.75419394 52.02884563 97.07910156 55.44189453 Z " fill="#06FFD4" transform="translate(32.1083984375,10.87060546875)"/>
<path d="M0 0 C0.66 0.33 1.32 0.66 2 1 C0.88200014 2.33920838 -0.24461897 3.67122556 -1.375 5 C-2.00148438 5.7425 -2.62796875 6.485 -3.2734375 7.25 C-4.12808594 8.11625 -4.12808594 8.11625 -5 9 C-5.66 9 -6.32 9 -7 9 C-7.33 9.66 -7.66 10.32 -8 11 C-7.51862212 6.6675991 -6.29881816 4.81369784 -3 2 C-2.01 1.34 -1.02 0.68 0 0 Z " fill="#83FFED" transform="translate(15,14)"/>
</svg>
