<?xml version="1.0" encoding="UTF-8"?>
<svg version="1.1" xmlns="http://www.w3.org/2000/svg" width="160" height="153">
<path d="M0 0 C14.53702893 12.52903645 24.96929739 28.37171439 27.3125 47.75 C28.85468943 71.16014365 24.53314876 90.89773611 8.8828125 109.12109375 C-5.30935839 123.63679437 -23.28641387 132.67850513 -43.69189453 133.16918945 C-57.36645011 133.24785119 -69.58549193 131.70969572 -81.5534668 124.64916992 C-88.3622236 121.7803161 -99.59401558 128.02636861 -106.13476562 130.359375 C-114.91881737 133.39583733 -114.91881737 133.39583733 -119.6875 132.75 C-120.3475 132.09 -121.0075 131.43 -121.6875 130.75 C-120.38653068 122.81802946 -117.64404995 115.31229135 -114.99023438 107.74609375 C-112.38657717 99.94053514 -112.49046647 94.78374345 -116.0625 87.25 C-123.92171054 68.95740272 -123.69710769 49.04954889 -116.4375 30.625 C-108.27691726 12.26981541 -96.18359158 -1.66405449 -77.6875 -10.25 C-51.41980753 -20.02721128 -22.5453173 -17.80389263 0 0 Z M-98.76953125 16.99609375 C-110.85939462 31.35116028 -114.09927476 49.54398805 -112.6875 67.75 C-111.58793405 76.15251647 -108.8248441 83.20157401 -104.89453125 90.6796875 C-101.9585034 98.14803018 -104.648101 104.51541364 -107.1875 111.6875 C-107.52136719 112.65751953 -107.85523438 113.62753906 -108.19921875 114.62695312 C-109.01915943 117.00478109 -109.84875277 119.37875451 -110.6875 121.75 C-104.24332523 120.44856755 -98.25521762 118.68290795 -92.10742188 116.34179688 C-86.63063552 114.39029829 -83.09445692 114.64113984 -77.85546875 117.0546875 C-76.87191406 117.57289063 -75.88835937 118.09109375 -74.875 118.625 C-58.31469539 126.49824196 -39.8981211 126.47326631 -22.6875 120.75 C-4.42819295 113.08902987 7.774845 99.77409517 15.49804688 81.88037109 C21.80136862 65.39272553 20.21767045 47.60184477 14.02734375 31.3828125 C6.57902462 15.40730908 -6.57589504 3.00416615 -22.9140625 -3.54296875 C-51.51335601 -13.37175821 -78.70096377 -4.65386179 -98.76953125 16.99609375 Z " fill="#2BFFD8" transform="translate(128.6875,17.25)"/>
<path d="M0 0 C1.875 1.125 1.875 1.125 3 3 C3.38673867 6.54510445 3.34672087 9.09852573 2.0625 12.4375 C-0.86521548 14.65546628 -3.3011658 14.55847972 -6.90234375 14.3828125 C-9 14 -9 14 -11.0625 12.375 C-12.26348796 9.33249717 -12.40594728 7.24757827 -12 4 C-9.00369823 -1.27919836 -5.60614617 -1.40153654 0 0 Z " fill="#30FFD9" transform="translate(51,69)"/>
<path d="M0 0 C2.32039251 1.60027069 2.89969741 2.72775011 3.875 5.375 C4.03673305 8.77139406 2.96039694 10.28560423 1 13 C0 14 0 14 -3.875 14.25 C-6.4374102 14.20416082 -7.70002503 14.17417902 -9.9375 12.875 C-11.44051393 10.22262247 -11.81416141 8.03536365 -12 5 C-11.19470612 2.36449276 -10.44657038 1.33492778 -8.25 -0.3125 C-5.15305467 -1.25878885 -3.09970844 -0.85736616 0 0 Z " fill="#2BFFD8" transform="translate(121,69)"/>
<path d="M0 0 C1.875 1.0625 1.875 1.0625 3 3 C3.53468062 6.55711138 3.62733051 9.74533898 2 13 C-1.27455496 14.63727748 -4.48518265 14.75671118 -8 14 C-10.76386182 11.5816209 -11.79835577 10.03342666 -12.5 6.4375 C-11.84193691 3.22944243 -10.49391519 2.05381251 -8 0 C-5.06317146 -1.46841427 -3.13175678 -0.76696084 0 0 Z " fill="#2BFFD8" transform="translate(86,69)"/>
<path d="M0 0 C0 3 0 3 -2.5 5.6875 C-3.325 6.450625 -4.15 7.21375 -5 8 C-5.66 7.67 -6.32 7.34 -7 7 C-4.66666667 4.66666667 -2.33333333 2.33333333 0 0 Z " fill="#64FFE3" transform="translate(33,19)"/>
</svg>
