<?xml version="1.0" encoding="UTF-8"?>
<svg version="1.1" xmlns="http://www.w3.org/2000/svg" width="168" height="134">
<path d="M0 0 C0.89250458 0.00202423 1.78500916 0.00404846 2.70455933 0.00613403 C4.10688309 0.00350555 4.10688309 0.00350555 5.53753662 0.00082397 C8.6440107 -0.00359617 11.75042837 -0.00065598 14.85690308 0.00271606 C17.00542207 0.00204307 19.15394099 0.00107309 21.30245972 -0.00018311 C25.81182579 -0.0016603 30.3211721 0.00049517 34.83053589 0.00515747 C40.62488885 0.01085477 46.41919549 0.00757588 52.21354675 0.00158501 C56.65203198 -0.00202002 61.09050614 -0.00088229 65.5289917 0.0017128 C67.66613775 0.00238223 69.80328479 0.00155309 71.94042969 -0.00076675 C74.92172934 -0.00329233 77.90295288 0.00054597 80.88424683 0.00613403 C81.7767514 0.0041098 82.66925598 0.00208557 83.58880615 0 C89.68014075 0.02126624 89.68014075 0.02126624 90.79440308 1.13552856 C91.0610955 3.70466554 91.26423726 6.24681959 91.41940308 8.82302856 C91.47096558 9.53136841 91.52252808 10.23970825 91.57565308 10.96951294 C91.84094851 15.19473294 91.67559721 18.95972052 90.79440308 23.13552856 C88.48440308 23.79552856 86.17440308 24.45552856 83.79440308 25.13552856 C84.24356079 25.55439331 84.69271851 25.97325806 85.15548706 26.40481567 C87.18113139 28.29403531 89.20652046 30.18352837 91.23190308 32.07302856 C91.93895386 32.73238403 92.64600464 33.3917395 93.3744812 34.07107544 C94.38478394 35.01370239 94.38478394 35.01370239 95.41549683 35.97537231 C96.03867798 36.55665894 96.66185913 37.13794556 97.30392456 37.73684692 C99.89286626 40.16633865 99.95128946 40.98480509 100.11080933 44.60818481 C100.15270386 45.50730591 100.19459839 46.406427 100.23776245 47.33279419 C100.27707886 48.27832153 100.31639526 49.22384888 100.35690308 50.19802856 C100.40008667 51.1474231 100.44327026 52.09681763 100.48776245 53.07498169 C100.59419584 55.4283421 100.69621316 57.78181211 100.79440308 60.13552856 C102.20592651 60.79875122 102.20592651 60.79875122 103.64596558 61.47537231 C107.59396895 63.55713588 108.88628952 65.09913451 110.79440308 69.13552856 C111.5988834 74.18405302 111.3708288 77.96132801 109.10690308 82.57302856 C105.46057102 86.61355868 102.79996577 88.28991624 97.35690308 88.57302856 C91.92852087 88.38335132 88.88644227 86.0832892 84.98190308 82.44802856 C83.11013169 78.80300008 82.68096682 75.21214406 82.79440308 71.13552856 C84.61914753 65.7626699 87.74242378 62.66151821 92.79440308 60.13552856 C93.95027617 49.98702256 93.95027617 49.98702256 91.29440308 40.47146606 C89.24072339 38.45789731 87.1367912 36.80184541 84.79440308 35.13552856 C83.34615251 33.87696037 81.90819582 32.60642742 80.48190308 31.32302856 C79.84639526 30.78033325 79.21088745 30.23763794 78.55612183 29.67849731 C76.90584302 28.23313118 75.34561283 26.68673832 73.79440308 25.13552856 C73.46440308 28.76552856 73.13440308 32.39552856 72.79440308 36.13552856 C74.44440308 36.46552856 76.09440308 36.79552856 77.79440308 37.13552856 C81.72849364 40.80138568 83.56961019 43.71398064 83.93112183 49.11599731 C83.62201188 53.68199273 81.68445062 57.0785971 78.79440308 60.51052856 C75.17230155 63.45348606 71.55476015 63.47162206 67.07955933 63.42068481 C62.74799008 62.88016421 60.00541874 60.47082507 57.15768433 57.33084106 C54.6347964 53.26819632 55.1997271 48.74593785 55.79440308 44.13552856 C57.70721849 40.01561844 58.70959473 38.53967285 62.98190308 36.94802856 C66.04647325 35.435701 66.04647325 35.435701 66.39987183 32.51052856 C66.64489234 29.72652736 66.72866215 26.92951781 66.79440308 24.13552856 C59.53440308 24.13552856 52.27440308 24.13552856 44.79440308 24.13552856 C44.95940308 25.88865356 45.12440308 27.64177856 45.29440308 29.44802856 C46.0899922 39.13148477 45.84016795 48.48087785 44.79440308 58.13552856 C45.56268433 58.23994263 46.33096558 58.34435669 47.12252808 58.45193481 C51.25971784 59.51042635 52.30504201 61.74723155 54.79440308 65.13552856 C56.67611902 68.89896046 56.44214724 73.04740738 55.79440308 77.13552856 C53.74075228 80.91893222 51.02902133 83.35576967 47.41940308 85.63552856 C42.15959693 86.6373964 38.18092843 85.81571081 33.48190308 83.51052856 C30.11999322 80.53953845 28.99972462 78.46050586 27.79440308 74.13552856 C27.6067587 69.57733401 28.20132407 66.16792535 30.48190308 62.19802856 C32.79440308 60.13552856 32.79440308 60.13552856 38.79440308 58.13552856 C38.79440308 46.91552856 38.79440308 35.69552856 38.79440308 24.13552856 C31.86440308 24.13552856 24.93440308 24.13552856 17.79440308 24.13552856 C17.91780401 29.69867429 17.91780401 29.69867429 18.79440308 35.13552856 C21.55168123 37.66865826 21.55168123 37.66865826 24.79440308 39.13552856 C27.67006069 42.4078286 28.68608918 45.00906407 29.10690308 49.38552856 C28.73292681 53.87324373 27.66000008 56.68074339 24.79440308 60.13552856 C20.14068444 63.49053502 15.36266145 64.03363475 9.79440308 63.13552856 C5.41141224 60.94403315 2.59365583 58.73361894 0.79440308 54.13552856 C0.11409196 49.12138369 0.2407197 45.30678186 2.41940308 40.69802856 C5.00545974 37.90780954 7.29230002 36.56820709 10.79440308 35.13552856 C10.79440308 31.83552856 10.79440308 28.53552856 10.79440308 25.13552856 C9.63424683 26.20480591 9.63424683 26.20480591 8.45065308 27.29568481 C7.94953003 27.75539673 7.44840698 28.21510864 6.93209839 28.68875122 C5.83238957 29.70222765 4.73803529 30.72154259 3.64889526 31.74636841 C1.24548743 33.98988069 -1.02732091 36.01856869 -3.78372192 37.82693481 C-6.28303783 39.47666312 -7.67226309 40.54031698 -9.20559692 43.13552856 C-10.14550931 48.75952527 -9.66329089 54.48427941 -9.20559692 60.13552856 C-7.53303833 61.04238403 -7.53303833 61.04238403 -5.82669067 61.96755981 C-1.99721289 64.04388939 -0.56899734 65.88492726 0.79440308 70.13552856 C1.4735067 74.86378754 1.25844965 78.17173952 -0.83059692 82.51052856 C-3.90280454 85.90612646 -6.55372056 87.75365837 -11.15872192 88.41677856 C-15.86080409 88.63214111 -19.27862405 87.90225945 -23.20559692 85.13552856 C-27.03749597 79.99271669 -28.01411327 76.50259478 -27.20559692 70.13552856 C-24.67139105 65.50404886 -22.27462007 61.82520295 -17.20559692 60.13552856 C-17.31903442 58.865802 -17.43247192 57.59607544 -17.54934692 56.28787231 C-17.90613454 48.40009773 -18.14255464 41.67451786 -12.61184692 35.53787231 C-9.2019473 32.24604937 -5.57210897 29.25270791 -1.77200317 26.42214966 C-0.06870162 25.20116091 -0.06870162 25.20116091 0.79440308 23.13552856 C-0.33997192 23.15615356 -1.47434692 23.17677856 -2.64309692 23.19802856 C-6.20559692 23.13552856 -6.20559692 23.13552856 -7.20559692 22.13552856 C-7.30459216 20.58597298 -7.33639216 19.03199184 -7.33840942 17.47927856 C-7.34034302 16.06968872 -7.34034302 16.06968872 -7.34231567 14.63162231 C-7.33844849 13.64291138 -7.3345813 12.65420044 -7.33059692 11.63552856 C-7.33639771 10.15246216 -7.33639771 10.15246216 -7.34231567 8.63943481 C-7.34102661 7.69970825 -7.33973755 6.75998169 -7.33840942 5.79177856 C-7.33728149 4.92359497 -7.33615356 4.05541138 -7.33499146 3.16091919 C-7.05193661 -1.26969028 -3.6656689 0.01279769 0 0 Z M-1.20559692 6.13552856 C-1.20559692 9.76552856 -1.20559692 13.39552856 -1.20559692 17.13552856 C27.17440308 17.13552856 55.55440308 17.13552856 84.79440308 17.13552856 C84.79440308 13.50552856 84.79440308 9.87552856 84.79440308 6.13552856 C56.41440308 6.13552856 28.03440308 6.13552856 -1.20559692 6.13552856 Z M8.79440308 43.13552856 C6.44890633 46.65377368 6.21448905 47.99328551 6.79440308 52.13552856 C8.71106974 55.2188619 8.71106974 55.2188619 11.79440308 57.13552856 C16.12408022 57.28744706 18.02513066 56.80864193 21.29440308 53.94802856 C23.02380959 51.21620654 23.02380959 51.21620654 22.85690308 48.07302856 C21.53138459 44.40835982 20.10583853 43.13779186 16.79440308 41.13552856 C13.01291232 41.13552856 11.83005408 41.2129496 8.79440308 43.13552856 Z M62.79440308 44.13552856 C61.35009453 47.02414566 61.41751802 48.93200558 61.79440308 52.13552856 C63.71106974 55.2188619 63.71106974 55.2188619 66.79440308 57.13552856 C70.36626972 57.13552856 72.67551907 56.88145124 75.66940308 54.88552856 C77.17903652 52.53720987 77.66103362 50.93628708 77.79440308 48.13552856 C76.17284679 44.64918255 75.02987016 43.29250662 71.79440308 41.13552856 C67.50053297 41.13552856 66.20573824 41.73837412 62.79440308 44.13552856 Z M36.41940308 65.82302856 C34.57518501 68.44749274 33.87271285 69.92482804 33.79440308 73.13552856 C35.54553833 76.84814084 35.54553833 76.84814084 38.79440308 79.13552856 C42.63055265 79.4907276 44.94069942 79.6827745 48.23190308 77.57302856 C50.39836336 74.19335052 50.35728309 72.07568869 49.79440308 68.13552856 C48.37773641 65.55219523 48.37773641 65.55219523 45.79440308 64.13552856 C41.80987324 63.56631002 39.7394656 63.46403677 36.41940308 65.82302856 Z M-19.20559692 68.13552856 C-21.55109367 71.65377368 -21.78551095 72.99328551 -21.20559692 77.13552856 C-18.71957244 80.49897346 -17.29134169 81.93610606 -13.14309692 82.69802856 C-9.49304114 81.99908171 -8.34995081 81.15350811 -6.20559692 78.13552856 C-5.04110811 75.23201732 -5.04110811 75.23201732 -5.20559692 72.13552856 C-7.14885851 68.6376577 -8.36962543 67.39676966 -12.20559692 66.19802856 C-15.33718389 66.13278717 -16.68366296 66.33414716 -19.20559692 68.13552856 Z M89.79440308 70.13552856 C88.63230088 72.52904352 88.63230088 72.52904352 88.79440308 75.13552856 C90.41595936 78.62187458 91.55893599 79.97855051 94.79440308 82.13552856 C99.69197697 81.96219728 99.69197697 81.96219728 103.73190308 79.44802856 C105.15574258 76.34908376 105.34594134 74.51370044 104.79440308 71.13552856 C102.50293883 68.12388984 101.0343649 66.41451997 97.29440308 65.57302856 C93.894575 66.33798988 92.21526055 67.64742505 89.79440308 70.13552856 Z " fill="#25FFD7" transform="translate(42.205596923828125,42.864471435546875)"/>
<path d="M0 0 C1.29134857 -0.00838898 2.58269714 -0.01677795 3.91317749 -0.02542114 C5.33696287 -0.01445542 6.76074521 -0.00308949 8.18452454 0.00863647 C9.68939036 0.00648977 11.19425456 0.00261081 12.69911194 -0.00286865 C16.77956229 -0.01255247 20.85957433 0.00272715 24.93997169 0.02303743 C29.20848064 0.04061279 33.47697616 0.03708332 37.74551392 0.03631592 C44.91031731 0.03818807 52.07495111 0.05554368 59.23970032 0.08285522 C67.53031159 0.11434111 75.82073738 0.12485014 84.11140412 0.12338412 C92.08256401 0.12216483 100.05366335 0.13236169 108.02480507 0.14896774 C111.41990951 0.1560394 114.81499254 0.15969508 118.21010399 0.16075516 C122.20332029 0.16275953 126.19638001 0.17493203 130.18954468 0.19508743 C131.65773879 0.20094393 133.12595092 0.20338686 134.59415627 0.20223236 C136.59224737 0.20125548 138.59033173 0.21376571 140.58837891 0.22705078 C141.70831584 0.23040247 142.82825277 0.23375416 143.98212719 0.23720741 C146.60371399 0.49447632 146.60371399 0.49447632 148.60371399 2.49447632 C148.79699258 5.18936648 148.8659821 7.78106663 148.84663391 10.47665405 C148.84853226 11.30118073 148.8504306 12.1257074 148.85238647 12.97521973 C148.85610087 15.70959892 148.84537975 18.44371435 148.83418274 21.17807007 C148.83299108 23.07374541 148.83253775 24.96942135 148.83279419 26.86509705 C148.83122812 30.84226161 148.82292975 34.81933632 148.80952454 38.79647827 C148.7925461 43.89895522 148.78870982 49.00133322 148.78946972 54.10383511 C148.78919797 58.0199834 148.78371577 61.93610998 148.77646828 65.85225105 C148.77328194 67.73375344 148.77131428 69.61525829 148.77057457 71.49676323 C148.76840999 74.12551956 148.75966279 76.75417034 148.74897766 79.38290405 C148.74943085 80.16378891 148.74988403 80.94467377 148.75035095 81.7492218 C148.73141695 84.92977585 148.61702576 87.45454101 147.60371399 90.49447632 C145.95371399 90.49447632 144.30371399 90.49447632 142.60371399 90.49447632 C141.4771188 87.11469074 141.48350416 84.56631496 141.4901886 81.00350952 C141.49006806 80.33903148 141.48994753 79.67455343 141.48982334 78.98993969 C141.49056899 76.84167812 141.49818137 74.69350359 141.50605774 72.54525757 C141.50706482 71.2311792 141.5080719 69.91710083 141.5091095 68.5632019 C141.51434989 63.64445119 141.52831111 58.7257129 141.54121399 53.80697632 C141.56183899 42.81385132 141.58246399 31.82072632 141.60371399 20.49447632 C102.66371399 20.49447632 63.72371399 20.49447632 23.60371399 20.49447632 C23.27371399 18.84447632 22.94371399 17.19447632 22.60371399 15.49447632 C25.03373716 14.27946474 26.57030424 14.37131421 29.28599548 14.3742218 C30.76680351 14.37215981 30.76680351 14.37215981 32.27752686 14.37005615 C33.36437271 14.37365143 34.45121857 14.3772467 35.57099915 14.38095093 C36.71245895 14.3808049 37.85391876 14.38065887 39.02996826 14.38050842 C42.81759008 14.38120726 46.60516322 14.38899834 50.39277649 14.39682007 C53.01308668 14.39868435 55.63339722 14.4001082 58.25370789 14.40110779 C64.4549856 14.4042188 70.65624573 14.4124291 76.85751569 14.42245728 C83.91667562 14.43362554 90.97583638 14.43913067 98.03500295 14.44415271 C112.55791571 14.45461189 127.0808146 14.4722069 141.60371399 14.49447632 C141.60371399 11.85447632 141.60371399 9.21447632 141.60371399 6.49447632 C93.42371399 6.49447632 45.24371399 6.49447632 -4.39628601 6.49447632 C-4.39628601 33.88447632 -4.39628601 61.27447632 -4.39628601 89.49447632 C-6.87128601 89.98947632 -6.87128601 89.98947632 -9.39628601 90.49447632 C-11.40979981 88.48096252 -10.63301433 84.40639047 -10.68095398 81.64169312 C-10.70785057 80.40753159 -10.70785057 80.40753159 -10.73529053 79.1484375 C-10.79261637 76.41360532 -10.84159178 73.67872543 -10.88847351 70.94369507 C-10.90482975 70.01183695 -10.92118599 69.07997883 -10.93803787 68.11988258 C-11.02312396 63.18762285 -11.10082889 58.25530086 -11.17362976 53.32284546 C-11.25069912 48.2210367 -11.3560577 43.12021526 -11.46760368 38.01906109 C-11.54768771 34.10307013 -11.60554506 30.18697401 -11.65742874 26.27051735 C-11.68640132 24.3896866 -11.72399367 22.50896841 -11.77030563 20.62848473 C-11.83319018 17.99720178 -11.86440992 15.36733103 -11.88798523 12.73544312 C-11.92661934 11.56715218 -11.92661934 11.56715218 -11.96603394 10.3752594 C-11.9665176 6.7391002 -11.83909548 4.95067084 -9.26042652 2.29405499 C-5.8607615 0.15799894 -3.98947925 -0.00387726 0 0 Z " fill="#2CFFD8" transform="translate(15.396286010742188,4.505523681640625)"/>
<path d="M0 0 C0.66 0.33 1.32 0.66 2 1 C1.04709549 2.12960204 0.08713429 3.25324896 -0.875 4.375 C-1.5040625 5.11878906 -2.133125 5.86257812 -2.78125 6.62890625 C-5 9 -5 9 -7.65625 11.08984375 C-12.30381651 14.88936292 -15.10670402 17.81074452 -15.859375 23.86328125 C-16.19501916 28.58652578 -16.16511918 33.26982127 -16 38 C-16.66 37.67 -17.32 37.34 -18 37 C-19.45930656 20.66571639 -19.45930656 20.66571639 -15.3984375 14.61279297 C-11.54611539 10.33841498 -7.17469294 6.71916341 -2.56640625 3.28662109 C-0.86310469 2.06563235 -0.86310469 2.06563235 0 0 Z " fill="#6FFFE5" transform="translate(43,66)"/>
<path d="M0 0 C0.99 0.33 1.98 0.66 3 1 C-0.465 3.97 -0.465 3.97 -4 7 C-2.92598892 4.08482708 -2.22189824 2.22189824 0 0 Z " fill="#4DFFDF" transform="translate(103,80)"/>
</svg>
