<?xml version="1.0" encoding="UTF-8"?>
<svg version="1.1" xmlns="http://www.w3.org/2000/svg" width="1080" height="895">
<path d="M0 0 C1.13935501 0.00090637 1.13935501 0.00090637 2.30172729 0.00183105 C48.97145932 0.10179104 118.79624422 5.85874422 154.125 41.1875 C153.8018414 46.31979392 151.83612983 50.62524999 149.765625 55.25 C149.42475357 56.02630768 149.08388214 56.80261536 148.73268127 57.60244751 C147.61970198 60.13360394 146.49738587 62.66050254 145.375 65.1875 C144.60173848 66.94157766 143.82920245 68.69597531 143.05737305 70.45068359 C141.88437706 73.1168215 140.71076649 75.78267377 139.5344696 78.44735718 C137.10643794 83.94771453 134.69861271 89.45620663 132.31640625 94.9765625 C131.87955002 95.98864777 131.87955002 95.98864777 131.43386841 97.0211792 C130.09197171 100.1319072 128.75206339 103.24348272 127.41308594 106.35546875 C124.10104535 114.02358686 120.6585815 121.61898726 117.125 129.1875 C116.02027344 128.64222656 114.91554688 128.09695313 113.77734375 127.53515625 C87.54881157 114.74871102 60.23204892 104.76174369 31.125 101.1875 C30.39966064 101.0946875 29.67432129 101.001875 28.92700195 100.90625 C-8.5504806 96.59362486 -48.2455758 101.79927119 -78.875 125.1875 C-113.70012168 153.96659361 -127.3384229 197.54737478 -131.875 241.1875 C-132.01748169 242.43164673 -132.01748169 242.43164673 -132.1628418 243.70092773 C-133.13271498 253.30913805 -133.06108151 262.9458281 -133.06030273 272.5925293 C-133.06247263 275.58722517 -133.08063574 278.58154163 -133.09960938 281.57617188 C-133.14932097 298.39999465 -132.1081496 315.10666422 -129.125 331.6875 C-128.95726074 332.62980469 -128.78952148 333.57210938 -128.61669922 334.54296875 C-122.11525184 369.35679598 -107.41336513 404.24561857 -77.72265625 425.4375 C-42.98288491 448.96030782 2.81903989 453.47612655 43.43505859 445.7265625 C44.32273926 445.54867188 45.21041992 445.37078125 46.125 445.1875 C47.10162598 444.99414062 48.07825195 444.80078125 49.08447266 444.6015625 C72.56910047 439.79409486 98.7849232 432.1453464 118.4296875 417.83203125 C121.125 416.1875 121.125 416.1875 123.17965698 416.37356567 C126.12486845 417.6058464 126.68618917 419.94518029 127.86279297 422.75846863 C128.17877441 423.55747086 128.49475586 424.35647308 128.8203125 425.1796875 C129.16578125 426.01707962 129.51125 426.85447174 129.8671875 427.71723938 C131.00891928 430.49343649 132.12922656 433.27778358 133.25 436.0625 C134.03730601 437.98673683 134.82622688 439.91031367 135.61669922 441.83325195 C137.27412646 445.86858296 138.92437124 449.90674876 140.5703125 453.94677734 C144.33083817 463.15728527 148.18948888 472.32670748 152.04241943 481.49884033 C153.97226547 486.09525856 155.89612742 490.69417855 157.8203125 495.29296875 C158.46627915 496.83619397 159.11227196 498.37940823 159.75830078 499.92260742 C160.20931152 501.00002197 160.66032227 502.07743652 161.125 503.1875 C156.28672679 508.30580709 151.27239537 511.12377754 145.0625 514.3125 C143.96558838 514.87727051 142.86867676 515.44204102 141.73852539 516.02392578 C97.84946314 538.13426899 49.23665966 548.44849412 0.25 548.375 C-0.56236115 548.37406342 -1.37472229 548.37312683 -2.21170044 548.37216187 C-71.06039965 548.20098245 -133.80772291 528.76959555 -183.8125 480.5 C-189.74074666 474.49753429 -194.82067549 467.92415853 -199.875 461.1875 C-200.30312988 460.62546875 -200.73125977 460.0634375 -201.17236328 459.484375 C-208.42308205 449.93206217 -214.3581712 439.8262688 -219.875 429.1875 C-220.22804199 428.50880859 -220.58108398 427.83011719 -220.94482422 427.13085938 C-234.45140207 400.77719192 -242.07318762 372.00096772 -246.6875 342.875 C-246.8824707 341.65031006 -247.07744141 340.42562012 -247.27832031 339.16381836 C-250.39870068 318.23057883 -251.25012073 297.39452147 -251.1875 276.25 C-251.18600952 275.00147247 -251.18451904 273.75294495 -251.1829834 272.46658325 C-251.14170733 253.19851228 -250.54960749 234.28731018 -247.875 215.1875 C-247.73578125 214.14158691 -247.5965625 213.09567383 -247.453125 212.01806641 C-238.71160117 147.9439108 -210.47009374 85.93649757 -158.125 46.125 C-112.6196453 12.22991011 -55.90140843 -0.08316027 0 0 Z " fill="#33FFCE" transform="translate(571.875,171.8125)"/>
<path d="M0 0 C2.61700328 0.00373974 5.23400799 0.00658216 7.85101318 0.00857544 C13.97734471 0.01472518 20.10360256 0.03104516 26.22990203 0.05127442 C33.21933967 0.07383946 40.20878133 0.08467796 47.19824648 0.09466529 C61.54366834 0.1154194 75.88900388 0.15201125 90.234375 0.1953125 C90.234375 16.6953125 90.234375 33.1953125 90.234375 50.1953125 C79.21289062 50.25138672 79.21289062 50.25138672 67.96875 50.30859375 C63.27471748 50.33891972 58.58072077 50.37009783 53.88671875 50.40429688 C46.45916703 50.45833208 39.03168612 50.5094511 31.60400391 50.54174805 C25.60621488 50.5680268 19.6086679 50.60859695 13.61103058 50.65849876 C11.33890069 50.67500316 9.06672911 50.68661845 6.79454803 50.69292641 C-24.39299504 50.78814794 -54.80196723 54.78423879 -78.13671875 77.50390625 C-92.1928815 92.31858031 -98.37510006 111.2804009 -100.765625 131.1953125 C-100.84683594 131.85982422 -100.92804688 132.52433594 -101.01171875 133.20898438 C-102.09376155 142.93787798 -101.69578474 152.55320299 -101.03125 162.30078125 C-100.94408218 163.58963226 -100.85691437 164.87848328 -100.7671051 166.20639038 C-99.58265483 183.0795886 -97.75552451 199.89478726 -95.97808838 216.71362305 C-95.33390068 222.82060822 -94.69856603 228.92852214 -94.06239319 235.03634644 C-93.72640186 238.26212411 -93.38795608 241.48762786 -93.04734802 244.71292114 C-90.62102621 267.75995446 -90.62102621 267.75995446 -90.5625 279.25390625 C-90.55679993 280.16374771 -90.55109985 281.07358917 -90.54522705 282.01100159 C-90.53586601 283.92260611 -90.529279 285.83422612 -90.52539062 287.74584961 C-90.51575005 290.59584486 -90.48466651 293.44509681 -90.453125 296.29492188 C-90.35760596 312.73103205 -91.67058922 329.2139295 -96.515625 345.0078125 C-96.77166504 345.86834229 -97.02770508 346.72887207 -97.29150391 347.61547852 C-102.63961256 365.00892051 -110.80323943 381.40311652 -122.765625 395.1953125 C-123.42949219 396.00355469 -124.09335938 396.81179688 -124.77734375 397.64453125 C-138.3960402 413.67985406 -157.8103589 425.75306124 -177.765625 432.1953125 C-178.755625 432.1953125 -179.745625 432.1953125 -180.765625 432.1953125 C-180.765625 432.8553125 -180.765625 433.5153125 -180.765625 434.1953125 C-179.84595947 434.43967041 -179.84595947 434.43967041 -178.90771484 434.68896484 C-172.66065429 436.44196044 -167.0979685 438.75105108 -161.390625 441.8203125 C-160.56699463 442.25980225 -159.74336426 442.69929199 -158.89477539 443.15209961 C-151.99078124 446.91822199 -145.80027465 451.12907616 -139.765625 456.1953125 C-138.90839844 456.91332031 -138.05117187 457.63132812 -137.16796875 458.37109375 C-115.63161864 477.11137986 -101.81494978 501.95057156 -95.078125 529.5703125 C-94.87550049 530.3955542 -94.67287598 531.2207959 -94.46411133 532.07104492 C-91.14826545 546.36501049 -90.32601419 560.46254549 -90.328125 575.0703125 C-90.32672516 576.01227478 -90.32532532 576.95423706 -90.32388306 577.92474365 C-90.35088491 600.46964416 -92.81229351 622.66759095 -95.40124512 645.03613281 C-99.75164832 682.33084049 -99.75164832 682.33084049 -101.265625 719.8203125 C-101.27222641 720.99077118 -101.27222641 720.99077118 -101.27896118 722.18487549 C-101.33802789 746.8642001 -95.19554576 771.41717962 -77.5390625 789.4765625 C-54.6660191 811.89858814 -23.61379541 814.62611679 6.8359375 814.70703125 C9.25402719 814.72391517 11.6721083 814.74207026 14.09017944 814.76142883 C20.39295774 814.80853202 26.69570125 814.83859649 32.99859619 814.86486816 C40.59399336 814.90017046 48.18925701 814.95706806 55.7845459 815.01026154 C67.26780423 815.0883089 78.75089345 815.13926723 90.234375 815.1953125 C90.234375 832.0253125 90.234375 848.8553125 90.234375 866.1953125 C74.46400439 866.26345543 58.69375353 866.31853924 42.92327785 866.35074902 C35.59813035 866.36611275 28.27308189 866.38699697 20.94799805 866.42163086 C14.55149685 866.45185946 8.15506748 866.47096334 1.75849682 866.47757798 C-1.61764944 866.48143474 -4.99343001 866.4919306 -8.36953926 866.51250267 C-54.3578192 866.7812382 -98.62679001 857.99336012 -132.953125 825.4453125 C-156.9333683 800.36613825 -167.47822161 766.37002069 -168.765625 732.1953125 C-168.79285645 731.55271484 -168.82008789 730.91011719 -168.84814453 730.24804688 C-169.94507887 700.58252692 -164.96684849 670.54551824 -161.27905273 641.20458984 C-158.50137839 618.9850753 -156.36044306 596.97852101 -156.453125 574.5703125 C-156.45585922 573.17679565 -156.45585922 573.17679565 -156.45864868 571.75512695 C-156.50370127 558.06501047 -156.81913134 544.61981119 -159.765625 531.1953125 C-159.94254883 530.37820801 -160.11947266 529.56110352 -160.30175781 528.71923828 C-165.14075237 507.15270034 -173.74435423 483.25028405 -192.765625 470.1953125 C-195.30301695 468.68468585 -197.89047543 467.29692988 -200.515625 465.9453125 C-201.14662109 465.6157959 -201.77761719 465.2862793 -202.42773438 464.94677734 C-215.92034245 458.33242208 -229.82141383 458.66739746 -244.515625 458.5078125 C-251.858125 458.4046875 -259.200625 458.3015625 -266.765625 458.1953125 C-266.765625 442.0253125 -266.765625 425.8553125 -266.765625 409.1953125 C-247.765625 408.8828125 -247.765625 408.8828125 -241.87890625 408.80737305 C-221.57675283 408.44362576 -203.91225547 405.44119695 -187.765625 392.1953125 C-187.13011719 391.67453125 -186.49460937 391.15375 -185.83984375 390.6171875 C-170.92177003 377.03659625 -163.73173448 355.35180751 -159.765625 336.1953125 C-159.60046387 335.39996094 -159.43530273 334.60460937 -159.26513672 333.78515625 C-152.77241545 300.32112026 -156.65563376 264.71871113 -160.765625 231.1953125 C-160.88631348 230.20567505 -161.00700195 229.2160376 -161.13134766 228.19641113 C-162.17420302 219.64974955 -163.22593285 211.10417614 -164.28820801 202.55990601 C-170.60812859 151.7238605 -174.58557827 96.15947806 -141.85546875 52.8125 C-120.48043988 26.04377226 -91.62064041 10.40545732 -58.203125 3.8828125 C-57.45071533 3.73553711 -56.69830566 3.58826172 -55.9230957 3.43652344 C-37.35314427 0.13983109 -18.80049338 -0.07993436 0 0 Z " fill="#33FFCE" transform="translate(284.765625,10.8046875)"/>
<path d="M0 0 C14.21282338 -0.06029006 28.42529438 -0.12053493 42.63814449 -0.1507616 C50.27485326 -0.16725736 57.91146162 -0.18805144 65.5480957 -0.22631836 C72.25901953 -0.25992994 78.96983479 -0.27694393 85.68083763 -0.28463173 C88.2179656 -0.29009746 90.75508888 -0.30076533 93.29216957 -0.31719017 C141.05580891 -0.61359421 187.83537049 7.28554253 223.1875 41.6875 C238.81100783 57.41599301 248.58020305 77.67941529 254 99 C254.31759277 100.23363281 254.31759277 100.23363281 254.64160156 101.4921875 C262.72995801 134.8198052 258.07790703 170.85436637 253.71875 204.38378906 C239.66675919 295.98894439 239.66675919 295.98894439 268 381 C270.83189805 384.52034223 273.81208471 387.80040737 277 391 C277.53882813 391.56203125 278.07765625 392.1240625 278.6328125 392.703125 C291.28238444 404.78060574 309.52650302 407.97119945 326.3125 408.31640625 C327.45041992 408.34438293 327.45041992 408.34438293 328.61132812 408.3729248 C331.40744946 408.4405052 334.20373595 408.50110796 337 408.5625 C343.27 408.706875 349.54 408.85125 356 409 C356 425.17 356 441.34 356 458 C334.4375 458.25 334.4375 458.25 327.73217773 458.29785156 C307.81278487 458.56457121 290.26401789 462.13921416 275.3359375 476.51171875 C248.25495927 505.35884773 245.05808531 548.03070194 246.14453125 585.671875 C247.11006303 607.44305941 250.13623044 629.09377873 252.79852295 650.70539856 C258.53743468 697.45780731 258.53743468 697.45780731 258.39111328 717.46069336 C258.3747761 720.09865365 258.39127419 722.73512647 258.41015625 725.37304688 C258.45568306 763.25004685 247.17512638 798.14081218 221 826 C220.484375 826.59167969 219.96875 827.18335938 219.4375 827.79296875 C195.40901989 854.13669304 153.77357979 864.51192507 119.64195633 866.16238022 C111.0444159 866.40489375 102.44747173 866.3458172 93.84765625 866.29296875 C91.12284086 866.28565839 88.39802575 866.2829464 85.67320251 866.28010559 C79.30255943 866.2708935 72.93207642 866.24643181 66.56150287 866.21605712 C59.29148131 866.18216897 52.02145086 866.16594193 44.7513696 866.15097082 C29.83414339 866.11986825 14.9171243 866.06499764 0 866 C0 849.5 0 833 0 816 C7.67121094 815.96261719 15.34242188 815.92523437 23.24609375 815.88671875 C28.13608922 815.85640586 33.02604974 815.82523621 37.91601562 815.79101562 C45.65989312 815.73690351 53.40370151 815.68578604 61.14770508 815.65356445 C67.39834672 815.62735669 73.6487533 815.58683327 79.89924812 815.53681374 C82.27154658 815.52026235 84.64388558 815.5086757 87.01623344 815.50238609 C103.51241064 815.45426998 119.44399196 814.79875779 135.1875 809.3125 C135.92887207 809.05686279 136.67024414 808.80122559 137.43408203 808.5378418 C157.34445113 801.36283768 172.59512436 787.84510647 181.75 768.6875 C188.74147498 753.34596164 191.41670719 737.21880955 191.5 720.4375 C191.50334351 719.77169922 191.50668701 719.10589844 191.51013184 718.41992188 C191.51687953 694.94875103 188.29080462 671.52814647 185.77392578 648.22851562 C184.77217515 638.92810701 183.84300838 629.62101646 182.93762207 620.31079102 C182.69746208 617.85199343 182.45228069 615.39374335 182.20605469 612.93554688 C177.59986378 566.47295151 178.17053913 515.35613153 208.25 476.6875 C209.8160001 474.77732405 211.39730752 472.87949602 213 471 C213.88751953 469.88818359 213.88751953 469.88818359 214.79296875 468.75390625 C219.50212707 463.01566821 225.13215357 458.50932132 231 454 C231.76957031 453.40316406 232.53914062 452.80632812 233.33203125 452.19140625 C244.41170802 444.01849306 257.18071464 437.91529438 270 433 C269.030625 432.59910156 268.06125 432.19820313 267.0625 431.78515625 C252.35356463 425.59484495 239.01172516 418.64719318 227 408 C226.24589844 407.38898438 225.49179687 406.77796875 224.71484375 406.1484375 C197.31942095 383.4397096 184.19072495 345.91910409 180.75 311.5625 C177.54106216 274.34421993 183.56618495 236.57523576 187.57446289 199.59716797 C187.68906089 198.53833467 187.68906089 198.53833467 187.80597401 197.45811081 C188.16712164 194.12233296 188.52998888 190.78677309 188.89613342 187.45153809 C190.30142708 174.53613493 191.23911855 161.80200008 191.25 148.8125 C191.25067474 148.0835553 191.25134949 147.3546106 191.25204468 146.60357666 C191.23617121 135.79152124 190.85853347 125.49276943 188 115 C187.74259033 114.04818848 187.74259033 114.04818848 187.47998047 113.07714844 C181.74563201 92.50728721 170.4211397 75.60087596 151.765625 64.85302734 C129.48276315 52.58939651 104.88800809 51.55759529 79.98046875 51.48828125 C77.65634749 51.47138561 75.33223509 51.45322905 73.00813293 51.43388367 C66.96679458 51.38690724 60.92549214 51.35676221 54.8840332 51.33044434 C47.59475767 51.2950595 40.3056201 51.2381999 33.0164566 51.18505096 C22.0109901 51.10715317 11.00569642 51.05608245 0 51 C0 34.17 0 17.34 0 0 Z " fill="#33FFCE" transform="translate(702,11)"/>
</svg>
