<svg version="1.1" id="Layer_1" xmlns="http://www.w3.org/2000/svg" xmlns:xlink="http://www.w3.org/1999/xlink" x="0px" y="0px"
	 width="100%" viewBox="0 0 852 265" enable-background="new 0 0 852 265" xml:space="preserve">
<path fill="#FFFFFF" opacity="1.000000" stroke="none" 
	d="
M549.000000,266.000000 
	C366.040802,266.000000 183.581635,266.000000 1.061221,266.000000 
	C1.061221,177.727264 1.061221,89.454491 1.061221,1.090852 
	C284.875885,1.090852 568.751831,1.090852 852.813843,1.090852 
	C852.813843,89.333023 852.813843,177.666473 852.813843,266.000000 
	C751.787781,266.000000 650.643860,266.000000 549.000000,266.000000 
M463.144073,65.076393 
	C453.178070,62.173737 443.125275,61.238014 432.668610,61.849216 
	C412.861115,63.006989 396.570496,74.665993 389.855896,92.840515 
	C385.113831,105.675888 385.387024,118.907211 386.234680,132.009598 
	C387.051910,144.642029 391.580078,156.432053 401.048950,165.429657 
	C409.553375,173.510818 420.001801,176.957977 431.726929,178.272156 
	C445.665466,179.834427 458.478424,177.482849 470.649750,170.965164 
	C471.842346,170.326523 473.187469,167.846832 472.823486,166.781372 
	C470.849274,161.002625 468.359985,155.399872 466.320221,150.403137 
	C459.102173,152.705368 453.032501,155.383057 446.687500,156.508286 
	C434.072876,158.745361 419.054108,154.421204 414.147583,139.274490 
	C410.468048,127.915520 410.177979,116.394791 413.115234,104.827263 
	C416.941315,89.759331 428.892273,80.681442 446.163757,84.008522 
	C452.463715,85.222099 458.588898,87.343025 464.878906,89.073418 
	C467.498138,83.129723 470.254639,76.874611 473.173187,70.251717 
	C469.932587,68.561905 466.898804,66.979942 463.144073,65.076393 
M346.317780,122.082359 
	C344.924011,121.352196 343.530243,120.622032 341.728943,119.678383 
	C349.965210,115.765068 355.566223,110.269493 357.930878,101.964844 
	C361.367432,89.895782 358.790649,77.837997 357.322601,65.882454 
	C355.626312,52.067913 359.692383,38.201885 378.404541,38.958729 
	C384.826752,39.218479 391.268311,39.000000 397.751160,39.000000 
	C397.751160,34.707363 397.751160,31.110424 397.751160,26.529089 
	C386.598969,27.065285 375.603241,26.756327 364.887970,28.342190 
	C353.937622,29.962847 345.420593,36.708832 343.432709,47.897636 
	C341.941833,56.288696 343.308105,65.191887 343.445129,73.866386 
	C343.582123,82.536415 344.475586,91.268898 343.702850,99.853882 
	C343.146790,106.031967 339.426056,111.340462 332.929901,113.431519 
	C330.516388,114.208435 327.815338,114.092300 325.321686,114.374771 
	C324.891968,118.019066 324.500977,121.335175 324.107147,124.675285 
	C338.876770,125.294388 342.306458,131.065903 343.636230,139.315079 
	C345.001465,147.784027 343.936462,156.659790 343.779938,165.354721 
	C343.630188,173.674500 342.462097,182.066803 343.226074,190.289307 
	C344.189636,200.660431 353.811920,209.846970 364.307983,210.860062 
	C374.346893,211.829041 384.494690,211.682602 394.596222,211.971970 
	C395.680145,212.002991 396.774475,211.670807 397.683105,211.534286 
	C397.683105,207.900925 397.683105,204.634186 397.683105,200.999786 
	C391.569305,200.999786 385.680969,201.615784 379.988617,200.823715 
	C374.475372,200.056580 368.345154,199.030762 363.942871,196.001343 
	C356.072205,190.585098 356.330383,181.726654 357.425781,173.050751 
	C358.454590,164.902267 359.955048,156.690155 359.760986,148.541443 
	C359.514832,138.204865 355.722290,128.927200 346.317780,122.082359 
M505.000000,85.659332 
	C504.085815,99.938583 508.262207,111.843216 520.969299,118.932098 
	C516.683777,123.578590 512.036743,127.238113 509.189484,131.978592 
	C502.335846,143.389252 505.362610,155.882462 506.480621,168.150742 
	C507.065735,174.571106 507.698395,181.263718 506.529022,187.499481 
	C504.958923,195.872208 496.719940,200.890106 487.062714,200.987152 
	C480.466278,201.053467 473.868622,200.999832 467.259460,200.999832 
	C467.259460,204.983704 467.259460,208.247070 467.259460,211.968384 
	C477.132965,211.968384 486.843658,212.787903 496.350922,211.747726 
	C506.747467,210.610275 515.520386,205.548950 519.845276,195.263504 
	C523.431763,186.734268 522.044434,177.745804 521.463135,168.861588 
	C520.891479,160.124710 519.910400,151.352829 520.251770,142.641098 
	C520.457703,137.386703 522.024841,131.639725 527.131836,128.501419 
	C530.359619,126.517921 534.125732,125.410522 537.720459,123.880356 
	C537.720459,120.899963 537.720459,117.627373 537.720459,114.370010 
	C524.338013,114.053017 519.896912,103.508621 520.096252,94.225685 
	C520.390747,80.508423 521.545776,66.810989 521.927063,53.093788 
	C522.192261,43.556828 514.750427,33.239708 506.019989,30.063148 
	C493.374512,25.462103 480.322021,27.284498 467.405884,27.116190 
	C467.405884,31.371670 467.405884,35.084522 467.405884,39.000080 
	C474.801849,39.000080 481.793884,38.933746 488.784210,39.015732 
	C499.096375,39.136673 507.847626,46.291801 507.009918,57.082138 
	C506.295166,66.288651 505.666931,75.501884 505.000000,85.659332 
z"/>
<path fill="#33FFCD" opacity="1.000000" stroke="none" 
	d="
M463.504547,65.237183 
	C466.898804,66.979942 469.932587,68.561905 473.173187,70.251717 
	C470.254639,76.874611 467.498138,83.129723 464.878906,89.073418 
	C458.588898,87.343025 452.463715,85.222099 446.163757,84.008522 
	C428.892273,80.681442 416.941315,89.759331 413.115234,104.827263 
	C410.177979,116.394791 410.468048,127.915520 414.147583,139.274490 
	C419.054108,154.421204 434.072876,158.745361 446.687500,156.508286 
	C453.032501,155.383057 459.102173,152.705368 466.320221,150.403137 
	C468.359985,155.399872 470.849274,161.002625 472.823486,166.781372 
	C473.187469,167.846832 471.842346,170.326523 470.649750,170.965164 
	C458.478424,177.482849 445.665466,179.834427 431.726929,178.272156 
	C420.001801,176.957977 409.553375,173.510818 401.048950,165.429657 
	C391.580078,156.432053 387.051910,144.642029 386.234680,132.009598 
	C385.387024,118.907211 385.113831,105.675888 389.855896,92.840515 
	C396.570496,74.665993 412.861115,63.006989 432.668610,61.849216 
	C443.125275,61.238014 453.178070,62.173737 463.504547,65.237183 
z"/>
<path fill="#33FFCD" opacity="1.000000" stroke="none" 
	d="
M346.621521,122.271637 
	C355.722290,128.927200 359.514832,138.204865 359.760986,148.541443 
	C359.955048,156.690155 358.454590,164.902267 357.425781,173.050751 
	C356.330383,181.726654 356.072205,190.585098 363.942871,196.001343 
	C368.345154,199.030762 374.475372,200.056580 379.988617,200.823715 
	C385.680969,201.615784 391.569305,200.999786 397.683105,200.999786 
	C397.683105,204.634186 397.683105,207.900925 397.683105,211.534286 
	C396.774475,211.670807 395.680145,212.002991 394.596222,211.971970 
	C384.494690,211.682602 374.346893,211.829041 364.307983,210.860062 
	C353.811920,209.846970 344.189636,200.660431 343.226074,190.289307 
	C342.462097,182.066803 343.630188,173.674500 343.779938,165.354721 
	C343.936462,156.659790 345.001465,147.784027 343.636230,139.315079 
	C342.306458,131.065903 338.876770,125.294388 324.107147,124.675285 
	C324.500977,121.335175 324.891968,118.019066 325.321686,114.374771 
	C327.815338,114.092300 330.516388,114.208435 332.929901,113.431519 
	C339.426056,111.340462 343.146790,106.031967 343.702850,99.853882 
	C344.475586,91.268898 343.582123,82.536415 343.445129,73.866386 
	C343.308105,65.191887 341.941833,56.288696 343.432709,47.897636 
	C345.420593,36.708832 353.937622,29.962847 364.887970,28.342190 
	C375.603241,26.756327 386.598969,27.065285 397.751160,26.529089 
	C397.751160,31.110424 397.751160,34.707363 397.751160,39.000000 
	C391.268311,39.000000 384.826752,39.218479 378.404541,38.958729 
	C359.692383,38.201885 355.626312,52.067913 357.322601,65.882454 
	C358.790649,77.837997 361.367432,89.895782 357.930878,101.964844 
	C355.566223,110.269493 349.965210,115.765068 341.728943,119.678383 
	C343.530243,120.622032 344.924011,121.352196 346.621521,122.271637 
z"/>
<path fill="#33FFCD" opacity="1.000000" stroke="none" 
	d="
M505.000183,85.185738 
	C505.666931,75.501884 506.295166,66.288651 507.009918,57.082138 
	C507.847626,46.291801 499.096375,39.136673 488.784210,39.015732 
	C481.793884,38.933746 474.801849,39.000080 467.405884,39.000080 
	C467.405884,35.084522 467.405884,31.371670 467.405884,27.116190 
	C480.322021,27.284498 493.374512,25.462103 506.019989,30.063148 
	C514.750427,33.239708 522.192261,43.556828 521.927063,53.093788 
	C521.545776,66.810989 520.390747,80.508423 520.096252,94.225685 
	C519.896912,103.508621 524.338013,114.053017 537.720459,114.370010 
	C537.720459,117.627373 537.720459,120.899963 537.720459,123.880356 
	C534.125732,125.410522 530.359619,126.517921 527.131836,128.501419 
	C522.024841,131.639725 520.457703,137.386703 520.251770,142.641098 
	C519.910400,151.352829 520.891479,160.124710 521.463135,168.861588 
	C522.044434,177.745804 523.431763,186.734268 519.845276,195.263504 
	C515.520386,205.548950 506.747467,210.610275 496.350922,211.747726 
	C486.843658,212.787903 477.132965,211.968384 467.259460,211.968384 
	C467.259460,208.247070 467.259460,204.983704 467.259460,200.999832 
	C473.868622,200.999832 480.466278,201.053467 487.062714,200.987152 
	C496.719940,200.890106 504.958923,195.872208 506.529022,187.499481 
	C507.698395,181.263718 507.065735,174.571106 506.480621,168.150742 
	C505.362610,155.882462 502.335846,143.389252 509.189484,131.978592 
	C512.036743,127.238113 516.683777,123.578590 520.969299,118.932098 
	C508.262207,111.843216 504.085815,99.938583 505.000183,85.185738 
z"/>
</svg>