<svg xmlns="http://www.w3.org/2000/svg" xmlns:xlink="http://www.w3.org/1999/xlink" width="1048" zoomAndPan="magnify" viewBox="0 0 786 785.999994" height="1048" preserveAspectRatio="xMidYMid meet" version="1.0"><defs><clipPath id="e57b734aac"><path d="M 79 78.601562 L 707 78.601562 L 707 707.101562 L 79 707.101562 Z M 79 78.601562 " clip-rule="nonzero"/></clipPath></defs><g clip-path="url(#e57b734aac)"><path fill="#33ffce" d="M 611.257812 78.824219 C 608.332031 78.664062 605.359375 79.460938 602.808594 81.214844 C 601.957031 81.746094 520.332031 135.738281 297.621094 135.738281 C 292.46875 135.738281 287.792969 138.660156 285.453125 143.28125 L 82.40625 549.378906 C 78.683594 554.585938 79.058594 561.65625 83.308594 566.382812 C 83.519531 566.648438 83.734375 566.863281 83.894531 567.023438 C 84.160156 567.289062 84.371094 567.5 84.636719 567.714844 C 84.636719 567.765625 84.636719 567.765625 84.636719 567.765625 C 84.902344 567.980469 85.113281 568.136719 85.378906 568.296875 C 89.152344 571.539062 249.742188 707.101562 515.285156 707.101562 C 520.492188 707.101562 525.222656 704.125 527.507812 699.449219 L 704.570312 337.617188 C 706.644531 333.472656 706.535156 328.527344 704.144531 324.542969 C 701.808594 320.558594 697.609375 318.058594 692.984375 317.847656 C 687.511719 317.636719 682.464844 320.664062 680.125 325.605469 L 507.046875 679.414062 C 421.28125 678.402344 347.628906 662.941406 287.261719 642.960938 C 335.566406 649.761719 390.882812 650.824219 452.15625 640.144531 C 456.457031 639.398438 460.125 636.636719 462.089844 632.703125 L 679.964844 187.386719 C 682.199219 183.03125 681.878906 177.824219 679.222656 173.730469 C 676.566406 169.640625 671.890625 167.355469 667.054688 167.621094 C 662.058594 167.9375 657.648438 170.914062 655.574219 175.378906 L 440.890625 614 C 336.519531 630.789062 250.804688 613.042969 191.609375 591.625 C 211.800781 594.125 233.640625 595.824219 256.226562 595.824219 C 300.917969 595.824219 348.105469 589.339844 388.8125 569.734375 C 391.574219 568.351562 393.859375 566.171875 395.1875 563.410156 L 622.734375 98.324219 C 625.445312 92.800781 624.0625 86.15625 619.386719 82.117188 C 617.046875 80.097656 614.179688 78.984375 611.257812 78.824219 Z M 611.257812 78.824219 " fill-opacity="1" fill-rule="nonzero"/></g></svg>