<svg xmlns="http://www.w3.org/2000/svg" xmlns:xlink="http://www.w3.org/1999/xlink" width="1048" zoomAndPan="magnify" viewBox="0 0 786 785.999994" height="1048" preserveAspectRatio="xMidYMid meet" version="1.0"><defs><clipPath id="a77b68d435"><path d="M 78.601562 102 L 707.101562 102 L 707.101562 683 L 78.601562 683 Z M 78.601562 102 " clip-rule="nonzero"/></clipPath></defs><g clip-path="url(#a77b68d435)"><path fill="#33ffce" d="M 108.339844 127.6875 L 677.25 127.6875 C 680.039062 127.6875 682.269531 129.867188 682.269531 132.660156 L 682.269531 518.019531 C 682.269531 520.753906 680.039062 522.933594 677.25 522.933594 L 108.339844 522.933594 C 105.605469 522.933594 103.375 520.753906 103.375 518.019531 L 103.375 132.660156 C 103.375 129.867188 105.605469 127.6875 108.339844 127.6875 Z M 91.042969 102.894531 C 84.179688 102.894531 78.601562 108.421875 78.601562 115.292969 L 78.601562 535.441406 C 78.601562 542.308594 84.179688 547.835938 90.988281 547.835938 C 91.042969 547.835938 91.042969 547.835938 91.042969 547.835938 L 329.964844 547.835938 C 336.828125 547.835938 342.410156 553.421875 342.410156 560.289062 L 342.410156 582.847656 C 342.410156 624.003906 309.042969 657.398438 267.921875 657.398438 L 262.0625 657.398438 L 262.0625 682.859375 L 523.640625 682.859375 L 523.640625 657.398438 L 517.78125 657.398438 C 476.65625 657.398438 443.289062 624.003906 443.289062 582.847656 L 443.289062 560.289062 C 443.289062 553.421875 448.871094 547.835938 455.734375 547.835938 L 694.714844 547.835938 C 701.519531 547.835938 707.101562 542.308594 707.101562 535.441406 L 707.101562 115.292969 C 707.101562 108.421875 701.519531 102.894531 694.714844 102.894531 L 91.042969 102.894531 " fill-opacity="1" fill-rule="nonzero"/></g><path fill="#33ffce" d="M 185.507812 432.359375 C 181.546875 432.414062 178.421875 435.652344 178.476562 439.617188 C 178.53125 443.46875 181.65625 446.597656 185.507812 446.652344 L 315.851562 446.652344 C 319.8125 446.597656 322.9375 443.359375 322.878906 439.449219 C 322.824219 435.539062 319.699219 432.414062 315.851562 432.359375 L 185.507812 432.359375 " fill-opacity="1" fill-rule="nonzero"/><path fill="#33ffce" d="M 185.507812 402.148438 C 181.546875 402.203125 178.421875 405.441406 178.476562 409.40625 C 178.53125 413.261719 181.65625 416.386719 185.507812 416.441406 L 315.851562 416.441406 C 319.8125 416.386719 322.9375 413.148438 322.878906 409.238281 C 322.824219 405.332031 319.699219 402.203125 315.851562 402.148438 L 185.507812 402.148438 " fill-opacity="1" fill-rule="nonzero"/><path fill="#33ffce" d="M 257.820312 183.976562 L 257.820312 270.417969 L 332.589844 313.582031 C 354.125 268.296875 334.988281 214.128906 289.738281 192.574219 C 279.691406 187.773438 268.867188 184.871094 257.820312 183.976562 " fill-opacity="1" fill-rule="nonzero"/><path fill="#33ffce" d="M 243.535156 183.976562 L 243.535156 278.628906 L 325.445312 325.980469 C 297.046875 367.304688 240.578125 377.746094 199.289062 349.320312 C 158 320.898438 147.507812 264.386719 175.910156 223.066406 C 191.421875 200.503906 216.25 186.152344 243.535156 183.976562 " fill-opacity="1" fill-rule="nonzero"/><path fill="#33ffce" d="M 522.132812 296.71875 L 490.996094 247.355469 C 486.8125 240.65625 477.996094 238.699219 471.300781 242.890625 C 470.015625 243.671875 468.902344 244.675781 467.953125 245.847656 L 427.777344 294.261719 L 416.730469 285.105469 L 456.960938 236.691406 C 467.058594 224.574219 485.082031 222.898438 497.191406 233.003906 C 499.476562 234.902344 501.488281 237.191406 503.105469 239.707031 L 534.238281 289.070312 C 538.480469 295.769531 547.242188 297.78125 553.9375 293.535156 C 555.441406 292.585938 556.726562 291.414062 557.730469 290.019531 L 603.929688 228.257812 L 597.066406 223.121094 L 623.179688 214.410156 L 622.175781 241.996094 L 615.371094 236.859375 L 569.167969 298.5625 C 559.738281 311.238281 541.828125 313.808594 529.21875 304.371094 C 526.429688 302.246094 524.027344 299.679688 522.1875 296.71875 L 522.132812 296.71875 " fill-opacity="1" fill-rule="nonzero"/><path fill="#33ffce" d="M 590.429688 292.753906 L 617.65625 292.753906 L 617.65625 422.417969 L 590.429688 422.417969 L 590.429688 292.753906 " fill-opacity="1" fill-rule="nonzero"/><path fill="#33ffce" d="M 527.320312 422.417969 L 527.320312 348.652344 L 554.605469 348.652344 L 554.605469 422.417969 L 527.320312 422.417969 " fill-opacity="1" fill-rule="nonzero"/><path fill="#33ffce" d="M 464.214844 422.417969 L 464.214844 276.394531 L 491.5 276.394531 L 491.5 422.417969 L 464.214844 422.417969 " fill-opacity="1" fill-rule="nonzero"/><path fill="#33ffce" d="M 428.394531 422.417969 L 401.164062 422.417969 L 401.164062 317.546875 L 428.394531 317.546875 L 428.394531 422.417969 " fill-opacity="1" fill-rule="nonzero"/></svg>