<svg xmlns="http://www.w3.org/2000/svg" xmlns:xlink="http://www.w3.org/1999/xlink" width="1048" zoomAndPan="magnify" viewBox="0 0 786 785.999994" height="1048" preserveAspectRatio="xMidYMid meet" version="1.0"><path fill="#33ffce" d="M 623.738281 334.417969 C 590.71875 363.558594 554.652344 395.746094 521.625 424.882812 C 521.644531 424.910156 521.65625 424.9375 521.675781 424.964844 C 522.011719 425.429688 522.332031 425.929688 522.613281 426.5 C 522.9375 427.054688 523.1875 427.609375 523.394531 428.160156 C 525.84375 433.585938 527.277344 439.425781 527.695312 445.328125 C 563.515625 413.710938 602.382812 379.058594 638.203125 347.449219 C 632.5625 344.109375 627.59375 339.664062 623.738281 334.417969 Z M 623.738281 334.417969 " fill-opacity="1" fill-rule="nonzero"/><path fill="#33ffce" d="M 353.71875 334.589844 C 353.207031 341.789062 350.984375 348.710938 347.425781 354.832031 C 377.441406 381.316406 410.5 410.84375 440.523438 437.332031 C 442.078125 430.753906 445.007812 424.539062 449.273438 419.257812 C 418.429688 392.050781 384.554688 361.800781 353.71875 334.589844 Z M 353.71875 334.589844 " fill-opacity="1" fill-rule="nonzero"/><path fill="#33ffce" d="M 153.984375 438.84375 C 146.4375 433.117188 136.992188 429.589844 126.25 429.007812 C 100.136719 427.601562 81.265625 451.253906 79.96875 475.328125 C 78.566406 501.472656 102.199219 520.355469 126.25 521.648438 C 151.320312 523.003906 169.664062 501.253906 172.246094 478.21875 C 172.457031 477.335938 172.589844 476.402344 172.53125 475.332031 C 172.589844 474.285156 172.460938 473.359375 172.257812 472.488281 C 171.535156 465.535156 169.601562 459.140625 166.578125 453.539062 C 201.71875 422.535156 238.378906 390.007812 273.515625 359.003906 C 269.402344 353.644531 266.46875 347.394531 265.183594 340.558594 C 228.625 372.808594 190.542969 406.589844 153.984375 438.84375 Z M 99.34375 475.324219 C 97.476562 440.59375 151.296875 440.773438 153.160156 475.324219 C 151.292969 510.039062 101.210938 510.039062 99.34375 475.324219 Z M 99.34375 475.324219 " fill-opacity="1" fill-rule="nonzero"/><path fill="#33ffce" d="M 355.015625 327.367188 C 354.96875 327.003906 354.90625 326.648438 354.835938 326.292969 C 354.8125 325.804688 354.765625 325.308594 354.667969 324.789062 C 350.285156 301.480469 328.722656 285.0625 305.109375 287.042969 C 281.089844 289.0625 263.609375 309.535156 262.949219 333.132812 C 262.863281 336.203125 263.125 339.1875 263.664062 342.078125 C 264.949219 348.910156 267.882812 355.164062 271.996094 360.519531 C 281.109375 372.382812 295.984375 379.851562 311.449219 379.386719 C 327.558594 378.90625 341.3125 369.476562 348.949219 356.355469 C 352.507812 350.234375 354.730469 343.3125 355.242188 336.113281 C 355.441406 333.226562 355.386719 330.304688 355.015625 327.367188 Z M 311.445312 360 C 295.414062 361.4375 283.101562 348.511719 282.324219 333.136719 C 281.621094 319.292969 293.03125 308.871094 305.671875 306.371094 C 320.488281 303.445312 332.757812 315.527344 335.769531 328.90625 C 337.011719 344.265625 327.75 358.53125 311.445312 360 Z M 311.445312 360 " fill-opacity="1" fill-rule="nonzero"/><path fill="#33ffce" d="M 524.136719 424.972656 C 523.847656 424.40625 523.53125 423.902344 523.199219 423.441406 C 523.179688 423.414062 523.164062 423.386719 523.148438 423.359375 C 509.703125 402.105469 483.011719 395.273438 460.667969 407.082031 C 455.503906 409.816406 451.195312 413.46875 447.75 417.734375 C 443.488281 423.015625 440.558594 429.230469 439 435.808594 C 436.214844 447.574219 437.804688 460.5 443.972656 471.253906 C 456.203125 492.589844 483.058594 498.339844 504.445312 488.65625 C 522.222656 480.605469 530.523438 461.96875 529.222656 443.800781 C 528.804688 437.902344 527.367188 432.054688 524.921875 426.636719 C 524.707031 426.085938 524.460938 425.53125 524.136719 424.972656 Z M 496.4375 470.988281 C 484.941406 477.804688 469.40625 473.667969 461.757812 463.105469 C 452.886719 450.859375 456.253906 433.601562 468.492188 425.019531 C 481.90625 415.613281 499.566406 421.261719 507.40625 434.757812 C 514.117188 448.191406 509.113281 463.460938 496.4375 470.988281 Z M 496.4375 470.988281 " fill-opacity="1" fill-rule="nonzero"/><path fill="#33ffce" d="M 706.339844 307.355469 C 705.660156 283.019531 685.140625 264.636719 661.722656 263.199219 C 661.210938 263.136719 660.683594 263.101562 660.121094 263.117188 C 659.5625 263.101562 659.039062 263.136719 658.535156 263.199219 C 634.199219 264.625 615.929688 283.023438 613.886719 307.359375 C 612.996094 318.003906 616.304688 327.902344 622.214844 335.941406 C 626.070312 341.1875 631.039062 345.632812 636.683594 348.96875 C 644.890625 353.828125 654.523438 356.34375 664.242188 355.527344 C 688.871094 353.457031 707.023438 331.710938 706.339844 307.355469 Z M 663.679688 336.199219 C 646.4375 339.609375 632.828125 323.207031 633.269531 307.359375 C 633.664062 293.183594 646.75 282.878906 660.121094 282.507812 C 674.089844 282.898438 685.78125 293.195312 686.964844 307.359375 C 688.199219 322.039062 677.472656 333.476562 663.679688 336.199219 Z M 663.679688 336.199219 " fill-opacity="1" fill-rule="nonzero"/></svg>