<svg width="512" height="512" viewBox="0 0 512 512" fill="none" xmlns="http://www.w3.org/2000/svg">
<g clip-path="url(#clip0_223_361)">
<rect width="512" height="512" rx="130" fill="#33FFCE"/>
<path d="M93.4881 0C41.6998 0 0 41.6998 0 93.4881V418.512C0 470.301 41.6998 512.001 93.4881 512.001H269.648V311.84H216.72V239.776H269.648V178.208C269.648 129.837 300.921 85.4241 372.96 85.4241C402.128 85.4241 423.696 88.2243 423.696 88.2243L422 155.521C422 155.521 400.003 155.313 376 155.313C350.022 155.313 345.856 167.282 345.856 187.153V239.777H424.064L420.656 311.841H345.856V512.001H418.512C470.3 512.001 512 470.301 512 418.513V93.4886C512 41.7004 470.3 0.000512 418.512 0.000512L93.4881 0Z" fill="black"/>
</g>
<defs>
<clipPath id="clip0_223_361">
<rect width="512" height="512" rx="130" fill="white"/>
</clipPath>
</defs>
</svg>
