<svg width="512" height="512" viewBox="0 0 512 512" fill="none" xmlns="http://www.w3.org/2000/svg">
<g clip-path="url(#clip0_223_401)">
<rect width="512" height="512" rx="130" fill="#33FFCE"/>
<path fill-rule="evenodd" clip-rule="evenodd" d="M256 139.636C225.139 139.636 195.541 151.896 173.719 173.718C151.896 195.541 139.636 225.138 139.636 256C139.636 286.862 151.896 316.459 173.719 338.282C195.541 360.104 225.139 372.364 256 372.364C286.862 372.364 316.459 360.104 338.282 338.282C360.104 316.459 372.364 286.862 372.364 256C372.364 225.138 360.104 195.541 338.282 173.718C316.459 151.896 286.862 139.636 256 139.636ZM186.182 256C186.182 274.517 193.538 292.275 206.631 305.369C219.725 318.462 237.483 325.818 256 325.818C274.517 325.818 292.276 318.462 305.369 305.369C318.462 292.275 325.818 274.517 325.818 256C325.818 237.483 318.462 219.725 305.369 206.631C292.276 193.538 274.517 186.182 256 186.182C237.483 186.182 219.725 193.538 206.631 206.631C193.538 219.725 186.182 237.483 186.182 256Z" fill="black"/>
<path d="M395.636 93.0908C389.464 93.0908 383.544 95.5428 379.18 99.9072C374.815 104.272 372.363 110.191 372.363 116.364C372.363 122.536 374.815 128.455 379.18 132.82C383.544 137.184 389.464 139.636 395.636 139.636C401.808 139.636 407.728 137.184 412.092 132.82C416.457 128.455 418.909 122.536 418.909 116.364C418.909 110.191 416.457 104.272 412.092 99.9072C407.728 95.5428 401.808 93.0908 395.636 93.0908Z" fill="black"/>
<path fill-rule="evenodd" clip-rule="evenodd" d="M93.0909 0C68.4017 0 44.7236 9.80777 27.2657 27.2657C9.80777 44.7236 0 68.4017 0 93.0909V418.909C0 443.598 9.80777 467.276 27.2657 484.734C44.7236 502.192 68.4017 512 93.0909 512H418.909C443.598 512 467.276 502.192 484.734 484.734C502.192 467.276 512 443.598 512 418.909V93.0909C512 68.4017 502.192 44.7236 484.734 27.2657C467.276 9.80777 443.598 0 418.909 0H93.0909ZM418.909 46.5455H93.0909C80.7463 46.5455 68.9073 51.4493 60.1783 60.1783C51.4493 68.9073 46.5455 80.7463 46.5455 93.0909V418.909C46.5455 431.254 51.4493 443.093 60.1783 451.822C68.9073 460.551 80.7463 465.455 93.0909 465.455H418.909C431.254 465.455 443.093 460.551 451.822 451.822C460.551 443.093 465.455 431.254 465.455 418.909V93.0909C465.455 80.7463 460.551 68.9073 451.822 60.1783C443.093 51.4493 431.254 46.5455 418.909 46.5455Z" fill="black"/>
</g>
<defs>
<clipPath id="clip0_223_401">
<rect width="512" height="512" rx="130" fill="white"/>
</clipPath>
</defs>
</svg>
