<svg width="512" height="512" viewBox="0 0 512 512" fill="none" xmlns="http://www.w3.org/2000/svg">
<g clip-path="url(#clip0_223_392)">
<rect width="512" height="512" rx="130" fill="#33FFCE"/>
<path fill-rule="evenodd" clip-rule="evenodd" d="M6.33157e-06 42.7753C6.33157e-06 31.4306 4.50667 20.5506 12.5286 12.5286C20.5505 4.50672 31.4306 5.70255e-05 42.7753 5.70255e-05H469.178C474.8 -0.00912527 480.369 1.09068 485.565 3.23652C490.762 5.38235 495.484 8.53207 499.462 12.5053C503.439 16.4786 506.594 21.1974 508.746 26.3916C510.897 31.5857 512.003 37.1532 512 42.7753V469.178C512.006 474.801 510.903 480.371 508.755 485.567C506.607 490.764 503.455 495.486 499.48 499.463C495.505 503.441 490.784 506.595 485.589 508.746C480.393 510.897 474.825 512.003 469.201 512H42.7753C37.156 512 31.5918 510.893 26.4005 508.742C21.2093 506.591 16.4927 503.438 12.5204 499.463C8.54801 495.489 5.39769 490.77 3.2494 485.578C1.10111 480.386 -0.00305095 474.821 6.33157e-06 469.201V42.7753ZM202.659 195.212H271.988V230.028C281.996 210.013 307.596 192 346.065 192C419.817 192 437.295 231.866 437.295 305.012V440.506H362.659V321.676C362.659 280.018 352.652 256.512 327.238 256.512C291.98 256.512 277.318 281.856 277.318 321.676V440.506H202.659V195.212ZM74.6589 437.318H149.318V192H74.6589V437.295V437.318ZM160 111.988C160.141 118.381 159.003 124.737 156.654 130.684C154.305 136.631 150.792 142.048 146.321 146.619C141.85 151.19 136.511 154.821 130.617 157.301C124.723 159.78 118.394 161.057 112 161.057C105.606 161.057 99.2765 159.78 93.3829 157.301C87.4892 154.821 82.1501 151.19 77.679 146.619C73.2078 142.048 69.6947 136.631 67.3457 130.684C64.9967 124.737 63.8592 118.381 64 111.988C64.2763 99.441 69.4548 87.5006 78.4264 78.7244C87.3981 69.9481 99.4496 65.0338 112 65.0338C124.55 65.0338 136.602 69.9481 145.574 78.7244C154.545 87.5006 159.724 99.441 160 111.988V111.988Z" fill="black"/>
</g>
<defs>
<clipPath id="clip0_223_392">
<rect width="512" height="512" rx="130" fill="white"/>
</clipPath>
</defs>
</svg>
