<svg width="512" height="512" viewBox="0 0 512 512" fill="none" xmlns="http://www.w3.org/2000/svg">
<g clip-path="url(#clip0_223_382)">
<rect width="512" height="512" rx="130" fill="#33FFCE"/>
<path d="M384 177.843C374.579 181.939 364.467 184.755 353.843 185.984C364.697 179.584 372.992 169.446 376.934 157.389C366.591 163.417 355.305 167.658 343.552 169.933C338.608 164.751 332.66 160.63 326.071 157.822C319.482 155.014 312.391 153.577 305.229 153.6C276.224 153.6 252.723 176.768 252.723 205.312C252.723 209.357 253.184 213.299 254.08 217.088C233.275 216.1 212.905 210.786 194.269 201.486C175.633 192.186 159.14 179.103 145.843 163.072C141.173 170.934 138.714 179.912 138.726 189.056C138.726 206.976 148.019 222.848 162.099 232.09C153.765 231.828 145.609 229.61 138.291 225.613V226.253C138.37 238.271 142.612 249.89 150.295 259.132C157.978 268.374 168.627 274.668 180.429 276.941C172.681 278.989 164.574 279.287 156.697 277.811C160.131 288.15 166.699 297.164 175.488 303.6C184.278 310.036 194.854 313.576 205.747 313.728C187.058 328.129 164.112 335.91 140.518 335.846C136.294 335.846 132.121 335.59 128 335.13C152.076 350.369 179.992 358.44 208.486 358.4C305.101 358.4 357.913 279.603 357.913 211.251L357.734 204.544C368.033 197.306 376.932 188.259 384 177.843Z" fill="black"/>
<path d="M102.4 51.2C88.8209 51.2 75.798 56.5943 66.1961 66.1961C56.5943 75.798 51.2 88.8209 51.2 102.4V409.6C51.2 423.179 56.5943 436.202 66.1961 445.804C75.798 455.406 88.8209 460.8 102.4 460.8H409.6C423.179 460.8 436.202 455.406 445.804 445.804C455.406 436.202 460.8 423.179 460.8 409.6V102.4C460.8 88.8209 455.406 75.798 445.804 66.1961C436.202 56.5943 423.179 51.2 409.6 51.2H102.4ZM102.4 0H409.6C436.758 0 462.804 10.7885 482.008 29.9923C501.211 49.196 512 75.2418 512 102.4V409.6C512 436.758 501.211 462.804 482.008 482.008C462.804 501.211 436.758 512 409.6 512H102.4C75.2418 512 49.196 501.211 29.9923 482.008C10.7885 462.804 0 436.758 0 409.6V102.4C0 75.2418 10.7885 49.196 29.9923 29.9923C49.196 10.7885 75.2418 0 102.4 0V0Z" fill="black"/>
</g>
<defs>
<clipPath id="clip0_223_382">
<rect width="512" height="512" rx="130" fill="white"/>
</clipPath>
</defs>
</svg>
