<svg xmlns="http://www.w3.org/2000/svg" xmlns:xlink="http://www.w3.org/1999/xlink" width="1048" zoomAndPan="magnify" viewBox="0 0 786 785.999994" height="1048" preserveAspectRatio="xMidYMid meet" version="1.0"><defs><clipPath id="6a628b492e"><path d="M 120.328125 78.601562 L 665.578125 78.601562 L 665.578125 707.101562 L 120.328125 707.101562 Z M 120.328125 78.601562 " clip-rule="nonzero"/></clipPath></defs><g clip-path="url(#6a628b492e)"><path fill="#33ffce" d="M 662.9375 299.203125 L 662.898438 299.140625 C 662.039062 297.527344 660.925781 296 659.605469 294.59375 L 659.25 294.238281 C 659.25 294.238281 537.492188 172.519531 537.492188 172.519531 C 536.632812 171.09375 535.605469 169.773438 534.433594 168.582031 C 530.492188 164.621094 525.148438 162.398438 519.554688 162.398438 L 225.300781 162.398438 C 213.734375 162.398438 204.34375 171.785156 204.34375 183.351562 L 204.34375 686.148438 C 204.34375 697.714844 213.734375 707.101562 225.300781 707.101562 L 644.433594 707.101562 C 656 707.101562 665.390625 697.714844 665.390625 686.148438 L 665.390625 309.050781 C 665.390625 305.488281 664.511719 302.136719 662.9375 299.203125 Z M 497.738281 308.902344 C 497.695312 314.496094 499.894531 319.859375 503.816406 323.820312 C 507.753906 327.78125 513.121094 330 518.695312 330 L 623.476562 330 C 623.476562 330 623.476562 665.199219 623.476562 665.199219 C 623.476562 665.199219 246.257812 665.199219 246.257812 665.199219 C 246.257812 665.199219 246.257812 204.300781 246.257812 204.300781 C 246.257812 204.300781 498.449219 204.300781 498.449219 204.300781 C 498.449219 204.300781 497.738281 308.902344 497.738281 308.902344 Z M 476.78125 78.601562 L 141.476562 78.601562 C 129.90625 78.601562 120.519531 87.984375 120.519531 99.550781 L 120.519531 602.351562 C 120.519531 613.914062 129.90625 623.300781 141.476562 623.300781 C 153.042969 623.300781 162.433594 613.914062 162.433594 602.351562 L 162.433594 120.5 C 162.433594 120.5 476.78125 120.5 476.78125 120.5 C 488.347656 120.5 497.738281 111.113281 497.738281 99.550781 C 497.738281 87.984375 488.347656 78.601562 476.78125 78.601562 Z M 309.128906 527.539062 L 539.652344 527.539062 C 551.21875 527.539062 560.605469 518.132812 560.605469 506.585938 C 560.605469 495.023438 551.21875 485.636719 539.652344 485.636719 L 309.128906 485.636719 C 297.558594 485.636719 288.171875 495.023438 288.171875 506.585938 C 288.171875 518.132812 297.558594 527.539062 309.128906 527.539062 Z M 309.128906 455.699219 L 476.78125 455.699219 C 488.347656 455.699219 497.738281 446.316406 497.738281 434.75 C 497.738281 423.1875 488.347656 413.800781 476.78125 413.800781 L 309.128906 413.800781 C 297.558594 413.800781 288.171875 423.1875 288.171875 434.75 C 288.171875 446.316406 297.558594 455.699219 309.128906 455.699219 Z M 309.128906 383.863281 L 434.867188 383.863281 C 446.4375 383.863281 455.824219 374.476562 455.824219 362.914062 C 455.824219 351.367188 446.4375 341.960938 434.867188 341.960938 L 309.128906 341.960938 C 297.558594 341.960938 288.171875 351.367188 288.171875 362.914062 C 288.171875 374.476562 297.558594 383.863281 309.128906 383.863281 Z M 539.796875 288.101562 L 593.84375 288.101562 L 540.152344 234.445312 Z M 539.796875 288.101562 " fill-opacity="1" fill-rule="evenodd"/></g></svg>