<svg xmlns="http://www.w3.org/2000/svg" xmlns:xlink="http://www.w3.org/1999/xlink" width="1048" zoomAndPan="magnify" viewBox="0 0 786 785.999994" height="1048" preserveAspectRatio="xMidYMid meet" version="1.0"><defs><clipPath id="84001b3a37"><path d="M 164.1875 401 L 470 401 L 470 707.101562 L 164.1875 707.101562 Z M 164.1875 401 " clip-rule="nonzero"/></clipPath><clipPath id="c63735ce32"><path d="M 471 352 L 621.6875 352 L 621.6875 503 L 471 503 Z M 471 352 " clip-rule="nonzero"/></clipPath><clipPath id="4aaf281ddd"><path d="M 212 78.601562 L 479 78.601562 L 479 345 L 212 345 Z M 212 78.601562 " clip-rule="nonzero"/></clipPath></defs><g clip-path="url(#84001b3a37)"><path fill="#33ffce" d="M 310.886719 476.769531 C 343.289062 473.914062 372.628906 492.632812 385.800781 518.046875 C 411.496094 567.609375 378.21875 627.425781 323.261719 631.609375 C 297.953125 633.535156 277.917969 623.441406 265.132812 612.035156 C 233.785156 584.066406 230.054688 534.632812 259.113281 502.484375 C 270.15625 490.265625 286.652344 478.910156 310.886719 476.769531 Z M 458.695312 490.027344 L 452.566406 477.890625 L 445.34375 478.554688 L 424.054688 480.617188 C 421.691406 478.660156 420.179688 475.589844 418.421875 473.429688 C 413.714844 467.644531 405.691406 458.816406 400.054688 454.769531 C 399.765625 450.585938 404.53125 433.003906 405.238281 426.335938 C 399.332031 420.621094 378.269531 411.09375 369.546875 407.917969 C 357.136719 403.402344 359.492188 403.316406 352.980469 411.4375 L 341.007812 426.460938 C 335.878906 426.542969 329.0625 425 323.25 424.800781 C 316.984375 424.582031 311.011719 424.949219 304.917969 424.984375 L 288.582031 401.363281 C 280.738281 401.40625 259.902344 409.175781 251.464844 413.15625 C 249.691406 413.996094 247.8125 414.945312 245.914062 415.9375 C 244.292969 416.785156 242.234375 418.042969 240.484375 418.660156 L 243.496094 447.449219 L 231.679688 456.695312 C 212.203125 474.414062 222.101562 472.128906 206.523438 469.382812 C 202.039062 468.59375 192.84375 466.121094 188.851562 466.148438 C 183.71875 474.457031 181.234375 477.429688 176.632812 487.363281 C 174.0625 492.914062 168.207031 506.171875 167.480469 512.511719 C 168.960938 514 170.953125 515.449219 172.878906 516.972656 C 174.84375 518.523438 176.339844 519.90625 178.296875 521.476562 C 182.070312 524.503906 185.460938 527.488281 189.203125 530.371094 C 189.496094 534.515625 187.851562 542.535156 187.652344 547.492188 C 187.394531 553.820312 187.738281 559.96875 187.796875 566.246094 C 187.265625 567.691406 167.46875 579.179688 164.1875 582.585938 C 164.460938 593.140625 178.585938 629.039062 181.796875 630.476562 C 188.734375 630.714844 200.625 628.652344 208.011719 627.855469 C 210.96875 627.535156 212.132812 630.125 215.351562 634.308594 C 217.496094 637.09375 219.75 639.644531 221.914062 642.105469 C 224.164062 644.664062 226.476562 647.078125 229.003906 649.359375 C 234.761719 654.558594 234.464844 652.851562 233.46875 658.203125 C 232.71875 662.222656 231.941406 666.070312 231.140625 670.152344 C 230.46875 673.578125 228.972656 679.09375 228.914062 682.195312 C 238.398438 689.226562 264 702.375 275.480469 703.726562 C 281.746094 696.78125 287.261719 688.96875 293.226562 681.820312 C 298.8125 682.113281 304.722656 683.171875 310.75 683.554688 C 317.242188 683.96875 323.046875 683.597656 329.34375 683.398438 L 345.160156 707.097656 C 351.730469 706.730469 365.042969 702.449219 371 700.089844 C 375.007812 698.503906 378.960938 696.90625 382.765625 695.109375 C 385.402344 693.863281 391.535156 691.066406 393.570312 689.398438 L 390.640625 661.113281 C 394.683594 657.566406 398.570312 655.015625 402.265625 651.664062 C 406.136719 648.15625 409.484375 645.316406 412.820312 641.503906 C 416.34375 637.472656 415.949219 636.886719 418.925781 637.359375 C 424.859375 638.300781 442.074219 642.339844 445.101562 642.257812 C 449.496094 635.632812 453.957031 628.625 457.53125 620.847656 C 459.773438 615.964844 466.257812 600.941406 466.566406 595.800781 C 463.15625 592.90625 459.40625 589.507812 455.769531 586.742188 C 453.886719 585.316406 452.109375 583.746094 450.28125 582.265625 C 441.175781 574.894531 445.738281 581.070312 446.441406 560.265625 C 446.652344 554.027344 446.246094 548.066406 446.195312 542.113281 L 466.136719 528.613281 C 470.71875 525.464844 470.210938 526.265625 469.464844 522.871094 C 466.992188 511.617188 463.535156 499.394531 458.695312 490.027344 Z M 458.695312 490.027344 " fill-opacity="1" fill-rule="evenodd"/></g><g clip-path="url(#c63735ce32)"><path fill="#298463" d="M 543.402344 389.636719 C 559.273438 388.234375 573.644531 397.40625 580.097656 409.851562 C 592.679688 434.128906 576.382812 463.425781 549.464844 465.472656 C 537.070312 466.417969 527.253906 461.472656 520.992188 455.886719 C 505.636719 442.1875 503.8125 417.976562 518.042969 402.230469 C 523.453125 396.246094 531.53125 390.683594 543.402344 389.636719 Z M 615.800781 396.128906 L 612.796875 390.183594 L 609.261719 390.507812 L 598.832031 391.519531 C 597.675781 390.558594 596.933594 389.054688 596.074219 387.996094 C 593.769531 385.164062 589.839844 380.839844 587.078125 378.859375 C 586.9375 376.808594 589.269531 368.199219 589.617188 364.933594 C 586.722656 362.132812 576.40625 357.46875 572.132812 355.910156 C 566.054688 353.699219 567.210938 353.65625 564.019531 357.632812 L 558.15625 364.992188 C 555.644531 365.035156 552.304688 364.277344 549.457031 364.179688 C 546.390625 364.074219 543.464844 364.253906 540.480469 364.269531 L 532.476562 352.699219 C 528.636719 352.722656 518.433594 356.527344 514.300781 358.476562 C 513.429688 358.886719 512.511719 359.351562 511.578125 359.839844 C 510.785156 360.253906 509.777344 360.871094 508.921875 361.171875 L 510.394531 375.273438 L 504.609375 379.800781 C 495.070312 388.480469 499.914062 387.359375 492.285156 386.015625 C 490.089844 385.628906 485.585938 384.417969 483.628906 384.433594 C 481.117188 388.5 479.902344 389.957031 477.648438 394.820312 C 476.386719 397.542969 473.519531 404.035156 473.164062 407.140625 C 473.890625 407.871094 474.863281 408.578125 475.808594 409.324219 C 476.769531 410.085938 477.5 410.761719 478.460938 411.53125 C 480.308594 413.015625 481.972656 414.476562 483.800781 415.886719 C 483.945312 417.917969 483.140625 421.847656 483.042969 424.273438 C 482.917969 427.371094 483.085938 430.382812 483.113281 433.457031 C 482.851562 434.167969 473.15625 439.792969 471.550781 441.464844 C 471.683594 446.632812 478.601562 464.214844 480.175781 464.917969 C 483.574219 465.035156 489.398438 464.027344 493.015625 463.636719 C 494.464844 463.476562 495.035156 464.746094 496.609375 466.796875 C 497.660156 468.160156 498.761719 469.410156 499.824219 470.613281 C 500.925781 471.867188 502.058594 473.050781 503.296875 474.167969 C 506.117188 476.714844 505.972656 475.878906 505.484375 478.5 C 505.117188 480.46875 504.738281 482.351562 504.34375 484.351562 C 504.015625 486.03125 503.28125 488.730469 503.253906 490.25 C 507.898438 493.695312 520.4375 500.136719 526.0625 500.796875 C 529.128906 497.394531 531.832031 493.566406 534.753906 490.066406 C 537.488281 490.210938 540.382812 490.730469 543.335938 490.917969 C 546.515625 491.121094 549.359375 490.9375 552.445312 490.839844 L 560.191406 502.449219 C 563.410156 502.269531 569.929688 500.171875 572.847656 499.015625 C 574.808594 498.238281 576.746094 497.457031 578.609375 496.578125 C 579.898438 495.964844 582.90625 494.597656 583.902344 493.777344 L 582.464844 479.925781 C 584.445312 478.1875 586.347656 476.9375 588.160156 475.296875 C 590.058594 473.578125 591.695312 472.1875 593.328125 470.320312 C 595.054688 468.34375 594.863281 468.058594 596.320312 468.289062 C 599.226562 468.75 607.660156 470.730469 609.140625 470.6875 C 611.292969 467.445312 613.476562 464.011719 615.230469 460.203125 C 616.328125 457.8125 619.503906 450.453125 619.652344 447.9375 C 617.984375 446.515625 616.148438 444.851562 614.367188 443.5 C 613.445312 442.800781 612.574219 442.03125 611.675781 441.304688 C 607.21875 437.695312 609.453125 440.71875 609.796875 430.53125 C 609.902344 427.476562 609.699219 424.554688 609.675781 421.640625 L 619.445312 415.027344 C 621.6875 413.484375 621.4375 413.875 621.074219 412.214844 C 619.863281 406.703125 618.171875 400.714844 615.800781 396.128906 Z M 615.800781 396.128906 " fill-opacity="1" fill-rule="evenodd"/></g><g clip-path="url(#4aaf281ddd)"><path fill="#33ffce" d="M 340.398438 144.296875 C 368.621094 141.804688 394.183594 158.113281 405.65625 180.25 C 428.039062 223.429688 399.050781 275.539062 351.175781 279.183594 C 329.128906 280.859375 311.675781 272.066406 300.539062 262.128906 C 273.226562 237.765625 269.976562 194.703125 295.292969 166.695312 C 304.914062 156.050781 319.28125 146.15625 340.398438 144.296875 Z M 469.160156 155.84375 L 463.820312 145.269531 L 457.527344 145.851562 L 438.980469 147.648438 C 436.921875 145.941406 435.605469 143.265625 434.074219 141.382812 C 429.976562 136.34375 422.984375 128.652344 418.074219 125.125 C 417.824219 121.480469 421.972656 106.167969 422.589844 100.359375 C 417.445312 95.378906 399.097656 87.082031 391.496094 84.316406 C 380.6875 80.378906 382.738281 80.304688 377.066406 87.378906 L 366.636719 100.464844 C 362.167969 100.539062 356.230469 99.195312 351.167969 99.019531 C 345.707031 98.832031 340.503906 99.148438 335.195312 99.183594 L 320.964844 78.601562 C 314.132812 78.640625 295.980469 85.410156 288.632812 88.878906 C 287.085938 89.609375 285.449219 90.433594 283.796875 91.300781 C 282.382812 92.039062 280.589844 93.132812 279.066406 93.671875 L 281.6875 118.75 L 271.394531 126.808594 C 254.429688 142.238281 263.050781 140.25 249.480469 137.859375 C 245.574219 137.171875 237.5625 135.015625 234.082031 135.042969 C 229.613281 142.277344 227.449219 144.871094 223.441406 153.519531 C 221.199219 158.355469 216.101562 169.910156 215.46875 175.429688 C 216.757812 176.726562 218.492188 177.988281 220.171875 179.316406 C 221.882812 180.667969 223.183594 181.871094 224.890625 183.242188 C 228.179688 185.878906 231.132812 188.476562 234.390625 190.988281 C 234.644531 194.601562 233.214844 201.585938 233.039062 205.90625 C 232.816406 211.414062 233.117188 216.773438 233.167969 222.238281 C 232.703125 223.5 215.457031 233.507812 212.597656 236.476562 C 212.835938 245.671875 225.144531 276.941406 227.9375 278.195312 C 233.984375 278.402344 244.339844 276.605469 250.777344 275.910156 C 253.351562 275.632812 254.367188 277.886719 257.171875 281.535156 C 259.039062 283.960938 261 286.179688 262.886719 288.324219 C 264.847656 290.554688 266.863281 292.65625 269.066406 294.644531 C 274.082031 299.175781 273.820312 297.683594 272.953125 302.347656 C 272.300781 305.851562 271.625 309.199219 270.925781 312.757812 C 270.339844 315.742188 269.035156 320.546875 268.984375 323.25 C 277.25 329.375 299.550781 340.832031 309.554688 342.007812 C 315.011719 335.957031 319.8125 329.148438 325.011719 322.921875 C 329.878906 323.179688 335.027344 324.101562 340.277344 324.433594 C 345.933594 324.796875 350.988281 324.472656 356.476562 324.296875 L 370.253906 344.945312 C 375.976562 344.625 387.574219 340.894531 392.761719 338.839844 C 396.257812 337.457031 399.699219 336.066406 403.011719 334.5 C 405.308594 333.414062 410.652344 330.980469 412.425781 329.523438 L 409.871094 304.882812 C 413.394531 301.796875 416.78125 299.570312 420 296.652344 C 423.375 293.597656 426.289062 291.121094 429.195312 287.800781 C 432.265625 284.289062 431.921875 283.78125 434.515625 284.191406 C 439.683594 285.011719 454.679688 288.53125 457.316406 288.457031 C 461.144531 282.683594 465.03125 276.582031 468.144531 269.804688 C 470.097656 265.554688 475.75 252.464844 476.015625 247.988281 C 473.042969 245.464844 469.777344 242.503906 466.609375 240.097656 C 464.972656 238.851562 463.421875 237.484375 461.828125 236.195312 C 453.898438 229.773438 457.871094 235.152344 458.484375 217.03125 C 458.667969 211.597656 458.3125 206.402344 458.269531 201.21875 L 475.640625 189.457031 C 479.632812 186.714844 479.191406 187.410156 478.542969 184.457031 C 476.386719 174.652344 473.375 164.003906 469.160156 155.84375 Z M 469.160156 155.84375 " fill-opacity="1" fill-rule="evenodd"/></g></svg>