<svg xmlns="http://www.w3.org/2000/svg" xmlns:xlink="http://www.w3.org/1999/xlink" width="1048" zoomAndPan="magnify" viewBox="0 0 786 785.999994" height="1048" preserveAspectRatio="xMidYMid meet" version="1.0"><defs><clipPath id="b5bfd6a22b"><path d="M 81 93.925781 L 704 93.925781 L 704 692.425781 L 81 692.425781 Z M 81 93.925781 " clip-rule="nonzero"/></clipPath></defs><g clip-path="url(#b5bfd6a22b)"><path fill="#33ffce" d="M 305.203125 93.925781 L 290.488281 169.441406 C 265.738281 178.777344 243.164062 191.765625 223.40625 208.015625 L 150.949219 183.058594 L 81.179688 304.046875 L 139.15625 354.542969 C 136.855469 368.636719 135.769531 381.265625 135.769531 393.175781 C 135.769531 404.996094 136.886719 417.65625 139.15625 431.871094 L 81.179688 482.367188 L 150.949219 603.296875 L 223.347656 578.339844 C 243.167969 594.617188 265.769531 607.636719 290.488281 616.972656 L 305.203125 692.425781 L 345.019531 692.425781 L 345.019531 584.125 L 342.800781 572.726562 L 311.625 560.921875 C 293.003906 553.886719 276.09375 544.199219 261.296875 532.046875 L 235.492188 510.832031 L 178.042969 530.644531 L 157.605469 495.109375 L 203.496094 455.132812 L 198.183594 422.34375 C 196.421875 411.359375 195.558594 401.796875 195.558594 393.175781 C 195.558594 384.5 196.421875 374.992188 198.183594 364.070312 L 203.496094 331.222656 L 157.546875 291.246094 L 178.042969 255.710938 L 235.433594 275.523438 L 261.296875 254.304688 C 276.035156 242.15625 293.03125 232.464844 311.683594 225.433594 L 342.800781 213.628906 L 354.480469 153.777344 L 395.40625 153.777344 L 407.027344 213.628906 L 438.203125 225.433594 C 456.828125 232.464844 473.792969 242.15625 488.589844 254.304688 L 514.394531 275.523438 L 571.785156 255.710938 L 592.28125 291.246094 L 546.390625 331.164062 L 551.644531 364.011719 L 551.644531 364.128906 C 553.40625 375.023438 554.273438 384.5 554.273438 393.175781 C 554.273438 401.855469 553.40625 411.363281 551.644531 422.285156 L 546.332031 455.132812 L 578.269531 482.953125 L 668.296875 482.953125 L 668.648438 482.308594 L 610.671875 431.8125 C 612.941406 417.714844 614.058594 405.085938 614.058594 393.175781 C 614.058594 381.265625 612.972656 368.609375 610.671875 354.484375 L 668.648438 303.988281 L 598.878906 183.058594 L 526.480469 208.015625 C 506.660156 191.738281 484.058594 178.71875 459.339844 169.382812 L 444.625 93.925781 Z M 374.914062 273.476562 C 309.253906 273.476562 255.34375 327.445312 255.34375 393.175781 C 255.34375 458.90625 309.253906 512.878906 374.914062 512.878906 C 440.574219 512.878906 494.484375 458.90625 494.484375 393.175781 C 494.484375 327.445312 440.574219 273.476562 374.914062 273.476562 Z M 374.914062 333.328125 C 408.140625 333.328125 434.699219 359.917969 434.699219 393.175781 C 434.699219 426.4375 408.140625 453.027344 374.914062 453.027344 C 341.6875 453.027344 315.128906 426.4375 315.128906 393.175781 C 315.128906 359.917969 341.6875 333.328125 374.914062 333.328125 Z M 445.035156 542.800781 L 404.808594 692.425781 L 436.277344 692.425781 L 443.984375 662.503906 L 484.851562 662.503906 L 492.617188 692.425781 L 524.378906 692.425781 L 483.917969 542.800781 Z M 554.273438 542.800781 L 554.273438 692.425781 L 584.164062 692.425781 L 584.164062 632.578125 L 599.109375 632.578125 C 623.863281 632.578125 643.949219 612.46875 643.949219 587.691406 C 643.949219 562.910156 623.863281 542.800781 599.109375 542.800781 Z M 673.84375 542.800781 L 673.84375 692.425781 L 703.734375 692.425781 L 703.734375 542.800781 Z M 584.164062 572.726562 L 599.109375 572.726562 C 607.363281 572.726562 614.058594 579.429688 614.058594 587.691406 C 614.058594 595.949219 607.363281 602.652344 599.109375 602.652344 L 584.164062 602.652344 Z M 464.359375 583.304688 L 477.144531 632.578125 L 451.691406 632.578125 Z M 464.359375 583.304688 " fill-opacity="1" fill-rule="nonzero"/></g></svg>