<svg xmlns="http://www.w3.org/2000/svg" xmlns:xlink="http://www.w3.org/1999/xlink" width="500" zoomAndPan="magnify" viewBox="0 0 375 374.999991" height="500" preserveAspectRatio="xMidYMid meet" version="1.0"><defs><clipPath id="5bb1e2c599"><path d="M 47.0625 132 L 261 132 L 261 347 L 47.0625 347 Z M 47.0625 132 " clip-rule="nonzero"/></clipPath><clipPath id="6209a70d67"><path d="M 237 106 L 354.5625 106 L 354.5625 223 L 237 223 Z M 237 106 " clip-rule="nonzero"/></clipPath></defs><g clip-path="url(#5bb1e2c599)"><path fill="#111111" d="M 257.679688 223.519531 L 236.675781 216.707031 C 234.972656 209.894531 232.132812 203.652344 228.726562 197.40625 L 238.945312 177.539062 C 240.082031 175.835938 239.511719 174.132812 238.378906 172.429688 L 220.777344 155.398438 C 219.644531 154.261719 217.371094 153.695312 215.667969 154.828125 L 195.800781 165.046875 C 189.554688 161.640625 183.3125 158.804688 177.066406 157.101562 L 170.253906 135.527344 C 169.6875 133.824219 167.984375 132.6875 166.28125 132.6875 L 141.300781 132.6875 C 139.597656 132.6875 137.894531 133.824219 137.328125 135.527344 L 130.515625 157.101562 C 123.703125 158.804688 117.457031 161.640625 111.78125 165.046875 L 91.910156 154.828125 C 90.207031 153.695312 88.503906 154.261719 86.800781 155.398438 L 69.203125 172.996094 C 68.066406 174.132812 67.5 176.402344 68.636719 178.105469 L 78.855469 197.972656 C 75.449219 204.21875 72.609375 210.464844 70.90625 217.277344 L 49.902344 223.519531 C 48.199219 224.089844 47.0625 225.792969 47.0625 227.496094 L 47.0625 252.472656 C 47.0625 254.175781 48.199219 255.878906 49.902344 256.445312 L 70.90625 263.257812 C 72.609375 270.070312 75.449219 276.316406 78.855469 282.5625 L 68.636719 301.863281 C 67.5 303.566406 68.066406 305.269531 69.203125 306.972656 L 86.800781 324.570312 C 87.9375 325.707031 90.207031 326.273438 91.910156 325.140625 L 111.214844 314.921875 C 117.457031 318.328125 123.703125 321.164062 130.515625 322.867188 L 137.328125 343.871094 C 137.894531 345.574219 139.597656 346.710938 141.300781 346.710938 L 166.28125 346.710938 C 167.984375 346.710938 169.6875 345.574219 170.253906 343.871094 L 177.066406 322.867188 C 183.878906 321.164062 190.125 318.328125 196.367188 314.921875 L 215.667969 325.140625 C 217.371094 326.273438 219.074219 325.707031 220.777344 324.570312 L 238.378906 306.972656 C 239.511719 305.835938 240.082031 303.566406 238.945312 301.863281 L 228.726562 282.5625 C 232.132812 276.316406 234.972656 270.070312 236.675781 263.257812 L 257.679688 256.445312 C 259.382812 255.878906 260.519531 254.175781 260.519531 252.472656 L 260.519531 227.496094 C 260.519531 225.792969 259.382812 224.089844 257.679688 223.519531 Z M 252.003906 249.066406 L 231.566406 255.3125 C 230.429688 255.878906 229.292969 257.015625 228.726562 258.148438 C 227.023438 265.53125 223.617188 272.910156 220.210938 279.722656 C 219.644531 280.859375 219.644531 282.5625 220.210938 283.695312 L 229.863281 302.429688 L 216.804688 315.488281 L 198.070312 305.835938 C 196.9375 305.269531 195.234375 305.269531 194.097656 305.835938 C 187.285156 309.8125 180.472656 312.648438 172.523438 314.921875 C 170.820312 315.488281 169.6875 316.625 169.6875 317.757812 L 163.441406 338.195312 L 144.707031 338.195312 L 137.894531 318.328125 C 137.328125 317.191406 136.191406 316.054688 135.054688 315.488281 C 127.675781 313.785156 120.296875 310.378906 113.484375 306.40625 C 112.347656 305.835938 110.644531 305.835938 109.511719 306.40625 L 90.777344 316.054688 L 77.71875 303 L 87.371094 284.265625 C 87.9375 283.128906 87.9375 281.425781 87.371094 280.289062 C 83.394531 273.476562 80.558594 266.664062 78.855469 258.71875 C 78.285156 257.015625 77.152344 255.878906 76.015625 255.878906 L 55.578125 249.636719 L 55.578125 230.902344 L 76.015625 224.65625 C 77.152344 224.089844 78.285156 222.953125 78.855469 221.816406 C 80.558594 214.4375 83.964844 207.058594 87.371094 200.8125 C 87.9375 199.675781 87.9375 197.972656 87.371094 196.839844 L 77.152344 177.539062 L 90.207031 164.480469 L 109.511719 174.699219 C 110.644531 175.265625 112.347656 175.265625 113.484375 174.699219 C 119.730469 170.726562 127.109375 167.886719 134.488281 166.183594 C 136.191406 165.617188 137.328125 164.480469 137.328125 163.34375 L 143.570312 142.90625 L 162.304688 142.90625 L 168.550781 163.34375 C 169.117188 164.480469 170.253906 165.617188 171.390625 166.183594 C 178.769531 167.886719 186.148438 170.726562 192.394531 174.699219 C 193.53125 175.265625 195.234375 175.265625 196.367188 174.699219 L 215.667969 164.480469 L 228.726562 177.539062 L 218.507812 196.839844 C 217.941406 197.972656 217.941406 199.675781 218.507812 200.8125 C 222.480469 207.625 225.320312 214.4375 227.023438 221.816406 C 227.589844 223.519531 228.726562 224.65625 229.863281 224.65625 L 250.300781 230.902344 L 250.300781 249.066406 Z M 252.003906 249.066406 " fill-opacity="1" fill-rule="nonzero"/></g><path fill="#111111" d="M 153.789062 181.511719 C 121.433594 181.511719 95.316406 207.625 95.316406 239.984375 C 95.316406 272.34375 121.433594 298.457031 153.789062 298.457031 C 186.148438 298.457031 212.261719 272.34375 212.261719 239.984375 C 212.261719 208.191406 186.148438 181.511719 153.789062 181.511719 Z M 153.789062 289.941406 C 125.972656 289.941406 103.832031 267.800781 103.832031 239.984375 C 103.832031 212.167969 125.972656 190.027344 153.789062 190.027344 C 181.609375 190.027344 203.746094 212.167969 203.746094 239.984375 C 203.746094 267.800781 181.039062 289.941406 153.789062 289.941406 Z M 153.789062 289.941406 " fill-opacity="1" fill-rule="nonzero"/><path fill="#111111" d="M 135.054688 76.488281 L 146.976562 83.300781 C 146.976562 87.273438 147.546875 91.816406 148.679688 95.789062 L 139.597656 106.007812 C 138.460938 107.140625 138.460938 109.414062 139.03125 111.117188 L 147.546875 124.742188 C 148.679688 126.445312 150.382812 127.011719 152.085938 126.445312 L 165.144531 123.039062 C 167.984375 125.875 171.390625 128.148438 175.363281 130.417969 L 176.5 144.042969 C 176.5 145.746094 178.203125 147.449219 179.90625 148.015625 L 195.800781 151.992188 L 196.9375 151.992188 C 198.640625 151.992188 199.773438 151.421875 200.34375 149.71875 L 207.152344 137.796875 C 211.128906 137.796875 215.667969 137.230469 219.644531 136.09375 L 229.863281 145.179688 C 230.996094 146.3125 233.269531 146.3125 234.972656 145.746094 L 248.597656 137.230469 C 250.300781 136.09375 250.867188 134.390625 250.300781 132.6875 L 246.894531 119.632812 C 249.730469 116.792969 252.003906 113.386719 254.273438 109.414062 L 267.898438 108.277344 C 269.601562 108.277344 271.304688 106.574219 271.871094 104.871094 L 275.847656 88.976562 C 276.414062 87.273438 275.277344 85.003906 274.144531 84.433594 L 262.222656 77.054688 C 262.222656 73.082031 261.652344 69.105469 260.519531 65.132812 L 269.601562 54.914062 C 270.738281 53.777344 270.738281 51.507812 270.167969 49.804688 L 261.652344 36.179688 C 260.519531 34.476562 258.816406 33.910156 257.113281 34.476562 L 243.488281 37.882812 C 240.648438 35.042969 237.242188 32.773438 233.835938 30.503906 L 232.699219 16.878906 C 232.699219 15.175781 230.996094 13.472656 229.292969 12.90625 L 213.398438 8.929688 C 211.695312 8.363281 209.425781 9.5 208.855469 10.632812 L 201.476562 22.554688 C 197.503906 22.554688 193.53125 23.125 189.554688 24.257812 L 179.335938 15.175781 C 178.203125 14.039062 175.929688 14.039062 174.226562 14.609375 L 160.601562 23.691406 C 158.898438 24.828125 158.332031 26.527344 158.898438 28.230469 L 161.738281 41.855469 C 158.898438 44.695312 156.628906 48.101562 154.359375 51.507812 L 140.734375 52.644531 C 139.03125 52.644531 137.328125 54.347656 136.757812 56.050781 L 132.785156 71.945312 C 132.785156 73.648438 133.351562 75.351562 135.054688 76.488281 Z M 144.707031 61.160156 L 157.765625 60.589844 C 159.46875 60.589844 160.601562 59.457031 161.171875 58.320312 C 163.441406 53.777344 166.28125 49.804688 169.6875 46.398438 C 170.820312 45.261719 171.390625 43.558594 170.820312 42.425781 L 167.984375 29.933594 L 176.5 24.828125 L 186.148438 33.339844 C 187.285156 34.476562 188.988281 34.476562 190.125 34.476562 C 194.664062 32.773438 199.773438 32.207031 204.316406 32.207031 C 206.019531 32.207031 207.152344 31.636719 207.722656 29.933594 L 214.535156 18.582031 L 224.183594 20.851562 L 225.320312 33.910156 C 225.320312 35.613281 226.457031 36.746094 227.589844 37.316406 C 232.132812 39.585938 235.539062 42.425781 239.511719 45.832031 C 240.082031 46.964844 241.785156 47.535156 243.488281 46.964844 L 255.976562 43.558594 L 261.085938 52.074219 L 252.570312 61.726562 C 251.433594 63.429688 251.433594 64.566406 251.433594 66.269531 C 253.136719 70.808594 253.707031 75.917969 253.707031 80.460938 C 253.707031 82.164062 254.273438 83.300781 255.976562 83.867188 L 267.332031 90.679688 L 265.058594 100.332031 L 252.003906 100.898438 C 250.300781 100.898438 249.164062 102.035156 248.597656 103.167969 C 246.324219 107.710938 243.488281 111.683594 240.082031 115.089844 C 238.945312 116.226562 238.378906 117.929688 238.945312 119.0625 L 241.785156 131.554688 L 233.269531 136.664062 L 223.617188 128.148438 C 222.480469 127.011719 220.777344 127.011719 219.644531 127.011719 C 215.101562 128.714844 209.992188 129.28125 204.882812 129.28125 C 203.179688 129.28125 202.046875 129.851562 201.476562 131.554688 L 194.664062 143.476562 L 185.015625 141.203125 L 184.445312 128.148438 C 184.445312 126.445312 183.3125 125.308594 182.175781 124.742188 C 177.632812 122.46875 173.660156 119.632812 170.253906 116.226562 C 169.117188 115.089844 167.414062 114.523438 166.28125 115.089844 L 153.789062 117.929688 L 148.679688 109.414062 L 157.195312 99.761719 C 158.332031 98.628906 158.332031 96.925781 158.332031 95.789062 C 156.628906 91.246094 156.0625 86.136719 156.0625 81.027344 C 156.0625 79.324219 155.492188 78.191406 153.789062 77.621094 L 143.003906 70.808594 Z M 144.707031 61.160156 " fill-opacity="1" fill-rule="nonzero"/><path fill="#111111" d="M 195.234375 119.632812 C 198.070312 120.199219 201.476562 120.765625 204.882812 120.765625 C 223.050781 120.765625 238.945312 108.277344 243.488281 90.679688 C 245.757812 80.460938 244.621094 69.675781 238.945312 60.589844 C 233.269531 51.507812 224.753906 45.261719 214.535156 42.425781 C 211.695312 41.855469 208.289062 41.289062 204.882812 41.289062 C 186.71875 41.289062 170.820312 53.777344 166.28125 71.378906 C 164.007812 81.597656 165.144531 92.382812 170.820312 101.464844 C 176.5 110.546875 185.015625 116.792969 195.234375 119.632812 Z M 174.226562 73.648438 C 177.632812 59.457031 190.125 49.804688 204.316406 49.804688 C 206.585938 49.804688 209.425781 50.371094 211.695312 50.941406 C 219.644531 52.644531 226.457031 57.753906 230.996094 65.132812 C 235.539062 72.511719 236.675781 80.460938 234.402344 88.976562 C 230.996094 103.167969 218.507812 112.820312 204.316406 112.820312 C 202.046875 112.820312 199.207031 112.25 196.9375 111.683594 C 188.988281 109.414062 182.175781 104.304688 177.632812 96.925781 C 173.660156 90.113281 171.957031 81.597656 174.226562 73.648438 Z M 174.226562 73.648438 " fill-opacity="1" fill-rule="nonzero"/><g clip-path="url(#6209a70d67)"><path fill="#111111" d="M 351.351562 162.210938 L 341.699219 157.667969 C 341.132812 154.828125 340.5625 151.992188 339.429688 149.152344 L 345.671875 140.636719 C 346.808594 138.933594 346.808594 137.230469 345.671875 135.527344 L 337.726562 125.308594 C 336.589844 123.605469 334.886719 123.039062 332.617188 123.605469 L 322.964844 127.011719 C 320.695312 125.308594 317.855469 123.605469 315.015625 122.46875 L 313.882812 111.683594 C 313.3125 109.980469 312.179688 108.277344 310.476562 108.277344 L 297.417969 106.574219 C 295.714844 106.574219 294.011719 107.140625 292.875 108.84375 L 288.335938 118.496094 C 285.496094 119.0625 282.65625 119.632812 279.820312 120.765625 L 271.304688 114.523438 C 269.601562 113.386719 267.898438 113.386719 266.195312 114.523438 L 255.976562 122.46875 C 254.273438 123.605469 253.707031 125.308594 254.273438 127.578125 L 257.679688 137.230469 C 255.976562 139.5 254.273438 142.339844 253.136719 145.179688 L 242.917969 146.882812 C 241.214844 147.449219 239.511719 148.585938 239.511719 150.289062 L 237.808594 163.34375 C 237.808594 165.046875 238.378906 166.75 240.082031 167.886719 L 249.730469 172.429688 C 250.300781 175.265625 250.867188 178.671875 252.003906 181.511719 L 245.757812 189.457031 C 244.621094 191.160156 244.621094 192.863281 245.757812 194.566406 L 253.707031 204.785156 C 254.839844 206.488281 256.542969 207.058594 258.246094 206.488281 L 267.898438 203.082031 C 270.167969 204.785156 273.007812 206.488281 275.847656 207.625 L 277.550781 217.84375 C 278.117188 219.546875 279.253906 221.25 280.953125 221.25 L 294.011719 222.953125 L 294.578125 222.953125 C 296.28125 222.953125 297.984375 221.816406 298.554688 220.683594 L 303.09375 211.03125 C 305.933594 210.464844 309.339844 209.894531 312.179688 208.761719 L 320.695312 215.003906 C 322.398438 216.140625 324.101562 216.140625 325.804688 215.003906 L 336.023438 207.058594 C 337.726562 205.921875 338.292969 204.21875 337.726562 201.949219 L 334.320312 192.296875 C 336.023438 190.027344 337.726562 187.1875 338.859375 184.347656 L 349.078125 182.644531 C 350.78125 182.078125 352.484375 180.941406 352.484375 179.238281 L 354.1875 166.183594 C 354.1875 164.480469 353.054688 162.777344 351.351562 162.210938 Z M 343.96875 174.699219 L 334.320312 176.402344 C 332.617188 176.402344 331.480469 177.539062 330.914062 179.238281 C 329.777344 182.644531 327.507812 186.050781 325.234375 188.890625 C 324.101562 190.027344 324.101562 191.730469 324.667969 192.863281 L 328.074219 201.949219 L 322.964844 205.921875 L 315.015625 200.246094 C 313.882812 199.109375 312.179688 199.109375 311.042969 199.675781 C 307.636719 201.378906 303.664062 201.949219 299.6875 202.515625 C 297.984375 202.515625 296.851562 203.652344 296.28125 204.785156 L 292.308594 213.300781 L 285.496094 213.300781 L 283.792969 203.652344 C 283.792969 201.949219 282.65625 200.8125 280.953125 200.246094 C 277.550781 198.542969 274.144531 196.839844 271.304688 194.566406 C 270.167969 193.433594 268.464844 193.433594 267.332031 194 L 258.246094 197.40625 L 254.273438 192.296875 L 259.949219 184.347656 C 261.085938 183.214844 261.085938 181.511719 260.519531 180.375 C 258.816406 176.96875 258.246094 172.996094 257.679688 169.023438 C 257.679688 167.320312 256.542969 166.183594 255.410156 165.617188 L 246.324219 161.074219 L 247.460938 154.261719 L 257.113281 152.558594 C 258.816406 152.558594 259.949219 151.421875 260.519531 149.71875 C 262.222656 146.3125 263.925781 142.90625 266.195312 140.070312 C 267.332031 138.933594 267.332031 137.230469 266.761719 136.09375 L 263.355469 127.011719 L 268.464844 123.039062 L 276.414062 128.714844 C 277.550781 129.851562 279.25 129.851562 280.386719 129.28125 C 283.792969 127.578125 287.765625 127.011719 291.171875 126.445312 C 292.875 126.445312 294.011719 125.308594 294.578125 124.171875 L 298.554688 115.65625 L 305.367188 116.792969 L 307.070312 126.445312 C 307.070312 128.148438 308.203125 129.28125 309.90625 129.851562 C 313.3125 130.984375 316.71875 133.257812 319.558594 135.527344 C 320.695312 136.664062 322.398438 136.664062 323.53125 136.09375 L 332.617188 132.6875 L 336.589844 137.796875 L 330.914062 145.746094 C 329.777344 146.882812 329.777344 148.585938 330.34375 149.71875 C 332.046875 153.125 332.617188 157.101562 333.183594 160.507812 C 333.183594 162.210938 334.320312 163.34375 335.453125 163.914062 L 344.539062 167.886719 Z M 343.96875 174.699219 " fill-opacity="1" fill-rule="nonzero"/></g><path fill="#111111" d="M 295.714844 132.121094 C 288.335938 132.121094 282.089844 134.390625 276.414062 138.933594 C 269.601562 144.042969 265.058594 151.992188 263.925781 160.507812 C 262.789062 169.023438 265.058594 177.539062 270.167969 184.347656 C 276.414062 192.863281 286.0625 197.40625 296.28125 197.40625 C 303.664062 197.40625 309.90625 195.136719 315.585938 190.59375 C 329.777344 179.808594 332.617188 159.371094 321.828125 145.179688 C 315.585938 137.230469 305.933594 132.121094 295.714844 132.121094 Z M 309.90625 183.78125 C 305.933594 187.1875 300.824219 188.890625 295.714844 188.890625 C 288.335938 188.890625 280.953125 185.484375 276.414062 179.238281 C 272.441406 174.132812 270.738281 167.886719 271.871094 161.640625 C 273.007812 155.398438 275.847656 149.71875 280.953125 145.746094 C 284.929688 142.339844 290.039062 140.636719 295.148438 140.636719 C 302.527344 140.636719 309.90625 144.042969 314.449219 150.289062 C 322.964844 161.074219 320.695312 175.835938 309.90625 183.78125 Z M 309.90625 183.78125 " fill-opacity="1" fill-rule="nonzero"/></svg>