<svg xmlns="http://www.w3.org/2000/svg" xmlns:xlink="http://www.w3.org/1999/xlink" width="500" zoomAndPan="magnify" viewBox="0 0 375 374.999991" height="500" preserveAspectRatio="xMidYMid meet" version="1.0"><defs><clipPath id="b08d1a92b5"><path d="M 33.832031 37.5 L 339 37.5 L 339 243 L 33.832031 243 Z M 33.832031 37.5 " clip-rule="nonzero"/></clipPath><clipPath id="c07094d2d3"><path d="M 204 196 L 262 196 L 262 310.5 L 204 310.5 Z M 204 196 " clip-rule="nonzero"/></clipPath><clipPath id="2b75a53613"><path d="M 284 162 L 341.332031 162 L 341.332031 310.5 L 284 310.5 Z M 284 162 " clip-rule="nonzero"/></clipPath><clipPath id="b89dba6c1c"><path d="M 124 230 L 182 230 L 182 310.5 L 124 310.5 Z M 124 230 " clip-rule="nonzero"/></clipPath><clipPath id="055ecee5dc"><path d="M 45 253 L 103 253 L 103 310.5 L 45 310.5 Z M 45 253 " clip-rule="nonzero"/></clipPath></defs><g clip-path="url(#b08d1a92b5)"><path fill="#040606" d="M 261.683594 117.125 L 221.609375 117.125 L 180.242188 174 L 134.027344 174 L 96.085938 230.875 L 33.855469 230.875 L 33.855469 242.25 L 102.179688 242.25 L 140.121094 185.375 L 186.023438 185.375 L 227.433594 128.5 L 267.289062 128.5 L 321.910156 57.582031 L 338.992188 70.734375 L 330.183594 37.5 L 295.757812 37.5 L 312.882812 50.652344 L 261.683594 117.125 " fill-opacity="1" fill-rule="nonzero"/></g><g clip-path="url(#c07094d2d3)"><path fill="#040606" d="M 216.046875 208.125 L 250.207031 208.125 L 250.207031 299.125 L 216.046875 299.125 Z M 204.660156 196.75 L 204.660156 310.5 L 261.59375 310.5 L 261.59375 196.75 L 204.660156 196.75 " fill-opacity="1" fill-rule="nonzero"/></g><g clip-path="url(#2b75a53613)"><path fill="#040606" d="M 295.757812 174 L 329.917969 174 L 329.917969 299.125 L 295.757812 299.125 Z M 284.371094 162.625 L 284.371094 310.5 L 341.304688 310.5 L 341.304688 162.625 L 284.371094 162.625 " fill-opacity="1" fill-rule="nonzero"/></g><g clip-path="url(#b89dba6c1c)"><path fill="#040606" d="M 136.339844 242.25 L 170.5 242.25 L 170.5 299.125 L 136.339844 299.125 Z M 124.953125 230.875 L 124.953125 310.5 L 181.886719 310.5 L 181.886719 230.875 L 124.953125 230.875 " fill-opacity="1" fill-rule="nonzero"/></g><g clip-path="url(#055ecee5dc)"><path fill="#040606" d="M 56.628906 265 L 90.792969 265 L 90.792969 299.125 L 56.628906 299.125 Z M 45.242188 253.625 L 45.242188 310.5 L 102.179688 310.5 L 102.179688 253.625 L 45.242188 253.625 " fill-opacity="1" fill-rule="nonzero"/></g></svg>